<svg id="Calque_1" data-name="Calque 1" xmlns="http://www.w3.org/2000/svg" viewBox="0 0 1028.61 980.66"><defs><style>.cls-1{fill:#ffe41e;}</style></defs><g id="Core_3" data-name="Core 3"><path d="M1025.43,409.35c-6.2-29.83-19.88-56.22-37.2-80.9-4-5.67-9-10.7-12.42-16.64-8.45-14.46-21-24.84-33.41-35.41h0c-2.53-3.73-6.22-6.26-9.52-9.25-20.62-17.66-41.15-35.41-62-52.73C795.34,151.89,718.79,90.65,639.77,32.55c-13.16-9.67-26.54-19-40.47-27.61-8-5-16.21-6.1-25.36-3.76C559.18,5,544.69,9.53,530.3,14.46c-87.16,29.81-172.84,63.46-258.2,98-9.49,3.83-19.2,7.25-28.29,12.11h0l-1.43.41a31.56,31.56,0,0,0-4.13.4c-29.15,5.79-57.44,14.27-84.53,26.57-25.4,11.49-49.07,25.73-68.48,46.13-28.36,29.74-39.46,64.74-31.78,105.34C58.05,327.77,68.37,349.68,81,370.7c1.69,2.84,4,5.36,4,8.94h0c-2.28,6.81-2.68,14-3.73,21-1.94,13-4.65,25.86-5.57,39h0c-1.45,1.64-2.81,3.42-4.38,4.93A326.11,326.11,0,0,0,40.14,479c-15,19.32-28,39.85-35.22,63.49-6,19.81-7.22,39.66.37,59.42,7,18.3,19.9,31.65,35.65,42.65,2.9,2,6.44,3.3,8.6,6.35h.06c-2.23,13.63,1.74,24.71,12,34.28C74,696.75,86.23,708.36,99.05,719.4,186.23,794.4,276.1,866.07,368,935.25c18.34,13.84,37,27.28,56.4,39.64,9,5.76,18.06,7.18,28.45,4.4,17.9-4.77,35.53-10.47,53-16.61,106.75-37.47,212-78.77,316.17-123.06,15.26-6.5,30.23-12.44,44.75-20.48l.49-.23c35.63-13.71,59.18-38.8,70-75.44,9.8-33.16,8.17-66.73,2.41-100.32-1.08-6.26-3.24-12.33-2.93-18.8h0c3.38-16.91,6-33.91,8.15-51h0v-.25a1.31,1.31,0,0,1,0-.28h0c.77-3.76,4.16-5,6.81-6.81C967.42,555,982,542.68,994.38,528,1023.52,493.27,1034.7,454,1025.43,409.35ZM64.52,514c-4.47,34.86-9.37,69.68-12.58,104.72-.15,1.64-.06,3.3-.09,5-2.28.71-3.57-.89-5.05-2.06-22-17.23-29.62-41-22.1-69a139.93,139.93,0,0,1,16.55-37c8-12.94,16.82-25.27,27.51-36.16h.07C68.58,491.11,66,502.47,64.52,514ZM294.67,138.17h0c11-11.08,24.63-18.41,38-26a130.44,130.44,0,0,1,22.69-9.6c2.14-.72,4.65-1.59,6.92-2.37,0,0,3.59-1.14,4.1-1.32h0c3.14-1,6.14-2.49,9.23-3.68q32.91-12.66,65.73-25.45h0c5.33,2.19,6.63,7.65,9.8,11.38-1.26,2.68-3.57,3.2-5.42,4.25-21.67,12.3-43.36,24.53-65,36.86-3.42,1.94-6.75,3.42-10.85,3.51-24.44.62-48.57,3.27-71.56,12.48a3.68,3.68,0,0,1-3.61,0h0Zm0,0h0a1.21,1.21,0,0,1-.33.38c.18-.1.31-.24.32-.35Zm-153,65.31c10.05-11.62,21.23-21.64,36.12-26.88,8.57-3,16.33-8.07,25.18-10.51a6.55,6.55,0,0,0,.77.71c.53-.17,1.26-.33,1.16-.88.14.55-.62.73-1.16.91-7.37,8.91-14.67,17.88-22.16,26.69a9.77,9.77,0,0,1-4.22,2.47q-17.61,6.18-35.26,12.17a10,10,0,0,1-2.5.16c-1.08-2.5.92-3.5,2.06-4.81ZM133.94,225h0c10.11-5.09,20.9-8.57,31.72-11.5,15.25-4.16,27.27-11.62,36.49-24.81,7.58-10.81,17.69-19.69,27.36-28.78,6.22-5.82,12.38-11.79,20.56-14.9h0a.83.83,0,0,1,.22-.08c6.59-1.44,12.41-5,18.74-7.15,1.94-.64,3.67-2.27,5.93-1.24v.31c.24,3.21-2.84,4.24-4.4,6.17-4,5-7.8,10-9.87,16.18-1,3-.49,5.49,1.85,7.49s5.06,1.85,7.68.18c.71-.43,1.45-.83,2.12-1.29,29.65-19.42,62.5-27.31,97.58-27.15a28.44,28.44,0,0,0,14.88-4q36.66-21,73.57-41.76c1.71-.88,3.38-1.85,5-2.89,4-2.84,4.78-5.64,2.19-9.93-2.28-3.79-5-7.3-7.55-10.91-1.11-1.59-2.36-3.1-1.09-5.18l.07-.06,50-17.63c21.42-7.55,42.9-14.76,64.6-21.41,8.78-2.69,15.81-1.85,23.08,3.6,10.16,7.64,20.85,14.6,31.29,21.87h0c-.43,3.24.77,5.73,3.24,7.89a153.13,153.13,0,0,0,15.13,12.08h0c.35.5.67,1,1,1.49h0c-4.41.22-8.85.37-13.25.59-6.94.34-8.88,2.16-9.1,9-.3,9.4-.21,18.83-1.91,28.17-1.91,10.57-6.56,19.23-15.38,25.64-9.83,7.15-20.09,13.68-29.92,22-1.7-2.62-3-5-5.46-6.32-16.14-9.06-33.13-15.26-51.83-16.15A45,45,0,0,0,498.2,138c-31.31,13.35-57.33,33.35-77.17,61.11a60,60,0,0,0-6.17,10.82c-2.62,6,0,9.71,6.41,9.86,3.3.1,6.57-1,10-.18-6.5,18.18-18.86,30.82-36.12,40-3-6.75-2.56-13.71-3.64-20.34-1.6-9.83-2.49-19.78-3.94-29.65-1.36-9.33-5.79-11.06-13.75-5.61-5,3.43-8.93,7.86-10.17,13.72-.92,4.47-3,5.42-7.18,5.82-9.67,1-18.15,4.84-24.53,12.52a31.71,31.71,0,0,0-6.81,14.08c-1.39,6.75,2,10.26,8.69,9.09,3.73-.65,7.37-2,11.16-1.48.46,2.5-1.27,3.21-2.59,4.07-3.21,2.1-5.8,4.56-4.41,8.81,1.48,4.5,5.33,4.14,9,4.1.49,0,.95.4,1.26.53,0,4.71.06,9.34,0,14a41.69,41.69,0,0,1-3.6,16.12c-3.49,7.95-3.12,8.5-11.34,6.44-7.25-1.79-14.67-2.87-22.07-4-6.5-1-7.58-.4-10.26,5.58q-10.83,24.27-21.36,48.7c-2.77,6.41-1.23,9.21,5.33,10.91,3.21.83,6.44,1.44,9.56,2.15,1,2.59-1,3.7-2.16,5.09-10.85,12.7-23.39,23.6-36.49,33.9-8.08,6.35-16.21,12.6-24.23,19-12.2,9.71-23.26,20.53-31.8,33.72a31.74,31.74,0,0,1-2.37,2.68,681.32,681.32,0,0,1-56.87-56.24,440,440,0,0,1-29.06-36.14c-2-2.79-3.44-5.59-3.11-9.09.61-3,1.35-6,1.88-8.94q8-45.86,15.84-91.68c2.4-14.18,6.25-28.08,7.79-42.41Zm236.81,33c-1.33.15-2.72.52-4.6-.87h0c7.52-9.92,8.36-21.91,9.5-34,3,6.35,2.34,13.35,3.94,19.88a23.85,23.85,0,0,1,.34,3.27c1.16,10.52,1.16,10.52-9.19,11.76Zm-21.51-19.39c-.37,4.93-3,5.77-7.25,5.7a34.68,34.68,0,0,1,3.3-3.45,33.08,33.08,0,0,1,3.94-2.21ZM430,665.32c-10.91.71-21.85,1.42-32.76,2.07-3.57.21-7.21.15-10.78.43-6.14.46-12.21,1-17.54-3a1.48,1.48,0,0,0-.77-.28c-9.83-.24-15.26-6.19-19-14.45-2.09-4.63-5.79-5.92-10.81-5.86-26.32.34-52.67-.06-79,.74-13.93.43-25-4.37-34-14.3-25-27.7-37.44-59.79-32.85-97.54,1.3-10.69,2.22-21.45,6.35-33.13,73,61.9,151.55,114,231.15,165.36ZM117,199.12l.12.23c-.36,9.34-3.57,18.13-5.43,27.18C104.28,262.19,98.05,298.09,92,334c-.43,2.45-1.08,4.82-1.6,7.25h0C61.07,287.82,68.09,235.82,117,199.12ZM72.13,636c1.6-14.33,3.24-28.63,4.84-42.93,3.64-32.48,8-64.87,12.57-97.23,4-28,8.29-55.88,12.39-83.83.34-2.19.31-4.41.47-6.63h0c1.94-1.26,2.95,0,4,1.36,23.33,29.43,50,55.69,77.94,80.59,2.87,2.56,3.76,4.78,2.5,8.57-5.55,16.73-6.81,34.18-7.67,51.62a101,101,0,0,0,5.42,37.6c5.7,17,13.68,32.67,24.84,46.69a83.59,83.59,0,0,0,17.32,16.64,47.88,47.88,0,0,0,28.76,9.18c24.13-.3,48.23-.27,72.33-.43,11.74-.09,11.74-.09,17.23,11.31-2,1.85-4.63,1-6.91,1.11a1100,1100,0,0,1-127.1-2.4c-37.87-2.84-75.47-7.8-111.81-19.51-7.09-2.31-14-5.15-21-7.8-2.32-.86-4.78-1.54-6.17-3.91ZM457.91,955.37a10.37,10.37,0,0,0-3.19.37c-9.34,4.25-17.08,1.7-25.3-3.91-32.27-22.07-63.37-45.62-94.25-69.5C257.41,822.2,180.61,760.84,106.46,696.27,96,687.18,85.72,677.94,76.14,667.92c-1.78-1.87-4.71-3.32-3.59-6.79,19.86,8.65,40.71,13.88,61.87,18,37.29,7.34,75,10.36,113,12,38.49,1.66,77,1.11,115.45-.31,1.94-.06,3.91.06,5.82-.18,4.16-.53,6.23.92,6.14,5.39-.1,4.68.33,9.4.27,14.11A46.88,46.88,0,0,0,385.52,741c4.84,6.07,10,11.9,15,17.79a69.61,69.61,0,0,1,17,40.65c.46,5.54-.43,10.44-3.76,14.88-.49.65-.89,1.39-1.42,2-12.42,15.65-13.83,32.33-5.88,50.6,12.88,29.62,28.35,57.57,49.28,82.35C457.18,951,460.33,952.31,457.91,955.37Zm144.52-64.55c-.69,7.7-3.61,14-10.72,17.65-.83.35-1.66.6-1.66.6h0c-13.43,3.91-26.28,9.54-39.32,14.1q-34,11.94-68,23.92a37.23,37.23,0,0,0-3.8,1.6c-.38.16-.91.35-1.27.47-3.57,1-5.84-1.09-8.15-3.52a210.26,210.26,0,0,1-24.59-32.39,317.9,317.9,0,0,1-28.35-55.43c-4.23-11-3.73-21.64,3.79-30.57,13.06-15.51,10.91-32.27,5.57-49.47-3.32-10.72-9.58-19.91-16.85-28.38-4.5-5.27-9.1-10.48-13.44-15.88a33.15,33.15,0,0,1-7.74-22.25,135,135,0,0,0-.83-16.58c-.34-3.45.31-5.14,4.16-5.24,23.58-.61,47-2.68,70.52-4.4,4-.28,6.87,1.75,9.92,3.57,34.61,20.4,69.68,39.94,105.55,58,21.79,11,43.77,21.42,66.2,31,6.54,2.77,6.45,2.83,6.29,9.58-.21,9.68-.46,19.39-.43,29.09,0,8.76-3.36,15.57-10.6,20.44-4.35,3-8.72,5.88-13.1,8.81-15,10-22.5,24-23,41.91C602.52,888.55,602.52,889.66,602.43,890.82ZM505.52,682.13c71-7.37,141.55-16.15,213.14-30.48-2.77,6.62-6,10.72-9.18,14.79a152.61,152.61,0,0,1-20.19,20.87C670,704.23,658.51,725.4,654.1,750.58a40.31,40.31,0,0,1-1,4,25.65,25.65,0,0,1-1.14,2.9C601.42,735.75,552.94,710.27,505.52,682.13Zm169.1,162.63c-1.72,8.94-3.57,17.88-5.64,26.75-.55,2.47-.53,5.25-2.23,7.33a5.91,5.91,0,0,1-1.74,1.23c-14.28,5.4-28.56,10.84-42.84,16.22-2.54.94-5.11,1.75-7.67,2.63.27-5.79.24-11.54,1.17-17.33A35.83,35.83,0,0,1,631.05,857c4.93-3.52,10.07-6.78,15.07-10.27,10.23-7.15,15.56-16.82,15.41-29.52-.13-10.2-.07-20.43,1.41-31.41,17,6.66,33.75,12.7,51.16,18.49-3.17,4.2-7.12,6.79-10.6,9.81-7.09,6.19-14.11,12.45-21.51,18.24a19.57,19.57,0,0,0-7.35,12.42Zm41.15,9.62c-1.42,3.13-2.81,6.34-6.1,8-.41.19-.8.36-1.08.47l-.18.07-.23.08h0c-6.36,2.42-12.72,4.92-19.13,7.18-2.46.87-4.8,2.9-7.72,1.56v-.08c-1.11-5.18,3.18-9,3.42-14,.47-9.64,5.24-16.76,13.16-22.53,8.45-6.16,16.06-13.49,24-20.27,1.45-1.21,3-2.32,5.46-4.2a133.62,133.62,0,0,1-11.58,43.72Zm87.55-31.72C797.13,827,789.89,829.14,783,832c-17.3,7.26-34.76,14.14-52.16,21.15,1.7-9.47,5.94-18.24,7.14-27.84.34-2.74.92-5.42,1.35-8.13.84-5.37.87-5.49,6.29-4.13a356.38,356.38,0,0,0,57.7,9.61Zm112.86-209c-.46,3-1.14,6-.83,9h.06A56.46,56.46,0,0,0,912.84,636h0c-.11,1.07-.58,3.9-.69,4.53-.5,2-1.06,4-1.39,6-7.67,45.54-15.32,91.06-26.5,135.89-1.52,3.24-4.55,4.69-7.46,6.25-13.93,7.46-28.94,10.94-44.57,12-22.56,1.51-44.84-.9-66.88-5.55-32.6-6.87-64-17.6-94.89-30-6.5-2.58-5.7-2.71-4.77-8.44,3.63-22.56,12.42-42.41,29.74-57.94,4.74-4.25,9.27-8.72,13.8-13.22,8.73-8.66,16.65-18.09,21.58-29.31,3-6.84,7.73-9,14.27-10.42A876,876,0,0,0,835.5,621c27.34-9.18,54.06-19.81,79.64-33.19,1.65-.89,3.25-2.14,5.32-2v.08c-1.4,9.34-2.81,18.57-4.26,27.77ZM791.37,477.47c-4.29-1.94-8.51-4.16-13-5.64-5.79-1.94-9.15-5.64-10.57-12.51,22,.83,43.33.67,64.66.55,5.33,0,9.61,2.25,13.47,5.61,5.27,4.59,9.3,10.23,13.06,16.06a298.57,298.57,0,0,1,14.58,26.1c10.36,20.16,19.76,40.83,33.63,59.67-51.5,26.84-105.87,43-162.64,56.27,1.88-8.66,3.52-16.06,5.12-23.45.68-3.24,1.45-6.47,1.88-9.77.83-6.32-2.77-9.4-9-7.64a64.48,64.48,0,0,0-7,2.71l-38.56,15.34c-7.7,3.06-7.7,3.06-13.77-3.72,30.48-12.39,58.34-28.79,81.48-52.52,15.13-15.5,26.54-33.32,32.51-54.33,2.38-8.09,1.76-9.32-5.88-12.77Zm153.21-57.38-.09.9h0l-.18,1.24v.1A71.44,71.44,0,0,1,940.55,435c-11,27.83-16.43,56.86-18.58,86.6-.93,12.6-1.58,25.24-1.58,38.74-4.22-1.17-5.54-4-7.18-6.29-6.93-9.74-12.39-20.34-17.84-30.94-6.6-12.79-13.1-25.64-19.91-38.34-4.87-9.06-10.45-17.66-17.6-25.15-7.61-8-16.45-12.33-28-12-19.39.53-38.77.16-58.19-.74a142.8,142.8,0,0,1-72-22.77c-2.34-1.48-4.62-3.21-7.18-4.13-4.9-1.76-8.94,1.72-8.26,6.93a24.54,24.54,0,0,0,1.69,5.55,109.87,109.87,0,0,0,41,51.1,34,34,0,0,0,5,2.89c7.27,3.46,9.86,2.81,14.88-3.54,3.39-4.28,6.72-8.57,10.94-14,3,11.09,12,12.76,19.64,16.18s7.82,3.48,4.59,11.5c-6,14.82-15,27.73-26.08,39.2-18.18,18.77-39.91,32.42-63.24,43.79-4.13,2-5.51,1-7.3-2.83A495.3,495.3,0,0,0,630,485.12c-7.55-10-15.44-19.63-25.15-27.61-3.67-3-7.46-5.83-12.36-6.47-5.79-.78-8.29,1.29-8.44,7.15s1.29,11.52,2.89,17.13c5.09,17.72,13.1,34.12,22.26,50a346.31,346.31,0,0,0,70.7,86.57c5.23,4.65,9.76,5.89,16.3,2.9,10.32-4.69,21-8.54,31.59-12.67,2.56-1,4.93-2.59,8.6-2.47-.56,8.88-3.55,17.08-6,25.37-.77,2.59-3.33,2.5-5.49,3-23.27,5.08-46.69,9.24-70.2,13.1-36.37,5.94-72.92,10.54-109.54,14.48-23.42,2.53-46.9,4.47-70.32,6.78a13.34,13.34,0,0,1-8.63-2.09c-86.64-52.86-171.64-108.15-249.52-173.61-9.92-8.35-9.92-8.38-2.18-18.61a135.68,135.68,0,0,1,24-24.07q12-9.62,24.19-19c13.84-10.75,26.87-22.28,38.49-35.44,4.13-4.69,4.75-5.24,9.19-1.48,10.17,8.57,21.11,8.51,33.37,5.92,17.32-3.64,34.95-5.86,52.43-8.79,3.2-.52,5-.18,5.7,3.67,4.19,21.45,17.72,35.78,36.09,46.26A155.51,155.51,0,0,0,471.68,449c6.32,1.82,8.48.68,10.79-5.49,1.85-4.93,3.51-9.92,5.12-14.94.83-2.53,1.81-3.76,4.71-2.47,24.72,11,51,12,77.42,12,8.57,0,17.16.12,25.76-.09,5.37-.16,7-2,7.46-6.88a50.76,50.76,0,0,0-33.75-52.73c-8.66-3.08-17.69-4.44-26.81-5.42-2.65-.28-6.41.06-7.27-2.65-1-3.27,1.2-6.41,3.79-8.69,3.2-2.81,7.15-4.16,11.22-5.18,14.36-3.64,29.09-3.91,43.73-4.56,10.79-.5,21.6-.28,32.42-.46,8.75-.16,11.37-3.86,8.78-12.24-2.52-8.11-8.29-13.65-15-18.34-12.21-8.53-26-13.43-40.25-17.26A150.37,150.37,0,0,0,551.13,299c-9.39-.67-11.49,1.14-11.61,10.36a107.65,107.65,0,0,1-1.76,18.18c-1.73,9-6.35,15.2-15.72,17.14-1.91.4-3.73,1.08-5.58,1.66-8.63,2.71-14,8.69-16.73,17.11-1,2.86-1.6,5.85-2.44,9.09-3-2.31-3.48-5.7-4.68-8.66-3.11-7.68-5.83-15.57-9.71-22.93-8.72-16.49-21.85-27.68-39.72-33.16-7.92-2.44-10.67-.22-10.61,8.19.07,5.89,2.25,11.31,3.92,17.51-4-.68-5.24-3.61-7.18-5.58-3.89-4-7.83-7.92-11.28-12.23s-7.46-5-12.52-3.79c-21.41,5.27-40.43,14.91-56.3,30.44C342.46,349,336.11,356,331.15,364c-2.65,4.28-5.7,5.15-10.33,4-8.59-2.07-17.29-3.73-25.7-5.49-1.66-1.88-.52-3.42.09-4.84,4.63-10.66,9.56-21.23,13.93-32,1.61-4,3.76-4.87,7.62-4.07,7.3,1.55,14.67,2.87,22,4.26,7.58,1.42,8.63.86,12.7-5.92a66,66,0,0,0,9.37-30.7c.24-4.16,1.72-5.45,5.76-6.25,19.63-3.79,37.54-11.5,53-24.5a105.34,105.34,0,0,0,13-13.87c1.36-.59,1.7-.31,1.95.37,3.82,10,3.82,9.83,14.2,9.86,30.14.12,55.85-10,76.34-32.48,4.1-4.5,8.32-8.91,12.45-13.41,2.19-2.4,3.58-5,1.94-8.29s-4.53-3.73-7.76-3.57c-8,.4-15.94,1.54-24.29.83-.18-4.87,3-7.77,5.4-11,3-4,6.16-7.83,7.24-12.92,1.51-7.09-1.51-10.78-8.69-10.14-11.81,1-21,6.47-27.4,16.55a92.06,92.06,0,0,0-7.86,16.46c-2.37,6.19-4.68,12.45-7.27,18.55-1.36,3.21-2.81,6.48-6.41,9.59-2.31-5.12-4.53-9.49-6.29-14-1.91-4.94-5.21-6.78-10.36-6-4.09.59-8.25.84-12.32,1.24-1.42-2.47.61-3.76,1.66-5.06a172.26,172.26,0,0,1,66.76-50.88,38.62,38.62,0,0,1,21.94-2.5,123,123,0,0,1,27.89,7.83c3.57,1.45,5.64,2.62,2.87,7.09-3.76,6.1-3.46,13.28-3.3,20.25.09,3,1.35,5.42,4.19,6.59s5.45,0,7.4-2.25c14.3-16.51,31.77-29.18,49.62-41.48,13.49-9.31,19.81-22.71,21.66-38.58.65-5.8,1.23-11.62,1.39-17.42.09-3.51,1.17-5,4.81-4.8,4.43.21,8.87,0,13.31,0,5.79.06,11.59.06,17.2-1.73a.08.08,0,0,1,0-.07h.06c19.6,15.38,39.23,30.67,58.77,46.08C795,180.92,860,233,922.64,288a17.07,17.07,0,0,0,2.57,1.7l.15.17h0l.76.8.07.08h0c7.67,8,15.28,16.06,23,24,2.72,2.82,4.74,5.88,4.7,10h0c-.43,5.76-.92,11.56-1.33,17.35-1.56,26.09-5.35,51.94-8,77.91ZM750.52,457.21c-4.41,5.86-8.17,10.88-12,15.84a2.42,2.42,0,0,1-3.61.46,86.78,86.78,0,0,1-28.53-30.38A186.19,186.19,0,0,0,750.52,457.21ZM675.74,589.7v-.06a13.25,13.25,0,0,1-2.65-1.85c-29.74-30.08-53.62-64.13-69.62-103.46-1.57-3.82-2.71-7.83-3.94-11.8-.22-.65.15-1.48.33-3a117.29,117.29,0,0,1,15,16.18,480.87,480.87,0,0,1,59.64,96.71c.92,2,1.51,4.16,2.28,6.22h0l-1,1-.07.06Zm1.36,1c-.45.35-.73.25-.93,0,.17.2.45.28.9,0Zm-.39-2a1.83,1.83,0,0,1,.71,1.55,2.17,2.17,0,0,0-.74-1.6ZM424.05,380c6.11,4.25,12.27,8.54,18.74,12.23,3.55,2,6.23-.8,8.38-3.48L473.58,361l2.1-2.56c3,.5,2.74,3.3,3.45,5.06,2.28,5.64,4.22,11.43,7.27,16.73s6.87,9.37,12.76,11.28c6.66,2.19,10.23-.06,10.42-7.05.15-5.58.46-11.1,2-16.46,2-6.9,5.31-9.31,12.93-9.82-.15,4.36-2.3,8.38-2.27,12.84,0,7,2,10.39,8.79,12.17,5.85,1.51,12,2.19,18,3.12,7.71,1.17,15.23,2.8,22.19,6.47,11.22,5.91,16.77,15.62,18.56,27.86.46,3.08-.25,4.68-3.73,4.62-22.1-.31-44.29.83-66.2-3.7A119.88,119.88,0,0,1,491,411.35c-7.15-3.48-9.68-2.37-12.45,5.15-1.82,4.93-3.6,9.89-5.08,14.92-.9,3-2.25,4.16-5.37,3.08-14.73-5.15-28.78-11.5-40.12-22.69-8.63-8.53-13.16-19-14.43-31-1-9.68-2.37-10.79-12-9.28-18.3,2.9-36.61,6-54.88,9-3.49.56-6.94,1.42-10.7.84a9.36,9.36,0,0,1,.56-2.62c15.62-25.83,36.67-44.88,66.32-53.23,3.33-.92,6.16-1.6,9,1.54,11.31,12.55,22.87,24.87,34.3,37.32.34.34.34,1,.58,1.82-4,2.84-8.9,2.13-13.4,3a53.6,53.6,0,0,1-5.8.37c-2.89.22-4.49,2.1-5.36,4.56A5.08,5.08,0,0,0,424.05,380Zm23.09-55.78c8.75.61,19.88,11.37,25.76,25.67-14.38-7.55-21.17-14.45-25.76-25.67Zm11.83,33c-1.29,1-2.51-.22-3.26-.85a1.1,1.1,0,0,1-.2-1c.42-.94,2.42.29,3.34,1.16a.63.63,0,0,1,.12.67Zm65.35.21c0-.18.19-.31.51-.4s.65.15.65.25h0a1,1,0,0,0-.64-.24.62.62,0,0,0-.52.37Zm22-13.83c-.05.16-.21.31-.56.42a1.1,1.1,0,0,1-.22-.43,2.74,2.74,0,0,1-.08-.37,2.81,2.81,0,0,1,.08.31,1.1,1.1,0,0,0,.22.43c.37-.1.54-.18.59-.38ZM546,343Zm.26.39a.58.58,0,0,0-.13-.2h0a.6.6,0,0,1,.16.18Zm0-.36c2.94-8.87,5.57-17.83,5.72-27.31,0-2.5.8-4.34,3.92-3.91,21,3,41.29,8.07,59,20.61a21.43,21.43,0,0,1,3.15,2.72,21,21,0,0,1,1.75,2.49c-2.83,1.82-5.85,1.24-8.63,1.33-16.3.58-32.66.52-48.94,2.34-5.29.56-10.43,3-15.92,1.71ZM433.79,218.76c1.94-.18,2.78-.3,3.58-.3,9.52-.59,7.58-1.58,11.46,6.78,2.31,5,4.59,10,6.88,15,.09.22-.07.53-.1.81-8.38,1.6-8.38,1.6-10.82-6-.83-2.62-1.6-5.27-2.49-7.86C440.52,222.18,440.52,222.22,433.79,218.76Zm63.86-31.71a36.44,36.44,0,0,0-4.41,15c-.46,6.6,2,9.22,8.63,9.12,5.12-.06,10.23-.55,15.6-.09-13.22,15.19-28.36,26.75-49.07,29.12-.74-2.89,1.51-3.69,2.68-5,5.37-5.82,8.73-12.79,11.65-20,2.38-5.89,4.6-11.86,6.78-17.84S495.27,186.13,499,181C500.58,183.54,498.63,185.25,497.65,187.05Zm1.45-6c.28.09.55.19.83.25l-.46-.13Zm494.21,310a145.5,145.5,0,0,1-42.68,48h0a30.79,30.79,0,0,1,.09-3.33c8.26-55.29,16-110.61,21.94-166.2.74-6.79.07-13.83,2.67-20.38h0c16.61,24.37,28.1,50.76,30.94,80.37A105.05,105.05,0,0,1,993.31,491.05Z"/><path d="M672.39,301.3a52.92,52.92,0,0,0-19.23-4.63c-3.54-.24-6.75.37-8.32,4-1.45,3.36.31,5.79,2.62,8a98.45,98.45,0,0,1,6.87,7.22c11.53,13.59,19.33,28.81,20.9,46.9.71,7.8,1.23,8.2,9,9q14,1.44,28.07,2.41c6.45.46,8.76-1.82,8.76-8.51a27.07,27.07,0,0,0-.5-4.41C713.07,334.43,698,313.59,672.39,301.3ZM690,359.76c-2.8-.06-2.59-2.46-2.87-4.25-2.25-13.93-8.16-26.35-15.53-38.19h0c.46-.4.9-.8,1.36-1.17,17.81,9.65,27.58,25.52,34.85,44.69C701.21,361.52,695.6,359.82,690,359.76Z"/><path d="M350.89,174.66c7.12-.74,15.5-.86,23.18-4.65,6.65-3.3,10.94-8.29,11.21-16.09.13-3.82-1.38-6.47-5.27-7.27-8.38-1.73-16.73-3.64-25.18-5-5.14-.83-6.59.34-8.5,5.64s-3.55,10.48-5.18,15.75C338.38,171.82,340.63,174.82,350.89,174.66Zm4.65-13.37c0-4.72,1.42-7.15,6.26-5.74,2.34.68,4.75,1.17,7.61,1.88C365.1,160.92,360.6,161.59,355.54,161.29Z"/><path class="cls-1" d="M653.13,754.61c.37-1.32.74-2.68,1-4,4.41-25.18,15.9-46.35,35.19-63.27a152.61,152.61,0,0,0,20.19-20.87c3.17-4.07,6.41-8.17,9.18-14.79-71.6,14.3-142.17,23.08-213.17,30.45,47.4,28.14,95.88,53.62,146.45,75.38A27,27,0,0,0,653.13,754.61Z"/><path class="cls-1" d="M703.52,814.1c3.48-3,7.43-5.61,10.6-9.81-17.41-5.79-34.18-11.83-51.16-18.49a209.76,209.76,0,0,0-1.41,31.41c.15,12.7-5.18,22.37-15.41,29.52-5,3.49-10.14,6.75-15.07,10.27a35.83,35.83,0,0,0-15.38,24.59c-.93,5.79-.9,11.54-1.17,17.33,2.56-.88,5.13-1.69,7.67-2.63,14.28-5.38,28.56-10.82,42.84-16.22a5.91,5.91,0,0,0,1.74-1.23c1.7-2.08,1.68-4.86,2.23-7.33,2.07-8.87,3.92-17.81,5.64-26.75A19.6,19.6,0,0,1,682,832.34C689.41,826.55,696.43,820.29,703.52,814.1Z"/><path class="cls-1" d="M697.94,835.14c-7.92,5.77-12.69,12.89-13.16,22.53-.24,5-4.53,8.82-3.42,14v.08c2.92,1.34,5.26-.69,7.72-1.56,6.41-2.26,12.77-4.76,19.13-7.18h0l.23-.08.18-.07c.28-.11.67-.28,1.08-.47,3.29-1.67,4.68-4.88,6.1-8a133.61,133.61,0,0,0,11.65-43.71c-2.47,1.88-4,3-5.46,4.2C714,821.65,706.39,829,697.94,835.14Z"/><path class="cls-1" d="M625.58,845.53q6.57-4.39,13.1-8.81c7.24-4.87,10.63-11.68,10.6-20.44,0-9.7.22-19.41.43-29.09.16-6.75.25-6.81-6.29-9.58-22.43-9.56-44.41-20-66.2-31-35.87-18.06-70.94-37.6-105.55-58-3-1.82-5.89-3.85-9.92-3.57-23.49,1.72-46.94,3.79-70.52,4.4-3.85.1-4.5,1.79-4.16,5.24a135,135,0,0,1,.83,16.58,33.15,33.15,0,0,0,7.74,22.25c4.34,5.4,8.94,10.61,13.44,15.88,7.27,8.47,13.53,17.66,16.85,28.38,5.34,17.2,7.49,34-5.57,49.47-7.52,8.93-8,19.53-3.8,30.57a318.88,318.88,0,0,0,28.3,55.41,210.26,210.26,0,0,0,24.59,32.39c2.31,2.43,4.58,4.52,8.15,3.52.36-.12.89-.31,1.27-.47,1.25-.56,2.49-1.14,3.8-1.6q34-12,68-23.92c13-4.56,25.89-10.19,39.32-14.1h0c.56-.18,1.11-.38,1.66-.61,7.11-3.65,10-9.94,10.72-17.64.1-1.11.1-2.22.13-3.33C603.08,869.54,610.63,855.52,625.58,845.53Z"/><path class="cls-1" d="M739.39,817.18c-.43,2.71-1,5.39-1.35,8.13-1.2,9.6-5.44,18.37-7.14,27.84,17.4-7,34.86-13.89,52.16-21.15,6.85-2.87,14.09-5,20.28-9.34h0a356.38,356.38,0,0,1-57.7-9.61C740.26,811.69,740.23,811.82,739.39,817.18Z"/><path class="cls-1" d="M455.8,949.33c-20.93-24.78-36.4-52.73-49.28-82.35-8-18.27-6.54-35,5.88-50.6.53-.65.93-1.39,1.42-2,3.33-4.44,4.22-9.34,3.76-14.88a69.67,69.67,0,0,0-17.06-40.68c-5.06-5.89-10.17-11.72-15-17.79a46.89,46.89,0,0,1-10.45-30.82c.06-4.71-.37-9.43-.27-14.11.09-4.47-2-5.92-6.14-5.39-1.91.24-3.88.12-5.82.18-38.46,1.42-77,2-115.45.31-37.94-1.66-75.69-4.69-113-12-21.16-4.16-42-9.39-61.87-18-1.12,3.47,1.81,4.92,3.59,6.79,9.58,10,19.88,19.26,30.32,28.35,74.15,64.57,151,125.93,228.71,186.06,30.88,23.88,62,47.43,94.25,69.5,8.22,5.6,16,8.16,25.3,3.91a10.37,10.37,0,0,1,3.19-.37C460.33,952.31,457.18,951,455.8,949.33Z"/><path class="cls-1" d="M764.85,544.49c-23.14,23.73-51,40.13-81.48,52.52,6.07,6.78,6.07,6.78,13.77,3.72l38.56-15.34a69.87,69.87,0,0,1,7-2.72c6.2-1.75,9.8,1.33,9,7.65-.43,3.3-1.2,6.53-1.88,9.77-1.6,7.39-3.24,14.79-5.12,23.45,56.77-13.28,111.14-29.43,162.64-56.27-13.87-18.84-23.27-39.51-33.63-59.67a298.57,298.57,0,0,0-14.58-26.1c-3.76-5.83-7.79-11.47-13.06-16.06-3.86-3.36-8.14-5.64-13.47-5.61-21.33.12-42.65.28-64.66-.55,1.42,6.87,4.78,10.57,10.57,12.51,4.44,1.48,8.66,3.7,13,5.64,7.64,3.45,8.26,4.68,6,12.73C791.39,511.17,780,529,764.85,544.49Z"/><path class="cls-1" d="M672.92,316.15c-.46.37-.9.77-1.36,1.17h0c7.37,11.84,13.28,24.26,15.53,38.19.28,1.79.07,4.19,2.87,4.25,5.64.09,11.25,1.76,17.81,1.08C700.52,341.67,690.73,325.82,672.92,316.15Z"/><path class="cls-1" d="M915.16,587.82c-25.58,13.38-52.3,24-79.64,33.19a876,876,0,0,1-90.42,24.81c-6.54,1.45-11.25,3.58-14.27,10.42-4.93,11.22-12.85,20.65-21.58,29.31-4.53,4.5-9.06,9-13.8,13.22-17.32,15.53-26.11,35.38-29.74,57.94-.93,5.73-1.73,5.86,4.77,8.44,30.88,12.36,62.29,23.09,94.89,30,22,4.65,44.32,7.06,66.88,5.55,15.63-1,30.64-4.53,44.57-12,2.91-1.57,5.94-3,7.46-6.25,11.18-44.83,18.83-90.35,26.5-135.89.33-2,.89-4,1.39-6,.11-.63.58-3.46.69-4.53h0a56.46,56.46,0,0,1,2.57-13.32h-.06c-.31-3,.37-6,.83-9,1.45-9.2,2.86-18.43,4.31-27.69v-.08C918.41,585.68,916.81,586.93,915.16,587.82Z"/><path class="cls-1" d="M142.09,208.19q17.64-6,35.26-12.17a9.77,9.77,0,0,0,4.22-2.47c7.49-8.81,14.79-17.78,22.16-26.69.54-.18,1.3-.36,1.16-.91.1.55-.63.71-1.16.88a6.55,6.55,0,0,1-.77-.71c-8.85,2.44-16.61,7.49-25.18,10.51-14.89,5.24-26.07,15.26-36.12,26.88-1.11,1.29-3.14,2.34-2.07,4.84A10,10,0,0,0,142.09,208.19Z"/><path class="cls-1" d="M298.34,138.23c23-9.21,47.12-11.86,71.56-12.48,4.1-.09,7.43-1.57,10.85-3.51,21.64-12.33,43.33-24.56,65-36.86,1.85-1,4.16-1.57,5.42-4.25-3.17-3.73-4.47-9.19-9.8-11.38h0L375.64,95.18c-3.12,1.19-6.12,2.64-9.23,3.64h0c-.51.18-4.06,1.3-4.1,1.32-2.27.78-4.78,1.65-6.92,2.37a130.44,130.44,0,0,0-22.69,9.6c-13.36,7.54-27,14.87-38,26h0A3.67,3.67,0,0,0,298.34,138.23Z"/><path class="cls-1" d="M369.41,157.43c-2.86-.71-5.27-1.2-7.61-1.88-4.84-1.41-6.26,1-6.26,5.74h0C360.6,161.59,365.1,160.92,369.41,157.43Z"/><path class="cls-1" d="M294.66,138.2c0,.11-.16.25-.31.39a1.21,1.21,0,0,0,.33-.38Z"/><path class="cls-1" d="M110.32,359.14c-.53,3-1.27,6-1.88,8.94-.33,3.5,1.08,6.3,3.11,9.09a439.67,439.67,0,0,0,29.18,36.25,682.85,682.85,0,0,0,56.87,56.24A31.74,31.74,0,0,0,200,467c8.54-13.19,19.6-24,31.8-33.72,8-6.38,16.15-12.63,24.23-19,13.1-10.3,25.64-21.21,36.49-33.9,1.17-1.39,3.17-2.5,2.15-5.09-3.11-.71-6.34-1.32-9.55-2.16-6.56-1.69-8.1-4.49-5.33-10.9q10.5-24.42,21.36-48.7c2.68-6,3.76-6.56,10.26-5.58,7.4,1.11,14.82,2.19,22.07,4,8.22,2.06,7.85,1.51,11.34-6.44a41.69,41.69,0,0,0,3.6-16.12c.06-4.62,0-9.25,0-14-.31-.13-.77-.56-1.26-.53-3.64,0-7.49.4-9-4.1-1.39-4.25,1.2-6.71,4.41-8.81,1.32-.86,3-1.57,2.59-4.07-3.79-.55-7.43.83-11.16,1.48-6.72,1.17-10.08-2.34-8.69-9.09a31.71,31.71,0,0,1,6.81-14.08c6.38-7.68,14.86-11.56,24.53-12.52,4.13-.4,6.26-1.35,7.18-5.82C365,212,369,207.53,374,204.11c8-5.45,12.39-3.73,13.75,5.61,1.45,9.87,2.34,19.82,3.94,29.65,1.08,6.63.68,13.59,3.64,20.34,17.26-9.15,29.62-21.79,36.12-40-3.48-.8-6.75.28-10,.18-6.41-.15-9-3.91-6.41-9.86a60,60,0,0,1,6.17-10.82C441,171.45,467,151.45,498.35,138.1a45,45,0,0,1,20.28-3.45c18.7.89,35.69,7.09,51.83,16.15,2.44,1.35,3.76,3.7,5.46,6.32,9.83-8.36,20.09-14.89,29.92-22,8.82-6.41,13.47-15.07,15.38-25.64,1.7-9.34,1.61-18.77,1.91-28.17.22-6.87,2.16-8.69,9.1-9,4.4-.22,8.84-.37,13.25-.59h0c-.35-.5-.67-1-1-1.49h0a153.13,153.13,0,0,1-15.13-12.08c-2.47-2.16-3.67-4.65-3.24-7.89h0C615.67,43,605,36,594.82,28.39c-7.27-5.45-14.3-6.29-23.08-3.6-21.7,6.65-43.18,13.86-64.6,21.41q-25,8.84-50,17.63l-.07.06c-1.27,2.08,0,3.59,1.09,5.18,2.56,3.61,5.27,7.12,7.55,10.91,2.59,4.29,1.85,7.09-2.19,9.93-1.62,1-3.29,2-5,2.89C434,106.7,409.39,120.51,385,134.56a28.44,28.44,0,0,1-14.88,4c-35.08-.16-67.93,7.73-97.58,27.15-.68.46-1.41.86-2.12,1.29-2.62,1.67-5.24,1.85-7.68-.18s-2.86-4.53-1.85-7.49c2.07-6.16,5.83-11.22,9.87-16.18,1.56-1.93,4.64-3,4.4-6.17v-.31c-2.26-1-4,.6-5.93,1.24-6.33,2.14-12.15,5.71-18.74,7.15a.83.83,0,0,0-.22.08h0c-8.18,3.11-14.34,9.08-20.56,14.9-9.67,9.09-19.78,18-27.36,28.78-9.22,13.19-21.24,20.65-36.49,24.81-10.82,2.93-21.61,6.41-31.72,11.5h0c-1.54,14.33-5.39,28.23-7.79,42.41Q118.35,313.31,110.32,359.14ZM341.15,163c1.63-5.27,3.3-10.54,5.18-15.75s3.36-6.47,8.5-5.64c8.45,1.39,16.8,3.3,25.18,5,3.89.8,5.4,3.45,5.27,7.27-.27,7.8-4.56,12.79-11.21,16.09-7.68,3.79-16.06,3.91-23.18,4.65C340.63,174.82,338.38,171.82,341.15,163Z"/><path class="cls-1" d="M78.3,639.87c7,2.65,13.89,5.49,21,7.8,36.34,11.71,73.94,16.67,111.81,19.51a1100,1100,0,0,0,127.1,2.4c2.28-.09,4.87.74,6.91-1.11-5.49-11.4-5.49-11.4-17.23-11.31-24.1.16-48.2.13-72.33.43a47.88,47.88,0,0,1-28.76-9.18,83.7,83.7,0,0,1-17.34-16.59c-11.16-14-19.14-29.74-24.84-46.69a101,101,0,0,1-5.42-37.6c.86-17.45,2.12-34.89,7.67-51.62,1.26-3.79.37-6-2.5-8.57-28-24.9-54.61-51.16-77.94-80.59-1.08-1.36-2.09-2.62-4-1.36h0c-.16,2.22-.13,4.44-.47,6.63-4.13,27.9-8.44,55.8-12.44,83.8C84.9,528.18,80.59,560.57,77,593.05c-1.6,14.3-3.24,28.6-4.84,42.93h0C73.52,638.33,76,639,78.3,639.87Z"/><path class="cls-1" d="M225.39,630.72c9,9.93,20,14.73,34,14.3,26.32-.8,52.67-.4,79-.74,5-.06,8.72,1.23,10.81,5.86,3.76,8.26,9.19,14.21,19,14.45a1.57,1.57,0,0,1,.77.28c5.33,4,11.4,3.45,17.54,3,3.57-.28,7.21-.22,10.78-.43,10.91-.65,21.85-1.36,32.76-2.07C350.45,614,271.89,561.91,198.91,500.06c-4.13,11.68-5,22.44-6.35,33.13C188,570.93,200.37,603,225.39,630.72Z"/><path class="cls-1" d="M375.64,223.23c-1.14,12-2,24-9.5,34h0c1.88,1.39,3.27,1,4.6.87,10.35-1.2,10.35-1.24,9.18-11.68a23.85,23.85,0,0,0-.34-3.27C378,236.58,378.69,229.58,375.64,223.23Z"/><path class="cls-1" d="M342,244.37c4.26.07,6.88-.77,7.24-5.7a33.37,33.37,0,0,0-3.94,2.25A34.68,34.68,0,0,0,342,244.37Z"/><path class="cls-1" d="M489.52,197.44c-2.18,6-4.4,12-6.78,17.84-2.92,7.21-6.28,14.18-11.65,20-1.17,1.27-3.42,2.07-2.68,5,20.71-2.37,35.85-13.93,49.07-29.12-5.37-.46-10.48,0-15.6.09-6.62.1-9.09-2.52-8.63-9.12a36.44,36.44,0,0,1,4.41-15c1-1.8,2.93-3.51,1.39-5.93C495.27,186.21,491.72,191.43,489.52,197.44Z"/><path class="cls-1" d="M562.15,341.3c16.28-1.82,32.64-1.76,48.94-2.34,2.78-.09,5.8.49,8.63-1.33a21,21,0,0,0-1.75-2.49,21.43,21.43,0,0,0-3.15-2.72c-17.66-12.54-37.93-17.65-59-20.61-3.12-.43-3.89,1.41-3.92,3.91-.15,9.48-2.78,18.44-5.72,27.31C551.72,344.33,556.86,341.88,562.15,341.3Z"/><path class="cls-1" d="M546.13,343.19a.58.58,0,0,1,.13.2.26.26,0,0,0-.09-.23C546.08,343.07,546.15,343.17,546.13,343.19Z"/><path class="cls-1" d="M954.08,324.82h0c0-4.1-2-7.16-4.7-10-7.74-8-15.35-16-23-24h0l-.07-.08-.76-.8h0l-.15-.17a17.07,17.07,0,0,1-2.57-1.7c-62.62-55-127.62-107.12-193-158.74-19.54-15.41-39.17-30.7-58.77-46.08H671a.08.08,0,0,0,0,.07c-5.61,1.79-11.41,1.79-17.2,1.73-4.44,0-8.88.21-13.31,0-3.64-.19-4.72,1.29-4.81,4.8-.16,5.8-.74,11.62-1.39,17.42-1.85,15.87-8.17,29.27-21.67,38.58-17.84,12.3-35.31,25-49.61,41.48-2,2.25-4.44,3.49-7.4,2.25s-4.1-3.57-4.19-6.59c-.16-7-.46-14.15,3.3-20.25,2.77-4.47.7-5.64-2.87-7.09A123,123,0,0,0,524,147.82a38.62,38.62,0,0,0-21.94,2.5,172.26,172.26,0,0,0-66.76,50.88c-1.05,1.3-3.08,2.59-1.66,5.06,4.07-.4,8.23-.65,12.32-1.24,5.15-.74,8.45,1.11,10.36,6,1.76,4.53,4,8.9,6.29,14,3.6-3.11,5.05-6.38,6.41-9.59,2.59-6.1,4.9-12.36,7.27-18.55a91.73,91.73,0,0,1,7.86-16.46c6.38-10.08,15.59-15.5,27.4-16.55,7.18-.64,10.2,3,8.69,10.14-1.08,5.09-4.29,8.91-7.24,12.92-2.38,3.23-5.58,6.13-5.4,11,8.35.71,16.31-.43,24.29-.83,3.23-.16,6.16.4,7.76,3.57s.25,5.89-1.94,8.29c-4.13,4.5-8.35,8.91-12.45,13.41C504.73,244.88,479,255,448.88,254.9c-10.38,0-10.38.15-14.2-9.86-.25-.68-.59-1-1.95-.37a105.34,105.34,0,0,1-13,13.87c-15.41,13-33.32,20.71-53,24.5-4,.8-5.52,2.09-5.76,6.25a66,66,0,0,1-9.37,30.7c-4.07,6.78-5.12,7.34-12.7,5.92-7.33-1.39-14.7-2.71-22-4.26-3.86-.8-6,.1-7.62,4.07-4.37,10.76-9.3,21.33-13.93,32-.61,1.42-1.75,3-.09,4.84,8.41,1.76,17.11,3.42,25.7,5.49,4.63,1.11,7.68.24,10.33-4a118.8,118.8,0,0,1,18.06-21.67c15.87-15.53,34.89-25.17,56.3-30.44,5.06-1.24,9.07-.5,12.52,3.79s7.3,8.09,11.23,12.09c1.94,2,3.23,4.9,7.18,5.58-1.67-6.2-3.85-11.62-3.92-17.51-.06-8.41,2.69-10.63,10.61-8.19,17.87,5.48,31,16.67,39.72,33.16,3.88,7.36,6.6,15.25,9.71,22.93,1.2,3,1.69,6.35,4.68,8.66.84-3.24,1.48-6.23,2.44-9.09,2.77-8.42,8.1-14.4,16.73-17.11,1.85-.58,3.67-1.26,5.58-1.66,9.37-1.94,14-8.11,15.72-17.14a107.65,107.65,0,0,0,1.76-18.18c.12-9.22,2.21-11,11.61-10.36a150.37,150.37,0,0,1,28.67,4.56c14.23,3.83,28,8.73,40.25,17.26,6.68,4.69,12.45,10.23,15,18.34,2.59,8.38,0,12.08-8.78,12.24-10.82.18-21.63,0-32.42.46-14.64.64-29.37.92-43.73,4.56-4.07,1-8,2.37-11.22,5.18-2.59,2.28-4.81,5.42-3.79,8.69.86,2.71,4.62,2.37,7.27,2.65,9.12,1,18.15,2.34,26.81,5.42A50.76,50.76,0,0,1,603.08,431c-.43,4.93-2.09,6.72-7.46,6.88-8.6.21-17.19.09-25.76.09-26.41,0-52.7-1-77.42-12-2.9-1.29-3.88-.06-4.71,2.47-1.61,5-3.27,10-5.12,14.94-2.31,6.17-4.47,7.31-10.79,5.49A155.51,155.51,0,0,1,438.11,435c-18.37-10.48-31.9-24.81-36.09-46.26-.74-3.85-2.5-4.19-5.7-3.67-17.48,2.93-35.11,5.15-52.43,8.79-12.26,2.59-23.2,2.65-33.37-5.92-4.44-3.76-5.06-3.21-9.19,1.48-11.62,13.16-24.65,24.69-38.49,35.44q-12.16,9.44-24.19,19a135.68,135.68,0,0,0-24,24.07c-7.74,10.23-7.74,10.26,2.18,18.61C294.71,552,379.71,607.32,466.35,660.18a13.33,13.33,0,0,0,8.63,2.09c23.42-2.31,46.9-4.25,70.32-6.78,36.62-3.94,73.17-8.54,109.54-14.48,23.51-3.86,46.93-8,70.2-13.1,2.16-.47,4.72-.37,5.49-3,2.46-8.29,5.45-16.49,6-25.37-3.67-.12-6,1.48-8.6,2.47-10.57,4.13-21.27,8-31.59,12.67-6.54,3-11.07,1.75-16.3-2.9a346.31,346.31,0,0,1-70.7-86.57c-9.16-15.87-17.17-32.27-22.26-50-1.6-5.61-3-11.25-2.89-17.13s2.65-7.93,8.44-7.15c4.9.64,8.69,3.45,12.36,6.47,9.71,8,17.6,17.66,25.15,27.61a495.3,495.3,0,0,1,55.35,91.6c1.79,3.85,3.17,4.83,7.3,2.83,23.33-11.37,45.06-25,63.24-43.79,11.1-11.47,20.07-24.38,26.08-39.2,3.23-8,3.17-8-4.59-11.5s-16.62-5.09-19.64-16.18c-4.22,5.39-7.55,9.68-10.94,14-5,6.35-7.61,7-14.88,3.54a34,34,0,0,1-5-2.89,109.87,109.87,0,0,1-41-51.1,24.54,24.54,0,0,1-1.69-5.55c-.68-5.21,3.36-8.69,8.26-6.93,2.56.92,4.84,2.65,7.18,4.13a142.8,142.8,0,0,0,72,22.77c19.42.9,38.8,1.27,58.19.74,11.53-.31,20.37,4,28,12,7.15,7.49,12.73,16.09,17.6,25.15,6.81,12.7,13.31,25.55,19.91,38.34,5.45,10.6,10.91,21.2,17.84,30.94,1.64,2.31,3,5.12,7.18,6.29,0-13.5.65-26.14,1.58-38.74,2.15-29.74,7.58-58.77,18.58-86.6a71.44,71.44,0,0,0,3.76-12.64.17.17,0,0,1,0-.1l.18-1.24h0l.09-.9c2.61-26,6.4-51.83,8.15-77.92C953.16,336.34,953.65,330.54,954.08,324.82ZM712.3,374.29q-14-1-28.07-2.41c-7.77-.8-8.29-1.2-9-9-1.57-18.09-9.37-33.31-20.9-46.9-2.15-2.53-4.5-4.9-6.87-7.22s-4.07-4.68-2.62-8c1.57-3.64,4.78-4.25,8.32-4a52.92,52.92,0,0,1,19.23,4.63c25.65,12.29,40.68,33.13,48.17,60a27.07,27.07,0,0,1,.5,4.41c0,6.63-2.31,8.91-8.76,8.45Z"/><path class="cls-1" d="M499.1,181l.37.12.46.13C499.65,181.23,499.38,181.13,499.1,181Z"/><path class="cls-1" d="M442.3,227.21c.89,2.59,1.66,5.24,2.49,7.86,2.44,7.55,2.44,7.55,10.82,5.94,0-.27.19-.58.09-.8q-3.42-7.49-6.87-15c-3.88-8.36-1.94-7.37-11.46-6.78-.8,0-1.64.12-3.58.3C440.52,222.22,440.52,222.18,442.3,227.21Z"/><path class="cls-1" d="M677.07,590.66c-.45.32-.73.24-.93,0C676.34,590.91,676.62,591,677.07,590.66Z"/><path class="cls-1" d="M676.68,588.65c-.77-2.06-1.36-4.22-2.28-6.22a480.87,480.87,0,0,0-59.64-96.71,117.29,117.29,0,0,0-15-16.18c-.18,1.51-.55,2.34-.33,3,1.23,4,2.37,8,3.94,11.8,16,39.33,39.88,73.38,69.62,103.46a13.25,13.25,0,0,0,2.65,1.85v0l1-1Z"/><path class="cls-1" d="M734.89,473.51c1.42.93,2.66.77,3.61-.46,3.82-5,7.58-10,12-15.84a186.26,186.26,0,0,1-44.13-14.08A86.66,86.66,0,0,0,734.89,473.51Z"/><path class="cls-1" d="M676.68,588.65c.41.46.82,1.06.71,1.55C677.52,589.69,677.12,589.1,676.68,588.65Z"/><path class="cls-1" d="M545.57,343.55a2.81,2.81,0,0,0-.08-.31,2.74,2.74,0,0,0,.08.37,1.1,1.1,0,0,0,.22.43c.35-.11.51-.26.56-.42-.05.15-.22.28-.56.36A1.1,1.1,0,0,1,545.57,343.55Z"/><path class="cls-1" d="M427.52,369.53a53.6,53.6,0,0,0,5.8-.37c4.5-.83,9.37-.12,13.4-3-.24-.8-.24-1.48-.58-1.82-11.43-12.45-23-24.77-34.3-37.32-2.84-3.14-5.67-2.46-9-1.54-29.65,8.35-50.7,27.4-66.32,53.23a9.73,9.73,0,0,0-.56,2.61c3.76.59,7.21-.27,10.7-.83,18.27-3,36.58-6.07,54.88-9,9.65-1.51,11-.4,12,9.28,1.27,12,5.8,22.44,14.43,31,11.34,11.19,25.39,17.54,40.12,22.69,3.12,1.08,4.47-.1,5.37-3.08,1.48-5,3.26-10,5.08-14.92,2.77-7.52,5.3-8.63,12.45-5.15a119.88,119.88,0,0,0,28.85,10.17c21.91,4.53,44.1,3.39,66.2,3.7,3.48.06,4.19-1.54,3.73-4.62-1.79-12.24-7.34-22-18.56-27.86-7-3.67-14.48-5.3-22.19-6.47-6-.93-12.11-1.61-18-3.12-6.81-1.79-8.76-5.21-8.79-12.17,0-4.46,2.12-8.48,2.27-12.84-7.62.51-11,2.92-12.93,9.82-1.54,5.36-1.85,10.88-2,16.46-.19,7-3.76,9.24-10.42,7.05-5.89-1.91-9.8-6.13-12.76-11.28s-5-11.09-7.27-16.73c-.71-1.76-.43-4.56-3.45-5.06l-2.1,2.56q-11.19,13.92-22.41,27.83c-2.15,2.68-4.83,5.52-8.38,3.48-6.47-3.69-12.63-8-18.74-12.23a5.08,5.08,0,0,1-1.94-6C423,371.63,424.58,369.75,427.52,369.53Z"/><path class="cls-1" d="M525.52,357.32h0c0-.1-.43-.28-.65-.25a.64.64,0,0,0-.51.4.62.62,0,0,1,.51-.37A1,1,0,0,1,525.52,357.32Z"/><path class="cls-1" d="M455.52,355.36a1.1,1.1,0,0,0,.2,1c.75.63,2,1.83,3.26.85a.64.64,0,0,0-.12-.71C457.93,355.66,455.93,354.43,455.52,355.36Z"/><path class="cls-1" d="M447.14,324.26c4.59,11.22,11.37,18.12,25.76,25.67C467,335.63,455.89,324.87,447.14,324.26Z"/></g></svg>