<svg id="visual" viewBox="0 0 900 900" width="900" height="900" xmlns="http://www.w3.org/2000/svg" xmlns:xlink="http://www.w3.org/1999/xlink" version="1.1"><path d="M0 344L37.5 350.5C75 357 150 370 225 364C300 358 375 333 450 341.5C525 350 600 392 675 395.7C750 399.3 825 364.7 862.5 347.3L900 330L900 901L862.5 901C825 901 750 901 675 901C600 901 525 901 450 901C375 901 300 901 225 901C150 901 75 901 37.5 901L0 901Z" fill="#faa016"></path><path d="M0 556L37.5 553.5C75 551 150 546 225 552.5C300 559 375 577 450 562C525 547 600 499 675 476.3C750 453.7 825 456.3 862.5 457.7L900 459L900 901L862.5 901C825 901 750 901 675 901C600 901 525 901 450 901C375 901 300 901 225 901C150 901 75 901 37.5 901L0 901Z" fill="#fa8a12"></path><path d="M0 755L37.5 755.2C75 755.3 150 755.7 225 739C300 722.3 375 688.7 450 676.7C525 664.7 600 674.3 675 690C750 705.7 825 727.3 862.5 738.2L900 749L900 901L862.5 901C825 901 750 901 675 901C600 901 525 901 450 901C375 901 300 901 225 901C150 901 75 901 37.5 901L0 901Z" fill="#f97316"></path></svg>