<svg width="1585" height="1672" viewBox="0 0 1585 1672" fill="none" xmlns="http://www.w3.org/2000/svg">
<path d="M598.681 3.55548C595.721 1.06664 588.919 1.17331 583.267 0C580.306 4.33769 576.484 7.76872 575.55 11.5553C573.291 21.1194 571.69 30.8245 570.759 40.6036C548.884 258.555 466.966 460.844 307.562 646.12C219.165 748.837 131.109 853.849 66.0054 965.437C-95.4986 1242.32 48.222 1525.07 400.516 1648.66C412.108 1652.69 425.136 1654.54 454.189 1661.26C334.712 1554.31 273.161 1445.52 293.905 1316.74C313.645 1193.95 376.362 1084.4 471.327 984.512C478.325 998.414 478.756 1010.52 478.271 1022.63C473.641 1132.17 510.231 1228.84 623.302 1305.18C675.575 1340.45 722.519 1380.4 769.786 1419.65C817.806 1459.65 831.714 1507.72 818.076 1560.09C811.508 1585.55 801.925 1610.56 791.553 1641.99C872.036 1634.15 946.453 1623.06 996.412 1579.04C1044.16 1537 1079.51 1487.08 1130.5 1429C1134.09 1478.17 1141.07 1516.43 1138.36 1554.33C1135.5 1593.74 1123.21 1632.75 1115.03 1672C1359.54 1635.61 1575.28 1397.94 1584.77 1154.78C1591.72 977.348 1439.31 717.46 1311.33 692.252C1318.5 708.892 1325.18 724.678 1332.34 740.251C1376.75 837.138 1389.76 935.376 1361.66 1036.76C1333.54 1137.61 1191.02 1250.73 1065.18 1265.04C1069.43 1254.92 1071.21 1245.48 1077.04 1237.79C1212.58 1057.01 1214.19 867.804 1137.24 674.723C1034.29 416.578 836.667 200.778 598.681 3.55548Z" fill="url(#paint0_linear)"/>
<defs>
<linearGradient id="paint0_linear" x1="792.5" y1="0" x2="792.5" y2="1672" gradientUnits="userSpaceOnUse">
<stop stop-color="#FB8E3F"/>
<stop offset="1" stop-color="#F75D5D"/>
</linearGradient>
</defs>
</svg>
