<svg width="2560" height="2371" viewBox="0 0 2560 2371" fill="none" xmlns="http://www.w3.org/2000/svg">
<path d="M1056.68 137.555C1053.72 135.067 1046.92 135.173 1041.27 134C1038.31 138.338 1034.48 141.769 1033.55 145.555C1031.29 155.119 1029.69 164.825 1028.76 174.604C1006.88 392.555 924.966 594.844 765.562 780.12C677.165 882.837 589.109 987.849 524.005 1099.44C362.501 1376.32 506.222 1659.07 858.516 1782.66C870.108 1786.69 883.136 1788.54 912.189 1795.26C792.712 1688.31 731.161 1579.52 751.905 1450.74C771.645 1327.95 834.362 1218.4 929.327 1118.51C936.325 1132.41 936.756 1144.52 936.271 1156.63C931.641 1266.17 968.231 1362.84 1081.3 1439.18C1133.58 1474.45 1180.52 1514.4 1227.79 1553.65C1275.81 1593.65 1289.71 1641.72 1276.08 1694.09C1269.51 1719.55 1259.93 1744.56 1249.55 1775.99C1330.04 1768.15 1404.45 1757.06 1454.41 1713.04C1502.16 1671 1537.51 1621.08 1588.5 1563C1592.09 1612.17 1599.07 1650.43 1596.36 1688.33C1593.5 1727.74 1581.21 1766.75 1573.03 1806C1817.54 1769.61 2033.28 1531.94 2042.77 1288.78C2049.72 1111.35 1897.31 851.46 1769.33 826.252C1776.5 842.892 1783.18 858.678 1790.34 874.251C1834.75 971.138 1847.76 1069.38 1819.66 1170.76C1791.54 1271.61 1649.02 1384.73 1523.18 1399.04C1527.43 1388.92 1529.21 1379.48 1535.04 1371.79C1670.58 1191.01 1672.19 1001.8 1595.24 808.723C1492.29 550.578 1294.67 334.778 1056.68 137.555Z" fill="url(#paint0_linear)"/>
<g filter="url(#filter0_i)">
<path d="M750.031 1991H627.16V1980.65C627.16 1962.87 634.597 1951.87 650.117 1951.87H666.608V1908.87H650.117C606.789 1908.87 581.891 1934.41 581.891 1980.65V1991H553.437V2026.57H581.891V2142H627.16V2026.57H705.41V2142H750.031V1991ZM699.589 1935.06C699.589 1949.93 712.523 1961.57 727.72 1961.57C742.918 1961.57 755.205 1949.93 755.205 1935.06C755.205 1920.18 742.918 1908.87 727.72 1908.87C712.523 1908.87 699.589 1920.18 699.589 1935.06ZM836.466 2089.29C836.466 2049.52 848.106 2029.15 873.974 2029.15C881.087 2029.15 888.848 2029.8 896.931 2033.68L905.015 1993.26C897.901 1989.7 889.818 1987.76 879.147 1987.76C863.627 1987.76 844.226 1999.4 836.466 2027.54V1991H791.521V2142H836.466V2089.29ZM1031.78 2092.2C1024.34 2101.91 1011.09 2106.43 998.798 2106.43C982.954 2106.43 963.877 2098.67 961.613 2081.21H1072.2C1072.52 2077.33 1072.84 2071.19 1072.84 2067.31C1072.84 2019.78 1038.57 1987.76 995.564 1987.76C952.236 1987.76 916.668 2018.48 916.668 2066.01C916.668 2113.55 952.236 2145.23 995.564 2145.23C1021.11 2145.23 1049.24 2137.15 1064.44 2114.52L1031.78 2092.2ZM962.26 2053.08C966.14 2034 983.277 2027.21 995.888 2027.21C1008.5 2027.21 1025.31 2034.65 1027.58 2053.08H962.26ZM1162.35 2085.09C1173.34 2088 1177.22 2091.56 1177.22 2098.02C1177.22 2105.79 1168.81 2110.31 1158.79 2110.64C1146.5 2110.64 1136.8 2101.91 1136.48 2093.17H1094.45C1094.77 2126.8 1126.78 2145.23 1157.5 2145.23C1189.19 2145.23 1222.81 2130.04 1222.81 2098.02C1222.81 2088.32 1218.29 2064.07 1181.75 2054.05L1156.2 2047.26C1147.15 2045 1143.27 2040.47 1142.95 2035.94C1142.62 2029.15 1149.09 2024.63 1158.79 2024.63C1165.9 2024.63 1175.6 2026.57 1175.93 2037.88H1218.29C1217.96 2001.02 1186.28 1987.76 1156.2 1987.76C1124.52 1987.76 1097.68 2008.46 1097.36 2030.77C1097.03 2044.67 1097.36 2067.63 1142.62 2079.92L1162.35 2085.09ZM1299.38 2062.13C1299.38 2039.18 1315.22 2031.42 1329.45 2031.42C1343.03 2031.42 1357.26 2041.76 1357.26 2061.49V2142C1364.7 2142 1394.77 2142 1402.2 2142V2059.87C1402.2 2014.28 1381.51 1987.76 1341.74 1987.76C1327.51 1987.76 1305.52 1995.85 1299.38 2014.6V1908.87H1254.44V2142H1299.38V2062.13ZM1486.31 1991H1441.69V2142H1486.31V1991ZM1435.87 1935.06C1435.87 1949.93 1448.8 1961.57 1464 1961.57C1479.19 1961.57 1491.48 1949.93 1491.48 1935.06C1491.48 1920.18 1479.19 1908.87 1464 1908.87C1448.8 1908.87 1435.87 1920.18 1435.87 1935.06ZM1573.17 2066.98C1573.17 2045.32 1589.33 2030.45 1608.09 2030.45C1627.17 2030.45 1643.01 2044.67 1643.01 2066.98C1643.01 2088.65 1627.17 2102.88 1608.09 2102.88C1589.66 2102.88 1573.17 2089.62 1573.17 2066.98ZM1527.57 1991V2216.05H1572.2V2123.57C1579.63 2137.47 1597.74 2145.23 1616.49 2145.23C1655.3 2145.23 1689.57 2114.52 1689.57 2066.01C1689.57 2018.48 1655.3 1987.76 1616.49 1987.76C1597.74 1987.76 1579.63 1995.85 1572.2 2009.75V1991H1527.57ZM1725.64 2132.95C1725.64 2140.06 1731.79 2145.23 1738.9 2145.23C1746.34 2145.23 1752.48 2140.06 1752.48 2132.95C1752.48 2125.51 1746.34 2120.34 1738.9 2120.34C1731.79 2120.34 1725.64 2125.51 1725.64 2132.95ZM1818.57 1991V2142H1804.02V1991H1818.57ZM1798.2 1935.06C1798.2 1941.85 1804.02 1947.02 1811.14 1947.02C1818.25 1947.02 1823.75 1941.85 1823.75 1935.06C1823.75 1928.27 1818.25 1923.09 1811.14 1923.09C1804.02 1923.09 1798.2 1928.27 1798.2 1935.06ZM1941.09 2130.68C1905.84 2130.68 1876.74 2105.14 1876.74 2066.01C1876.74 2026.89 1905.84 2002.31 1941.09 2002.31C1976.33 2002.31 2005.43 2026.89 2005.43 2066.01C2005.43 2105.14 1976.33 2130.68 1941.09 2130.68ZM1941.09 2145.23C1984.09 2145.23 2019.98 2114.19 2019.98 2066.01C2019.98 2018.16 1984.09 1987.76 1941.09 1987.76C1897.76 1987.76 1862.19 2018.16 1862.19 2066.01C1862.19 2114.19 1897.76 2145.23 1941.09 2145.23Z" fill="#F75E5C"/>
</g>
<path d="M1056.68 137.555C1053.72 135.067 1046.92 135.173 1041.27 134C1038.31 138.338 1034.48 141.769 1033.55 145.555C1031.29 155.119 1029.69 164.825 1028.76 174.604C1006.88 392.555 924.966 594.844 765.562 780.12C677.165 882.837 589.109 987.849 524.005 1099.44C362.501 1376.32 506.222 1659.07 858.516 1782.66C870.108 1786.69 883.136 1788.54 912.189 1795.26C792.712 1688.31 731.161 1579.52 751.905 1450.74C771.645 1327.95 834.362 1218.4 929.327 1118.51C936.325 1132.41 936.756 1144.52 936.271 1156.63C931.641 1266.17 968.231 1362.84 1081.3 1439.18C1133.58 1474.45 1180.52 1514.4 1227.79 1553.65C1275.81 1593.65 1289.71 1641.72 1276.08 1694.09C1269.51 1719.55 1259.93 1744.56 1249.55 1775.99C1330.04 1768.15 1404.45 1757.06 1454.41 1713.04C1502.16 1671 1537.51 1621.08 1588.5 1563C1592.09 1612.17 1599.07 1650.43 1596.36 1688.33C1593.5 1727.74 1581.21 1766.75 1573.03 1806C1817.54 1769.61 2033.28 1531.94 2042.77 1288.78C2049.72 1111.35 1897.31 851.46 1769.33 826.252C1776.5 842.892 1783.18 858.678 1790.34 874.251C1834.75 971.138 1847.76 1069.38 1819.66 1170.76C1791.54 1271.61 1649.02 1384.73 1523.18 1399.04C1527.43 1388.92 1529.21 1379.48 1535.04 1371.79C1670.58 1191.01 1672.19 1001.8 1595.24 808.723C1492.29 550.578 1294.67 334.778 1056.68 137.555Z" fill="url(#paint1_linear)"/>
<g filter="url(#filter1_i)">
<path d="M750.031 1991H627.16V1980.65C627.16 1962.87 634.597 1951.87 650.117 1951.87H666.608V1908.87H650.117C606.789 1908.87 581.891 1934.41 581.891 1980.65V1991H553.437V2026.57H581.891V2142H627.16V2026.57H705.41V2142H750.031V1991ZM699.589 1935.06C699.589 1949.93 712.523 1961.57 727.72 1961.57C742.918 1961.57 755.205 1949.93 755.205 1935.06C755.205 1920.18 742.918 1908.87 727.72 1908.87C712.523 1908.87 699.589 1920.18 699.589 1935.06ZM836.466 2089.29C836.466 2049.52 848.106 2029.15 873.974 2029.15C881.087 2029.15 888.848 2029.8 896.931 2033.68L905.015 1993.26C897.901 1989.7 889.818 1987.76 879.147 1987.76C863.627 1987.76 844.226 1999.4 836.466 2027.54V1991H791.521V2142H836.466V2089.29ZM1031.78 2092.2C1024.34 2101.91 1011.09 2106.43 998.798 2106.43C982.954 2106.43 963.877 2098.67 961.613 2081.21H1072.2C1072.52 2077.33 1072.84 2071.19 1072.84 2067.31C1072.84 2019.78 1038.57 1987.76 995.564 1987.76C952.236 1987.76 916.668 2018.48 916.668 2066.01C916.668 2113.55 952.236 2145.23 995.564 2145.23C1021.11 2145.23 1049.24 2137.15 1064.44 2114.52L1031.78 2092.2ZM962.26 2053.08C966.14 2034 983.277 2027.21 995.888 2027.21C1008.5 2027.21 1025.31 2034.65 1027.58 2053.08H962.26ZM1162.35 2085.09C1173.34 2088 1177.22 2091.56 1177.22 2098.02C1177.22 2105.79 1168.81 2110.31 1158.79 2110.64C1146.5 2110.64 1136.8 2101.91 1136.48 2093.17H1094.45C1094.77 2126.8 1126.78 2145.23 1157.5 2145.23C1189.19 2145.23 1222.81 2130.04 1222.81 2098.02C1222.81 2088.32 1218.29 2064.07 1181.75 2054.05L1156.2 2047.26C1147.15 2045 1143.27 2040.47 1142.95 2035.94C1142.62 2029.15 1149.09 2024.63 1158.79 2024.63C1165.9 2024.63 1175.6 2026.57 1175.93 2037.88H1218.29C1217.96 2001.02 1186.28 1987.76 1156.2 1987.76C1124.52 1987.76 1097.68 2008.46 1097.36 2030.77C1097.03 2044.67 1097.36 2067.63 1142.62 2079.92L1162.35 2085.09ZM1299.38 2062.13C1299.38 2039.18 1315.22 2031.42 1329.45 2031.42C1343.03 2031.42 1357.26 2041.76 1357.26 2061.49V2142C1364.7 2142 1394.77 2142 1402.2 2142V2059.87C1402.2 2014.28 1381.51 1987.76 1341.74 1987.76C1327.51 1987.76 1305.52 1995.85 1299.38 2014.6V1908.87H1254.44V2142H1299.38V2062.13ZM1486.31 1991H1441.69V2142H1486.31V1991ZM1435.87 1935.06C1435.87 1949.93 1448.8 1961.57 1464 1961.57C1479.19 1961.57 1491.48 1949.93 1491.48 1935.06C1491.48 1920.18 1479.19 1908.87 1464 1908.87C1448.8 1908.87 1435.87 1920.18 1435.87 1935.06ZM1573.17 2066.98C1573.17 2045.32 1589.33 2030.45 1608.09 2030.45C1627.17 2030.45 1643.01 2044.67 1643.01 2066.98C1643.01 2088.65 1627.17 2102.88 1608.09 2102.88C1589.66 2102.88 1573.17 2089.62 1573.17 2066.98ZM1527.57 1991V2216.05H1572.2V2123.57C1579.63 2137.47 1597.74 2145.23 1616.49 2145.23C1655.3 2145.23 1689.57 2114.52 1689.57 2066.01C1689.57 2018.48 1655.3 1987.76 1616.49 1987.76C1597.74 1987.76 1579.63 1995.85 1572.2 2009.75V1991H1527.57ZM1725.64 2132.95C1725.64 2140.06 1731.79 2145.23 1738.9 2145.23C1746.34 2145.23 1752.48 2140.06 1752.48 2132.95C1752.48 2125.51 1746.34 2120.34 1738.9 2120.34C1731.79 2120.34 1725.64 2125.51 1725.64 2132.95ZM1818.57 1991V2142H1804.02V1991H1818.57ZM1798.2 1935.06C1798.2 1941.85 1804.02 1947.02 1811.14 1947.02C1818.25 1947.02 1823.75 1941.85 1823.75 1935.06C1823.75 1928.27 1818.25 1923.09 1811.14 1923.09C1804.02 1923.09 1798.2 1928.27 1798.2 1935.06ZM1941.09 2130.68C1905.84 2130.68 1876.74 2105.14 1876.74 2066.01C1876.74 2026.89 1905.84 2002.31 1941.09 2002.31C1976.33 2002.31 2005.43 2026.89 2005.43 2066.01C2005.43 2105.14 1976.33 2130.68 1941.09 2130.68ZM1941.09 2145.23C1984.09 2145.23 2019.98 2114.19 2019.98 2066.01C2019.98 2018.16 1984.09 1987.76 1941.09 1987.76C1897.76 1987.76 1862.19 2018.16 1862.19 2066.01C1862.19 2114.19 1897.76 2145.23 1941.09 2145.23Z" fill="#F75E5C"/>
</g>
<defs>
<filter id="filter0_i" x="553.437" y="1908.87" width="1468.41" height="309.039" filterUnits="userSpaceOnUse" color-interpolation-filters="sRGB">
<feFlood flood-opacity="0" result="BackgroundImageFix"/>
<feBlend mode="normal" in="SourceGraphic" in2="BackgroundImageFix" result="shape"/>
<feColorMatrix in="SourceAlpha" type="matrix" values="0 0 0 0 0 0 0 0 0 0 0 0 0 0 0 0 0 0 127 0" result="hardAlpha"/>
<feOffset dx="4.64984" dy="4.64984"/>
<feGaussianBlur stdDeviation="0.929968"/>
<feComposite in2="hardAlpha" operator="arithmetic" k2="-1" k3="1"/>
<feColorMatrix type="matrix" values="0 0 0 0 0 0 0 0 0 0 0 0 0 0 0 0 0 0 0.25 0"/>
<feBlend mode="normal" in2="shape" result="effect1_innerShadow"/>
</filter>
<filter id="filter1_i" x="553.437" y="1908.87" width="1468.41" height="309.039" filterUnits="userSpaceOnUse" color-interpolation-filters="sRGB">
<feFlood flood-opacity="0" result="BackgroundImageFix"/>
<feBlend mode="normal" in="SourceGraphic" in2="BackgroundImageFix" result="shape"/>
<feColorMatrix in="SourceAlpha" type="matrix" values="0 0 0 0 0 0 0 0 0 0 0 0 0 0 0 0 0 0 127 0" result="hardAlpha"/>
<feOffset dx="4.64984" dy="4.64984"/>
<feGaussianBlur stdDeviation="0.929968"/>
<feComposite in2="hardAlpha" operator="arithmetic" k2="-1" k3="1"/>
<feColorMatrix type="matrix" values="0 0 0 0 0 0 0 0 0 0 0 0 0 0 0 0 0 0 0.25 0"/>
<feBlend mode="normal" in2="shape" result="effect1_innerShadow"/>
</filter>
<linearGradient id="paint0_linear" x1="1250.5" y1="134" x2="1250.5" y2="1806" gradientUnits="userSpaceOnUse">
<stop stop-color="#FB8E3F"/>
<stop offset="1" stop-color="#F75D5D"/>
</linearGradient>
<linearGradient id="paint1_linear" x1="1250.5" y1="134" x2="1250.5" y2="1806" gradientUnits="userSpaceOnUse">
<stop stop-color="#FB8E3F"/>
<stop offset="1" stop-color="#F75D5D"/>
</linearGradient>
</defs>
</svg>
