<svg id="Layer_1" data-name="Layer 1" xmlns="http://www.w3.org/2000/svg" viewBox="0 0 981 1024"><defs><style>.cls-1{fill:#fff;}</style></defs><title>fireship</title><path class="cls-1" d="M382.49,43.77c-1.65-1.4-5.44-1.34-8.59-2-1.65,2.44-3.78,4.37-4.3,6.5a122,122,0,0,0-2.67,16.34C354.74,187.21,309.09,301,220.26,405.22,171,463,121.93,522.07,85.65,584.84c-90,155.75-9.91,314.8,186.41,384.32,6.46,2.27,13.72,3.31,29.91,7.09-66.58-60.16-100.88-121.36-89.32-193.8,11-69.07,45.95-130.69,98.87-186.88,3.9,7.82,4.14,14.63,3.87,21.44-2.58,61.62,17.81,116,80.82,158.94,29.13,19.84,55.29,42.31,81.63,64.39,26.76,22.5,34.51,49.54,26.91,79-3.66,14.32-9,28.39-14.78,46.07C534.82,961,576.29,954.76,604.13,930c26.61-23.65,46.31-51.73,74.72-84.4,2,27.66,5.89,49.18,4.38,70.5-1.59,22.17-8.44,44.11-13,66.19C806.49,961.82,926.71,828.13,932,691.35c3.87-99.81-81.06-246-152.38-260.18,4,9.36,7.72,18.24,11.71,27,24.75,54.5,32,109.76,16.34,166.79C792,681.69,712.58,745.32,642.45,753.37c2.37-5.69,3.36-11,6.61-15.33,75.53-101.69,76.43-208.12,33.55-316.73C625.24,276.1,515.11,154.71,382.49,43.77Z"/></svg>