<svg width="1920" height="1080" viewBox="0 0 1920 1080" fill="none" xmlns="http://www.w3.org/2000/svg">
<rect width="1920" height="1080" fill="#1F1F1F"/>
<rect width="1920" height="1080" fill="#1F1F1F"/>
<g style="mix-blend-mode:soft-light">
<path d="M949.348 415.205C949.179 415.062 948.788 415.068 948.464 415C948.294 415.25 948.075 415.448 948.021 415.667C947.892 416.218 947.8 416.778 947.746 417.342C946.491 429.913 941.791 441.581 932.646 452.268C927.574 458.193 922.522 464.25 918.787 470.686C909.521 486.656 917.767 502.965 937.979 510.094C938.644 510.326 939.392 510.433 941.058 510.821C934.204 504.652 930.672 498.377 931.862 490.949C932.995 483.866 936.593 477.548 942.042 471.786C942.443 472.588 942.468 473.286 942.44 473.985C942.174 480.303 944.274 485.879 950.761 490.282C953.76 492.317 956.453 494.621 959.165 496.885C961.92 499.192 962.718 501.964 961.936 504.985C961.559 506.454 961.009 507.896 960.414 509.709C965.032 509.257 969.301 508.617 972.168 506.078C974.907 503.653 976.936 500.774 979.861 497.424C980.066 500.26 980.467 502.467 980.311 504.653C980.148 506.926 979.443 509.176 978.973 511.44C993.002 509.341 1005.38 495.633 1005.92 481.607C1006.32 471.373 997.578 456.383 990.235 454.929C990.647 455.888 991.03 456.799 991.441 457.697C993.989 463.286 994.736 468.952 993.123 474.8C991.51 480.617 983.333 487.141 976.113 487.967C976.357 487.383 976.459 486.839 976.793 486.395C984.57 475.968 984.662 465.054 980.248 453.918C974.341 439.028 963.003 426.581 949.348 415.205Z" fill="white"/>
<path d="M949.348 415.205C949.179 415.062 948.788 415.068 948.464 415C948.294 415.25 948.075 415.448 948.021 415.667C947.892 416.218 947.8 416.778 947.746 417.342C946.491 429.913 941.791 441.581 932.646 452.268C927.574 458.193 922.522 464.25 918.787 470.686C909.521 486.656 917.767 502.965 937.979 510.094C938.644 510.326 939.392 510.433 941.058 510.821C934.204 504.652 930.672 498.377 931.862 490.949C932.995 483.866 936.593 477.548 942.042 471.786C942.443 472.588 942.468 473.286 942.44 473.985C942.174 480.303 944.274 485.879 950.761 490.282C953.76 492.317 956.453 494.621 959.165 496.885C961.92 499.192 962.718 501.964 961.936 504.985C961.559 506.454 961.009 507.896 960.414 509.709C965.032 509.257 969.301 508.617 972.168 506.078C974.907 503.653 976.936 500.774 979.861 497.424C980.066 500.26 980.467 502.467 980.311 504.653C980.148 506.926 979.443 509.176 978.973 511.44C993.002 509.341 1005.38 495.633 1005.92 481.607C1006.32 471.373 997.578 456.383 990.235 454.929C990.647 455.888 991.03 456.799 991.441 457.697C993.989 463.286 994.736 468.952 993.123 474.8C991.51 480.617 983.333 487.141 976.113 487.967C976.357 487.383 976.459 486.839 976.793 486.395C984.57 475.968 984.662 465.054 980.248 453.918C974.341 439.028 963.003 426.581 949.348 415.205Z" fill="url(#paint0_linear)"/>
</g>
<g style="mix-blend-mode:soft-light">
<circle cx="960" cy="463" r="71" stroke="white" stroke-width="10"/>
</g>
<path d="M760.55 597.55C763.05 597.55 765.433 598.017 767.7 598.95L766.35 602.1C764.683 601.367 762.8 601 760.7 601C757.033 601 755.2 602.45 755.2 605.35V610.7H764.1L763.65 614.05H755.2V635H750.95V614.05H744.7V610.7H750.95V605.45C750.95 603.083 751.85 601.183 753.65 599.75C755.483 598.283 757.783 597.55 760.55 597.55ZM794.98 596.35C795.914 596.35 796.664 596.633 797.23 597.2C797.797 597.733 798.08 598.433 798.08 599.3C798.08 600.167 797.797 600.883 797.23 601.45C796.664 601.983 795.914 602.25 794.98 602.25C794.08 602.25 793.347 601.983 792.78 601.45C792.247 600.883 791.98 600.167 791.98 599.3C791.98 598.433 792.247 597.733 792.78 597.2C793.347 596.633 794.08 596.35 794.98 596.35ZM798.33 631.65H805.73V635H786.03V631.65H794.13V612H786.28V608.65H798.33V631.65ZM842.761 608.1C843.828 608.1 845.061 608.283 846.461 608.65L845.861 617.6H842.461V611.95H842.211C838.144 611.95 835.261 614.85 833.561 620.65V631.75H838.911V635H825.211V631.75H829.361V611.9H825.211V608.65H832.511L833.311 614.9C834.378 612.633 835.644 610.933 837.111 609.8C838.611 608.667 840.494 608.1 842.761 608.1ZM868.291 623.3C868.391 626.2 869.141 628.383 870.541 629.85C871.975 631.317 873.775 632.05 875.941 632.05C877.241 632.05 878.425 631.867 879.491 631.5C880.591 631.1 881.758 630.5 882.991 629.7L884.941 632.5C883.708 633.467 882.291 634.217 880.691 634.75C879.125 635.283 877.541 635.55 875.941 635.55C872.141 635.55 869.175 634.317 867.041 631.85C864.941 629.35 863.891 626.017 863.891 621.85C863.891 619.217 864.358 616.867 865.291 614.8C866.225 612.7 867.558 611.067 869.291 609.9C871.025 608.7 873.041 608.1 875.341 608.1C878.675 608.1 881.291 609.267 883.191 611.6C885.125 613.9 886.091 617.05 886.091 621.05C886.091 621.817 886.058 622.567 885.991 623.3H868.291ZM875.391 611.55C873.358 611.55 871.708 612.283 870.441 613.75C869.175 615.183 868.458 617.3 868.291 620.1H881.991C881.958 617.333 881.358 615.217 880.191 613.75C879.025 612.283 877.425 611.55 875.391 611.55ZM913.922 632.1C915.922 632.1 917.505 631.717 918.672 630.95C919.839 630.183 920.422 629.167 920.422 627.9C920.422 627.033 920.272 626.333 919.972 625.8C919.672 625.233 919.072 624.733 918.172 624.3C917.272 623.833 915.905 623.367 914.072 622.9C911.005 622.133 908.739 621.217 907.272 620.15C905.805 619.05 905.072 617.433 905.072 615.3C905.072 613.1 905.989 611.35 907.822 610.05C909.655 608.75 912.072 608.1 915.072 608.1C918.739 608.1 921.939 609.067 924.672 611L922.772 613.9C921.672 613.133 920.522 612.55 919.322 612.15C918.122 611.717 916.739 611.5 915.172 611.5C911.372 611.5 909.472 612.65 909.472 614.95C909.472 615.75 909.672 616.4 910.072 616.9C910.505 617.4 911.189 617.85 912.122 618.25C913.089 618.617 914.522 619.067 916.422 619.6C919.289 620.367 921.422 621.35 922.822 622.55C924.255 623.717 924.972 625.433 924.972 627.7C924.972 630.333 923.905 632.3 921.772 633.6C919.639 634.9 917.022 635.55 913.922 635.55C909.789 635.55 906.355 634.367 903.622 632L905.972 629.25C907.039 630.117 908.255 630.817 909.622 631.35C910.989 631.85 912.422 632.1 913.922 632.1ZM949.102 612.3C950.136 610.967 951.402 609.933 952.902 609.2C954.402 608.467 955.952 608.1 957.552 608.1C962.486 608.1 964.952 610.7 964.952 615.9V635H960.752V615.95C960.752 614.383 960.386 613.25 959.652 612.55C958.919 611.817 957.752 611.45 956.152 611.45C954.786 611.45 953.469 611.883 952.202 612.75C950.936 613.617 949.902 614.633 949.102 615.8V635H944.902V598.1L949.102 597.65V612.3ZM994.883 596.35C995.816 596.35 996.566 596.633 997.133 597.2C997.699 597.733 997.983 598.433 997.983 599.3C997.983 600.167 997.699 600.883 997.133 601.45C996.566 601.983 995.816 602.25 994.883 602.25C993.983 602.25 993.249 601.983 992.683 601.45C992.149 600.883 991.883 600.167 991.883 599.3C991.883 598.433 992.149 597.733 992.683 597.2C993.249 596.633 993.983 596.35 994.883 596.35ZM998.233 631.65H1005.63V635H985.933V631.65H994.033V612H986.183V608.65H998.233V631.65ZM1036.66 608.1C1043.03 608.1 1046.21 612.667 1046.21 621.8C1046.21 625.967 1045.35 629.3 1043.61 631.8C1041.88 634.3 1039.36 635.55 1036.06 635.55C1033.2 635.55 1030.86 634.55 1029.06 632.55V645.1L1024.86 645.6V608.65H1028.46L1028.81 612.35C1029.78 610.983 1030.93 609.933 1032.26 609.2C1033.63 608.467 1035.1 608.1 1036.66 608.1ZM1035.66 611.5C1034.33 611.5 1033.1 611.9 1031.96 612.7C1030.86 613.5 1029.9 614.5 1029.06 615.7V628.75C1029.76 629.783 1030.63 630.6 1031.66 631.2C1032.73 631.767 1033.88 632.05 1035.11 632.05C1037.31 632.05 1038.95 631.217 1040.01 629.55C1041.11 627.85 1041.66 625.267 1041.66 621.8C1041.66 618.333 1041.18 615.75 1040.21 614.05C1039.25 612.35 1037.73 611.5 1035.66 611.5ZM1070.39 631.15C1070.39 629.917 1070.81 628.883 1071.64 628.05C1072.51 627.183 1073.56 626.75 1074.79 626.75C1076.06 626.75 1077.11 627.183 1077.94 628.05C1078.78 628.883 1079.19 629.917 1079.19 631.15C1079.19 632.417 1078.78 633.467 1077.94 634.3C1077.11 635.133 1076.06 635.55 1074.79 635.55C1073.56 635.55 1072.51 635.133 1071.64 634.3C1070.81 633.433 1070.39 632.383 1070.39 631.15ZM1114.82 596.35C1115.76 596.35 1116.51 596.633 1117.07 597.2C1117.64 597.733 1117.92 598.433 1117.92 599.3C1117.92 600.167 1117.64 600.883 1117.07 601.45C1116.51 601.983 1115.76 602.25 1114.82 602.25C1113.92 602.25 1113.19 601.983 1112.62 601.45C1112.09 600.883 1111.82 600.167 1111.82 599.3C1111.82 598.433 1112.09 597.733 1112.62 597.2C1113.19 596.633 1113.92 596.35 1114.82 596.35ZM1118.17 631.65H1125.57V635H1105.87V631.65H1113.97V612H1106.12V608.65H1118.17V631.65ZM1154.85 608.1C1158.49 608.1 1161.27 609.333 1163.2 611.8C1165.17 614.233 1166.15 617.567 1166.15 621.8C1166.15 625.933 1165.15 629.267 1163.15 631.8C1161.19 634.3 1158.4 635.55 1154.8 635.55C1151.17 635.55 1148.37 634.333 1146.4 631.9C1144.44 629.433 1143.45 626.083 1143.45 621.85C1143.45 617.683 1144.44 614.35 1146.4 611.85C1148.4 609.35 1151.22 608.1 1154.85 608.1ZM1154.85 611.55C1152.55 611.55 1150.84 612.4 1149.7 614.1C1148.57 615.8 1148 618.383 1148 621.85C1148 625.317 1148.55 627.9 1149.65 629.6C1150.79 631.267 1152.5 632.1 1154.8 632.1C1157.1 632.1 1158.8 631.267 1159.9 629.6C1161.04 627.9 1161.6 625.3 1161.6 621.8C1161.6 618.333 1161.04 615.767 1159.9 614.1C1158.8 612.4 1157.12 611.55 1154.85 611.55Z" fill="#3A3A3A"/>
<defs>
<linearGradient id="paint0_linear" x1="960.469" y1="415" x2="960.469" y2="511.44" gradientUnits="userSpaceOnUse">
<stop stop-color="white"/>
<stop offset="1" stop-color="white" stop-opacity="0"/>
</linearGradient>
</defs>
</svg>
