<svg id="Layer_1" data-name="Layer 1" xmlns="http://www.w3.org/2000/svg" xmlns:xlink="http://www.w3.org/1999/xlink" viewBox="0 0 1920 1080">
  <defs>
    <style>
      .cls-1 {
        fill: none;
      }

      .cls-2 {
        fill: url(#Degradado_sin_nombre_48);
      }

      .cls-3 {
        fill: #4d4d4d;
      }

      .cls-4 {
        fill: #c9c9c9;
      }

      .cls-5 {
        fill: #cacbcf;
      }

      .cls-6 {
        fill: #e8e8e8;
      }

      .cls-7 {
        fill: #666;
      }

      .cls-8 {
        fill: #7ad2f9;
      }

      .cls-9 {
        fill: #75c9ee;
      }

      .cls-10 {
        fill: #f0fcf4;
      }

      .cls-11 {
        fill: #545454;
      }

      .cls-12 {
        fill: #ff3636;
      }

      .cls-13 {
        fill: #ce2700;
      }

      .cls-14 {
        fill: #ede9e8;
      }

      .cls-15 {
        fill: #dfd7d5;
      }

      .cls-16 {
        fill: #ffe477;
      }

      .cls-17 {
        fill: #bfbfbf;
      }

      .cls-18 {
        fill: url(#linear-gradient);
      }

      .cls-19 {
        fill: #fdbf00;
      }

      .cls-20 {
        fill: #c6c6c5;
      }

      .cls-21 {
        clip-path: url(#clip-path);
      }

      .cls-22 {
        fill: #b1b1b1;
      }

      .cls-23 {
        fill: #fff;
      }

      .cls-24 {
        fill: #fb5c25;
      }

      .cls-25 {
        clip-path: url(#clip-path-2);
      }

      .cls-26 {
        fill: #e43e0c;
      }
    </style>
    <linearGradient id="Degradado_sin_nombre_48" data-name="Degradado sin nombre 48" x1="24.77" y1="540.07" x2="1896" y2="540.07" gradientUnits="userSpaceOnUse">
      <stop offset="0.01" stop-color="#4747fc"/>
      <stop offset="0.59" stop-color="#8d41f9"/>
      <stop offset="1" stop-color="#cd27d6"/>
    </linearGradient>
    <linearGradient id="linear-gradient" x1="1014.02" y1="716.54" x2="1089.65" y2="716.54" gradientTransform="matrix(1, -0.01, -0.01, -1, -55.64, 1075.78)" gradientUnits="userSpaceOnUse">
      <stop offset="0.01" stop-color="#eb844e"/>
      <stop offset="1" stop-color="#ee4358"/>
    </linearGradient>
    <clipPath id="clip-path">
      <path class="cls-1" d="M1581.46,187.23a85.77,85.77,0,1,1-85.77-85.76A85.78,85.78,0,0,1,1581.46,187.23Z"/>
    </clipPath>
    <clipPath id="clip-path-2">
      <circle class="cls-1" cx="471.3" cy="351.52" r="71.48" transform="translate(-75 134.15) rotate(-15.02)"/>
    </clipPath>
  </defs>
  <title>fireship-animate-purple</title>
  <path id="bg" class="cls-2" d="M1763.18,241.21h99.61A33.21,33.21,0,0,0,1896,208h0a33.2,33.2,0,0,0-33.21-33.2h-166a33.21,33.21,0,0,1-33.21-33.21h0a33.21,33.21,0,0,1,33.21-33.21H1730A33.21,33.21,0,1,0,1730,42H1381v0H539.74v0H190.8a33.2,33.2,0,0,0-33.21,33.2h0a33.2,33.2,0,0,0,33.21,33.2h166A33.2,33.2,0,0,1,390,141.59h0a33.2,33.2,0,0,1-33.2,33.21H124.39A33.21,33.21,0,0,0,91.18,208h0a33.21,33.21,0,0,0,33.21,33.21h33.2a33.2,33.2,0,0,1,33.21,33.2h0a33.21,33.21,0,0,1-33.21,33.2H58a33.2,33.2,0,0,0-33.2,33.21h0A33.2,33.2,0,0,0,58,374H290.42a33.2,33.2,0,0,1,33.21,33.2h0a33.21,33.21,0,0,1-33.21,33.2h-166a33.21,33.21,0,0,0-33.21,33.2h0a33.2,33.2,0,0,0,33.21,33.2h33.2a33.21,33.21,0,0,1,33.21,33.21h0a33.21,33.21,0,0,1-33.21,33.21H58a33.21,33.21,0,0,0,0,66.41H224a33.2,33.2,0,0,1,33.2,33.2h0A33.2,33.2,0,0,1,224,706.1H124.39a33.21,33.21,0,0,0-33.21,33.21h0a33.21,33.21,0,0,0,33.21,33.2h33.2a33.2,33.2,0,0,1,33.21,33.2h0a33.2,33.2,0,0,1-33.21,33.2H58a33.2,33.2,0,0,0-33.2,33.21h0A33.19,33.19,0,0,0,58,905.34H224a33.2,33.2,0,0,1,33.2,33.21h0A33.2,33.2,0,0,1,224,971.76H190.8a33.21,33.21,0,1,0,0,66.41H1730a33.2,33.2,0,0,0,33.21-33.2h0a33.2,33.2,0,0,0-33.21-33.2h-166a33.2,33.2,0,0,1-33.2-33.21h0a33.2,33.2,0,0,1,33.2-33.21h232.45a33.2,33.2,0,0,0,33.2-33.21h0a33.2,33.2,0,0,0-33.2-33.21h-33.2a33.2,33.2,0,0,1-33.21-33.2h0a33.21,33.21,0,0,1,33.21-33.2h99.61A33.21,33.21,0,0,0,1896,739.31h0a33.21,33.21,0,0,0-33.21-33.21H1630.34a33.2,33.2,0,0,1-33.2-33.2h0a33.2,33.2,0,0,1,33.2-33.2h166a33.2,33.2,0,0,0,33.2-33.2h0a33.19,33.19,0,0,0-33.2-33.2h-33.2A33.21,33.21,0,0,1,1730,540.07h0a33.21,33.21,0,0,1,33.21-33.21h99.61a33.21,33.21,0,1,0,0-66.41h-166a33.21,33.21,0,0,1-33.21-33.2h0a33.2,33.2,0,0,1,33.21-33.2h99.62a33.2,33.2,0,0,0,33.2-33.21h0a33.2,33.2,0,0,0-33.2-33.2h-33.2A33.21,33.21,0,0,1,1730,274.41h0A33.2,33.2,0,0,1,1763.18,241.21Z"/>
  <g id="phone">
    <path class="cls-3" d="M312.63,766.64l431.83,249.28L1608,517.35V436.84L1176.22,268.05,312.63,686.5Z"/>
    <path class="cls-3" d="M369.58,767.2c-4.23-7.46-2.84-16.23,3.08-19.58s14.16,0,18.38,7.42,2.85,16.23-3.08,19.57S373.81,774.65,369.58,767.2Z"/>
    <path class="cls-4" d="M372.74,765.82c-3.61-6.4-2.42-13.92,2.67-16.8s12.17,0,15.78,6.35,2.43,13.9-2.66,16.79S376.37,772.21,372.74,765.82Z"/>
    <path class="cls-3" d="M666.3,938.5c-4.23-7.45-2.85-16.21,3.08-19.57s14.15,0,18.38,7.41,2.84,16.23-3.08,19.59S670.52,946,666.3,938.5Z"/>
    <path class="cls-4" d="M669.46,937.12c-3.62-6.39-2.42-13.9,2.67-16.8s12.16,0,15.78,6.35,2.43,13.92-2.66,16.8S673.09,943.51,669.46,937.12Z"/>
    <path class="cls-5" d="M1432.64,579.68a1.93,1.93,0,0,1-.41-.2,1.81,1.81,0,0,1-.93-1.57v-11a4.32,4.32,0,0,1,2.15-3.72l58.15-33.57a1.84,1.84,0,0,1,1.82,0,3.48,3.48,0,0,1,.39.28l2.23,1.71-1.45,1.44-.24-.11v11.76l-59.53,34.38.32,0,.19,1.69Z"/>
    <path class="cls-6" d="M1493.63,531.45a2.1,2.1,0,0,1,2.21,0,2.18,2.18,0,0,1,1.12,1.9v10.56a4,4,0,0,1-2,3.43c-9,5.2-46.28,26.7-57.71,33.28a2.23,2.23,0,0,1-3.35-1.92V568.25a4,4,0,0,1,2-3.5C1445,559.5,1482.26,538,1493.63,531.45Z"/>
    <path class="cls-5" d="M1363,619.87a2.87,2.87,0,0,1-.4-.19,1.84,1.84,0,0,1-.93-1.58v-11a4.35,4.35,0,0,1,2.16-3.72c9.47-5.48,47.58-27.47,58.13-33.56a1.81,1.81,0,0,1,1.83,0,1.74,1.74,0,0,1,.38.27l2.23,1.71-1.44,1.45-.25-.11v11.75l-59.53,34.39.33,0,.19,1.69Z"/>
    <path class="cls-6" d="M1424,571.64a2.12,2.12,0,0,1,2.2,0,2.19,2.19,0,0,1,1.12,1.9V584.1a4,4,0,0,1-2,3.43l-57.7,33.3a2.24,2.24,0,0,1-3.35-1.94V608.44a4,4,0,0,1,2-3.48C1375.4,599.7,1412.64,578.2,1424,571.64Z"/>
    <path class="cls-7" d="M312.63,686.12,744.46,935.41,1608,436.83,1176.22,187.54Z"/>
    <path class="cls-8" d="M415.75,646.72,812.93,876.05l707.19-408.29L1122.94,238.43Z"/>
    <path class="cls-9" d="M1051.49,279.69l71.45-41.26,397.18,229.33L831.5,865.32Z"/>
    <path class="cls-10" d="M1304.55,307.56a7.2,7.2,0,0,0-7.16,0l-5.14,3a5.16,5.16,0,0,0,0,8.95l81.17,46.87a10.79,10.79,0,0,0,10.72,0c1.17-.68,2.4-1.38,3.62-2.1a5,5,0,0,0,2.51-4.32,5.06,5.06,0,0,0-2.51-4.36C1368.59,344.53,1318.41,315.54,1304.55,307.56Z"/>
    <path class="cls-4" d="M481.49,812.55v20.66l81,46.79V859.34C530.53,828.72,513.57,818.54,481.49,812.55Z"/>
  </g>
  <g id="rocket" class="animate-svg-rocket">
    <polygon class="cls-11" points="885.29 489.39 841.98 561.73 884.57 689.18 946.26 586.17 885.29 489.39"/>
    <polygon class="cls-11" points="1097.01 489.11 1036.26 586.1 1098.12 689.02 1140.51 561.5 1097.01 489.11"/>
    <path class="cls-12" d="M1087.53,538.79c-13.78,36.61-28.76,57.92-29.66,60l-133.5.11c-2.1-5.1-17.12-24.59-30.64-60l36.27-30,128.7-.1Z"/>
    <path class="cls-13" d="M1087.53,538.79c-13.78,36.61-28.76,57.92-29.66,60l-66.6.05-.07-90,67.5-.05Z"/>
    <path class="cls-14" d="M1111.12,400.17c.94,49.5-8,97.51-23.59,138.62l-193.8.15c-14.13-37.19-23.47-85.18-22.61-138.58,3.16-177,108.41-246.09,119.79-263.5C1002.33,154,1107.68,223.47,1111.12,400.17Z"/>
    <path class="cls-15" d="M1111.12,400.17c.94,49.5-8,97.51-23.59,138.62l-96.3.07-.32-402C1002.33,154,1107.68,223.47,1111.12,400.17Z"/>
    <path class="cls-16" d="M1034.81,643.83c0,16.8-42.73,215.31-43.33,217.11-22.26-75.88-46.66-199.94-46.67-217a45.12,45.12,0,0,1,45-45,2.61,2.61,0,0,1,1.5.29A44.58,44.58,0,0,1,1034.81,643.83Z"/>
    <g>
      <rect class="cls-17" x="976.16" y="474.86" width="30" height="30" rx="15" ry="15"/>
      <path class="cls-18" d="M982,312.35a2,2,0,0,0-.74-.17,2.17,2.17,0,0,0-.36.56,9.48,9.48,0,0,0-.22,1.4,51.76,51.76,0,0,1-12.37,29.25c-4.19,5-8.35,10.06-11.42,15.45-7.62,13.39-.68,27,16.17,32.8.55.19,1.18.28,2.57.59-5.74-5.12-8.71-10.34-7.76-16.54.9-5.92,3.86-11.22,8.36-16.06a3.49,3.49,0,0,1,.34,1.84c-.18,5.27,1.59,9.92,7,13.56a86.7,86.7,0,0,1,7,5.47,6.26,6.26,0,0,1,2.34,6.75c-.3,1.22-.75,2.43-1.23,3.95,3.83-.41,7.38-1,9.75-3.1s3.93-4.45,6.35-7.26a44.39,44.39,0,0,1,.41,6,43.17,43.17,0,0,1-1.07,5.67c11.65-1.83,21.87-13.34,22.25-25.06.27-8.55-7.08-21-13.2-22.19.35.8.67,1.56,1,2.31a20.45,20.45,0,0,1,1.49,14.27c-1.3,4.86-8.07,10.36-14.07,11.08a6.3,6.3,0,0,1,.56-1.31c6.41-8.75,6.43-17.86,2.69-27.14C1002.89,332.1,993.39,321.77,982,312.35Z"/>
    </g>
    <path class="cls-19" d="M1034.81,643.83c0,16.8-42.73,215.31-43.33,217.11l-.21-261.78A44.58,44.58,0,0,1,1034.81,643.83Z"/>
    <path class="cls-17" d="M1069.3,352.22l-10.62-6.13a68.25,68.25,0,0,0-60.46-59.66L993,277.38a2.37,2.37,0,0,0-3.23-.87,2.42,2.42,0,0,0-.87.87l-5.22,9.05a68.24,68.24,0,0,0-60.55,60.37l-9.38,5.42a2.35,2.35,0,0,0,0,4.1l9.39,5.43a68.26,68.26,0,0,0,60.15,60.33l5.62,9.74a2.36,2.36,0,0,0,3.23.86,2.32,2.32,0,0,0,.87-.86l5.62-9.74a68.26,68.26,0,0,0,60.06-59.63l10.61-6.13a2.36,2.36,0,0,0,.87-3.22A2.3,2.3,0,0,0,1069.3,352.22Zm-36,44.43a59.93,59.93,0,1,1,17.55-42.38A59.93,59.93,0,0,1,1033.33,396.65Z"/>
  </g>
  <g id="moon">
    <path class="cls-20" d="M1581.46,187.23a85.77,85.77,0,1,1-85.77-85.76A85.78,85.78,0,0,1,1581.46,187.23Z"/>
    <g class="cls-21">
      <g>
        <g>
          <g>
            <path class="cls-22" d="M1511.28,273h70.18V255.48h-70.18v1.93a7.8,7.8,0,1,1,0,15.59Z"/>
            <path class="cls-22" d="M1581.46,224.29h-46.79v1.93a7.8,7.8,0,1,1,0,15.59v1.93h46.79Z"/>
            <path class="cls-22" d="M1581.46,193.1h-46.79V195a7.8,7.8,0,0,1,0,15.6v1.92h46.79Z"/>
            <path class="cls-22" d="M1581.46,161.92h-62.38v1.92a7.8,7.8,0,1,1,0,15.6v1.93h62.38Z"/>
            <path class="cls-22" d="M1581.46,130.73h-62.38v1.93a7.8,7.8,0,1,1,0,15.59v1.93h62.38Z"/>
            <path class="cls-22" d="M1503.49,101.47a7.8,7.8,0,0,1,0,15.59V119h78V101.47Z"/>
          </g>
          <g>
            <path class="cls-22" d="M1581.46,241.81h-85.77a7.8,7.8,0,0,0,0,15.6h85.77Z"/>
            <path class="cls-22" d="M1472.3,218.42h0a7.8,7.8,0,0,0,7.8,7.8h101.36V210.63H1480.1A7.8,7.8,0,0,0,1472.3,218.42Z"/>
            <path class="cls-22" d="M1503.49,187.23h0a7.8,7.8,0,0,0,7.79,7.8h70.18V179.44h-70.18A7.79,7.79,0,0,0,1503.49,187.23Z"/>
            <path class="cls-22" d="M1487.9,156.05h0a7.79,7.79,0,0,0,7.79,7.79h85.77V148.25h-85.77A7.8,7.8,0,0,0,1487.9,156.05Z"/>
            <path class="cls-22" d="M1581.46,117.06H1480.1a7.8,7.8,0,1,0,0,15.59h101.36Z"/>
          </g>
        </g>
        <path class="cls-22" d="M1441.11,179.44h-31.19V195h31.19a7.8,7.8,0,1,0,0-15.59Z"/>
      </g>
    </g>
  </g>
  <g id="star1">
    <g>
      <rect class="cls-23" x="1375.31" y="786.53" width="7.93" height="93.58"/>
      <rect class="cls-23" x="1332.49" y="829.35" width="93.58" height="7.93"/>
    </g>
    <g>
      <rect class="cls-23" x="1350.18" y="829.35" width="58.19" height="7.93" transform="translate(-185.18 1219.72) rotate(-45.01)"/>
      <rect class="cls-23" x="1375.31" y="804.22" width="7.93" height="58.19" transform="translate(-185.24 1219.46) rotate(-45)"/>
    </g>
  </g>
  <g id="planet">
    <path class="cls-23" d="M487.57,379.69c-40.17,23.19-87.8,36.64-98,19s25.29-52.17,65.46-75.36,87.8-36.64,98-19S527.74,356.5,487.57,379.69Zm-30.45-52.75c-46.73,27-70.79,57.81-63.93,69.68s45.57,6.44,92.3-20.53,70.78-57.81,63.93-69.68S503.84,300,457.12,326.94Z"/>
    <g>
      <circle class="cls-24" cx="471.3" cy="351.52" r="71.48" transform="translate(-75 134.15) rotate(-15.02)"/>
      <g class="cls-25">
        <g>
          <g>
            <g>
              <path class="cls-26" d="M483.92,280a4.21,4.21,0,0,1,0,8.41v1h58.87V280Z"/>
              <path class="cls-26" d="M542.79,295.81h-42v1a4.21,4.21,0,0,1,0,8.41v1h42Z"/>
              <path class="cls-26" d="M542.79,312.63H488.12v1a4.21,4.21,0,1,1,0,8.41v1h54.67Z"/>
              <path class="cls-26" d="M542.79,329.45h-42v1a4.21,4.21,0,0,1,0,8.41v1h42Z"/>
              <path class="cls-26" d="M542.79,346.27h-42v1a4.21,4.21,0,0,1,0,8.41v1h42Z"/>
              <path class="cls-26" d="M542.79,379.91h-42v1a4.21,4.21,0,0,1,0,8.41v1h42Z"/>
              <path class="cls-26" d="M542.79,363.09H492.33v1a4.21,4.21,0,0,1,0,8.41v1h50.46Z"/>
              <path class="cls-26" d="M542.79,396.73H483.92v1a4.21,4.21,0,0,1,0,8.41v1h58.87Z"/>
              <path class="cls-26" d="M483.92,423h58.87v-9.45H483.92v1a4.21,4.21,0,0,1,0,8.41Z"/>
            </g>
            <g>
              <path class="cls-26" d="M467.1,309.47h0a4.2,4.2,0,0,0,4.2,4.2h71.49v-8.41H471.3A4.2,4.2,0,0,0,467.1,309.47Z"/>
              <path class="cls-26" d="M441.87,343.11h0a4.2,4.2,0,0,0,4.2,4.2h96.72V338.9H446.07A4.2,4.2,0,0,0,441.87,343.11Z"/>
              <path class="cls-26" d="M458.69,359.93h0a4.2,4.2,0,0,0,4.2,4.2h79.9v-8.41h-79.9A4.2,4.2,0,0,0,458.69,359.93Z"/>
              <path class="cls-26" d="M450.28,376.74h0a4.2,4.2,0,0,0,4.2,4.2h88.31v-8.41H454.48A4.2,4.2,0,0,0,450.28,376.74Z"/>
              <path class="cls-26" d="M467.1,393.57h0a4.2,4.2,0,0,0,4.2,4.2h71.49v-8.41H471.3A4.2,4.2,0,0,0,467.1,393.57Z"/>
              <path class="cls-26" d="M458.69,410.39h0a4.2,4.2,0,0,0,4.2,4.2h79.9v-8.41h-79.9A4.2,4.2,0,0,0,458.69,410.39Z"/>
              <path class="cls-26" d="M458.69,292.65h0a4.2,4.2,0,0,0,4.2,4.2h79.9v-8.41h-79.9A4.2,4.2,0,0,0,458.69,292.65Z"/>
              <path class="cls-26" d="M450.28,326.29h0a4.2,4.2,0,0,0,4.2,4.2h88.31v-8.41H454.48A4.2,4.2,0,0,0,450.28,326.29Z"/>
            </g>
          </g>
          <g>
            <path class="cls-26" d="M420.84,372.54h-21V381h21a4.21,4.21,0,0,0,4.21-4.2h0A4.22,4.22,0,0,0,420.84,372.54Z"/>
            <path class="cls-26" d="M429.25,355.72H399.82v8.41h29.43a4.21,4.21,0,1,0,0-8.41Z"/>
            <path class="cls-26" d="M412.43,338.9H399.82v8.41h12.61a4.21,4.21,0,0,0,4.21-4.2h0A4.21,4.21,0,0,0,412.43,338.9Z"/>
            <path class="cls-26" d="M420.84,322.08h-21v8.41h21a4.21,4.21,0,0,0,4.21-4.2h0A4.22,4.22,0,0,0,420.84,322.08Z"/>
          </g>
        </g>
      </g>
    </g>
    <path class="cls-23" d="M549.42,306.41c6.85,11.87-17.21,42.7-63.93,69.68s-85.45,32.39-92.3,20.53l-3.61,2.08c10.19,17.63,57.82,4.18,98-19S563.2,322,553,304.34Z"/>
  </g>
  <g id="star2">
    <g>
      <rect class="cls-23" x="810.31" y="191.53" width="7.93" height="93.58"/>
      <rect class="cls-23" x="767.49" y="234.35" width="93.58" height="7.93"/>
    </g>
    <g>
      <rect class="cls-23" x="785.18" y="234.35" width="58.19" height="7.93" transform="translate(70.07 645.75) rotate(-45.01)"/>
      <rect class="cls-23" x="810.31" y="209.22" width="7.93" height="58.19" transform="translate(70 645.62) rotate(-45)"/>
    </g>
  </g>
</svg>
