<svg aria-hidden="true" data-prefix="far" data-icon="user-astronaut" role="img" xmlns="http://www.w3.org/2000/svg" viewBox="0 0 448 512" class="svguser-astronaut  "><path fill="currentColor" d="M358.6 328.8c20.5-20.2 36.4-45.1 46.2-72.8H416c8.8 0 16-7.2 16-16v-96c0-8.8-7.2-16-16-16h-11.2C378.5 53.5 307.6 0 224 0S69.5 53.5 43.2 128H32c-8.8 0-16 7.2-16 16v96c0 8.8 7.2 16 16 16h11.2c9.8 27.7 25.7 52.6 46.2 72.8C37.4 347.3 0 396.1 0 454.4V488c0 13.3 10.7 24 24 24s24-10.7 24-24v-33.6c0-47.6 38.8-86.4 86.4-86.4h13c23.5 10.2 49.4 16 76.6 16s53.1-5.8 76.6-16h13c47.6 0 86.4 38.8 86.4 86.4V488c0 13.3 10.7 24 24 24s24-10.7 24-24v-33.6c0-58.3-37.4-107.1-89.4-125.6zM224 336c-79.4 0-144-64.6-144-144S144.6 48 224 48s144 64.6 144 144-64.6 144-144 144zm80 80H144c-17.7 0-32 14.3-32 32v64h48v-48c0-8.8 7.2-16 16-16s16 7.2 16 16v48h144v-64c0-17.7-14.3-32-32-32zm-32 64c-8.8 0-16-7.2-16-16s7.2-16 16-16 16 7.2 16 16-7.2 16-16 16zm16-352H160c-26.5 0-48 21.5-48 48v16c0 53 43 96 96 96h32c53 0 96-43 96-96v-16c0-26.5-21.5-48-48-48zm-84 92l-12 36-12-36-36-12 36-12 12-36 12 36 36 12-36 12z" ></path></svg>