<svg xmlns="http://www.w3.org/2000/svg" viewBox="0 0 448 512"><g><path fill="currentColor" d="M320 320H128a32 32 0 0 0-32 32v32h256v-32a32 32 0 0 0-32-32zM136 208h176a8 8 0 0 0 8-8v-16a8 8 0 0 0-8-8H136a8 8 0 0 0-8 8v16a8 8 0 0 0 8 8z" class="fk-secondary"></path><path fill="currentColor" d="M96 512h256v-96H96zM320 80h-8V56a56.06 56.06 0 0 0-56-56h-64a56.06 56.06 0 0 0-56 56v24h-8A128 128 0 0 0 0 208v240a64 64 0 0 0 64 64V352a64.07 64.07 0 0 1 64-64h192a64.07 64.07 0 0 1 64 64v160a64 64 0 0 0 64-64V208A128 128 0 0 0 320 80zM184 56a8 8 0 0 1 8-8h64a8 8 0 0 1 8 8v24h-80zm136 144a8 8 0 0 1-8 8H136a8 8 0 0 1-8-8v-16a8 8 0 0 1 8-8h176a8 8 0 0 1 8 8z" class="fk-primary"></path></g></svg>