<svg xmlns="http://www.w3.org/2000/svg" viewBox="0 0 448 512"><path fill="currentColor" d="M192 64c0-31 32-23 32-64 12 0 32 29.5 32 56s-14.25 40-32 40-32-14.25-32-32zm160 32c17.75 0 32-13.5 32-40S364 0 352 0c0 41-32 33-32 64 0 17.75 14.25 32 32 32zm96 176v240H0V272c0-26.5 21.5-48 48-48h24V112h48v112h80V112h48v112h80V112h48v112h24c26.5 0 48 21.5 48 48zm-400 6v56.831c8.352 7 15.27 13.169 26.75 13.169 25.378 0 30.13-32 74.75-32 43.974 0 49.754 32 74.5 32 25.588 0 30.061-32 74.75-32 44.473 0 49.329 32 74.75 32 11.258 0 18.135-6.18 26.5-13.187v-56.805a6 6 0 0 0-6-6L54 272a6 6 0 0 0-6 6zm352 186v-80.87c-7.001 2.914-15.54 4.87-26.5 4.87-44.544 0-49.389-32-74.75-32-25.144 0-30.329 32-74.75 32-43.974 0-49.755-32-74.5-32-25.587 0-30.062 32-74.75 32-11.084 0-19.698-1.974-26.75-4.911V464h352zM96 96c17.75 0 32-13.5 32-40S108 0 96 0c0 41-32 33-32 64 0 17.75 14.25 32 32 32z"></path></svg>