<svg aria-hidden="true" data-prefix="fas" data-icon="times-hexagon" role="img" xmlns="http://www.w3.org/2000/svg" viewBox="0 0 576 512" class="svgtimes-hexagon  "><path fill="currentColor" d="M553.5 231.8c8.7 14.9 8.7 33.4 0 48.4l-112 192c-8.6 14.7-24.4 23.8-41.5 23.8H176c-17.1 0-32.9-9.1-41.5-23.8l-112-192c-8.7-14.9-8.7-33.4 0-48.4l112-192C143.1 25.1 158.9 16 176 16h224c17.1 0 32.9 9.1 41.5 23.8l112 192zM409.6 338c4.7-4.7 4.7-12.3 0-17l-65-65 65.1-65.1c4.7-4.7 4.7-12.3 0-17L370 134.4c-4.7-4.7-12.3-4.7-17 0l-65 65-65.1-65.1c-4.7-4.7-12.3-4.7-17 0L166.4 174c-4.7 4.7-4.7 12.3 0 17l65.1 65.1-65.1 65.1c-4.7 4.7-4.7 12.3 0 17l39.6 39.6c4.7 4.7 12.3 4.7 17 0l65.1-65.1 65.1 65.1c4.7 4.7 12.3 4.7 17 0l39.4-39.8z" ></path></svg>