<svg aria-hidden="true" data-prefix="fas" data-icon="code-commit" role="img" xmlns="http://www.w3.org/2000/svg" viewBox="0 0 640 512" class="svgcode-commit  "><path fill="currentColor" d="M128 256c0 10.8.9 21.5 2.6 32H12c-6.6 0-12-5.4-12-12v-40c0-6.6 5.4-12 12-12h118.6c-1.7 10.5-2.6 21.2-2.6 32zm500-32H509.4c1.8 10.5 2.6 21.2 2.6 32s-.9 21.5-2.6 32H628c6.6 0 12-5.4 12-12v-40c0-6.6-5.4-12-12-12zm-308-10c-23.2 0-42 18.8-42 42s18.8 42 42 42 42-18.8 42-42-18.8-42-42-42m0-118c88.4 0 160 71.6 160 160s-71.6 160-160 160-160-71.6-160-160S231.6 96 320 96z" ></path></svg>