<svg xmlns="http://www.w3.org/2000/svg" viewBox="0 0 640 512"><path fill="currentColor" d="M128 256c0 10.8.9 21.5 2.6 32H12c-6.6 0-12-5.4-12-12v-40c0-6.6 5.4-12 12-12h118.6c-1.7 10.5-2.6 21.2-2.6 32zm500-32H509.4c1.8 10.5 2.6 21.2 2.6 32s-.9 21.5-2.6 32H628c6.6 0 12-5.4 12-12v-40c0-6.6-5.4-12-12-12zm-308-80c-29.9 0-58 11.7-79.2 32.8C219.6 198 208 226.1 208 256s11.6 58 32.8 79.2C262 356.3 290.1 368 320 368s58-11.7 79.2-32.8C420.4 314 432 285.9 432 256s-11.6-58-32.8-79.2C378 155.7 349.9 144 320 144m0-48c88.4 0 160 71.6 160 160s-71.6 160-160 160-160-71.6-160-160S231.6 96 320 96z" class=""></path></svg>