<svg aria-hidden="true" focusable="false" data-prefix="fad" data-icon="film-alt" role="img" xmlns="http://www.w3.org/2000/svg" viewBox="0 0 512 512"><g><path fill="currentColor" d="M369 448H143V64h226z" class="fk-secondary"></path><path fill="currentColor" d="M488.12 64H480v20a12 12 0 0 1-12 12h-40a12 12 0 0 1-12-12V64h-47v384h47v-20a12 12 0 0 1 12-12h40a12 12 0 0 1 12 12v20h8a23.94 23.94 0 0 0 24-23.88V88a23.94 23.94 0 0 0-23.88-24zM480 372a12 12 0 0 1-12 12h-40a12 12 0 0 1-12-12v-40a12 12 0 0 1 12-12h40a12 12 0 0 1 12 12zm0-96a12 12 0 0 1-12 12h-40a12 12 0 0 1-12-12v-40a12 12 0 0 1 12-12h40a12 12 0 0 1 12 12zm0-96a12 12 0 0 1-12 12h-40a12 12 0 0 1-12-12v-40a12 12 0 0 1 12-12h40a12 12 0 0 1 12 12zM96 84a12 12 0 0 1-12 12H44a12 12 0 0 1-12-12V64h-8A23.94 23.94 0 0 0 0 87.88V424a23.94 23.94 0 0 0 23.88 24H32v-20a12 12 0 0 1 12-12h40a12 12 0 0 1 12 12v20h47V64H96zm0 288a12 12 0 0 1-12 12H44a12 12 0 0 1-12-12v-40a12 12 0 0 1 12-12h40a12 12 0 0 1 12 12zm0-96a12 12 0 0 1-12 12H44a12 12 0 0 1-12-12v-40a12 12 0 0 1 12-12h40a12 12 0 0 1 12 12zm0-96a12 12 0 0 1-12 12H44a12 12 0 0 1-12-12v-40a12 12 0 0 1 12-12h40a12 12 0 0 1 12 12z" class="fk-primary"></path></g></svg>