<svg aria-hidden="true" data-prefix="far" data-icon="fire" role="img" xmlns="http://www.w3.org/2000/svg" viewBox="0 0 384 512" class="svgfire  "><path fill="currentColor" d="M216 24.008c0-23.802-31.165-33.106-44.149-13.038C76.549 158.254 200 238.729 200 288c0 22.056-17.944 40-40 40s-40-17.944-40-40V182.126c0-19.392-21.856-30.755-37.731-19.684C30.754 198.379 0 257.279 0 320c0 105.869 86.131 192 192 192s192-86.131 192-192c0-170.29-168-192.853-168-295.992zM192 464c-79.402 0-144-64.598-144-144 0-28.66 8.564-64.709 24-88v56c0 48.523 39.477 88 88 88s88-39.477 88-88c0-64.267-88-120-64-208 40 88 152 121.771 152 240 0 79.402-64.598 144-144 144z" ></path></svg>