<svg aria-hidden="true" data-prefix="fas" data-icon="flask-potion" role="img" xmlns="http://www.w3.org/2000/svg" viewBox="0 0 416 512" class="svgflask-potion  "><path fill="currentColor" d="M415.95 356.67c-1.14 51.68-21.15 98.7-53.39 134.48-12.09 13.41-29.52 20.85-47.58 20.85H100.94c-17.78 0-35.05-7.13-47-20.3C20.43 454.79 0 405.79 0 352c0-80.12 45.61-149.15 112-183.88V96h64v110.86C155.79 217.44 75.67 245.6 65.15 335.42c65.85-32.92 127.64-31.03 181.8-3.95C291.94 353.97 328.27 352 351.8 352c-.27-91.84-75.33-125.09-111.79-144.7V96h64v73.05c67.18 36.13 113.7 107.67 111.94 187.62zM96 64h224c8.84 0 16-7.16 16-16V16c0-8.84-7.16-16-16-16H96c-8.84 0-16 7.16-16 16v32c0 8.84 7.16 16 16 16z" ></path></svg>