<svg xmlns="http://www.w3.org/2000/svg" viewBox="0 0 27.591 33.093"><path d="M11.224 18.563L0 0h7.177L14.3 11.548c.432.668.364 1.78 0 2.32l-3.076 4.695z" fill="#DB4437"/><path d="M16.367 14.53L27.59 33.093h-7.176L13.29 21.545c-.43-.668-.363-1.78 0-2.32l3.077-4.695z" fill="#FFCE43"/><path d="M11.508 7L.283 25.566H7.46l7.123-11.548c.432-.668.364-1.78 0-2.32L11.508 7z" fill="#4285F4"/><path d="M16.205 26.253L27.43 7.69H20.25L13.13 19.236c-.433.668-.365 1.78 0 2.32l3.075 4.696z" fill="#17A05E"/></svg>