<svg xmlns="http://www.w3.org/2000/svg" viewBox="0 0 512 512"><path fill="currentColor" d="M464 144h-26.1c6.2-12.1 10.1-25.5 10.1-40 0-48.5-39.5-88-88-88-41.6 0-68.5 21.3-103 68.3-34.5-47-61.4-68.3-103-68.3-48.5 0-88 39.5-88 88 0 14.5 3.8 27.9 10.1 40H48c-26.5 0-48 21.5-48 48v128c0 8.8 7.2 16 16 16h16v107.4c0 29 23.6 52.6 52.6 52.6h342.8c29 0 52.6-23.6 52.6-52.6V336h16c8.8 0 16-7.2 16-16V192c0-26.5-21.5-48-48-48zM232 448H84.6c-2.5 0-4.6-2-4.6-4.6V336h112v-48H48v-96h184v256zm-78.1-304c-22.1 0-40-17.9-40-40s17.9-40 40-40c22 0 37.5 7.6 84.1 77l2 3h-86.1zm122-3C322.5 71.6 338 64 360 64c22.1 0 40 17.9 40 40s-17.9 40-40 40h-86.1l2-3zM464 288H320v48h112v107.4c0 2.5-2 4.6-4.6 4.6H280V192h184v96z"></path></svg>