<svg aria-hidden="true" 
data-prefix="far" data-icon="heartbeat" 
role="img" xmlns="http://www.w3.org/2000/svg" viewBox="0 0 512 512">
<path fill="currentColor" d="M266.4 427.7c-5.8 5.7-15.1 5.7-20.9 0L136.7 320H68.5l143.3 141.8c24.5 24.2 63.9 24.3 88.4 0L443.5 320h-68.2L266.4 427.7zM354.7 32c-36.5 0-71 12.3-98.7 34.9C228.3 44.3 193.8 32 157.3 32 86.2 32 0 88.9 0 188c0 37.3 13.7 72.1 37.8 100h116.8l29.9-71.7 56.9 126.3c5.5 12.3 22.9 12.7 28.9.6l49.7-99.4 22.1 44.2h132c24.1-27.9 37.8-62.7 37.8-100 .1-99.1-86.1-156-157.2-156zm83.9 224h-76.7l-27.6-55.2c-5.9-11.8-22.7-11.8-28.6 0l-48.9 97.9-58.2-129.3c-5.7-12.8-24-12.5-29.4.4L133.3 256H73.4c-58.8-69.5-7-176 83.9-176 31 0 51 6.2 98.7 53.4C307.1 82.9 325.1 80 354.7 80c91.2 0 142.7 106.5 83.9 176z"></path></svg>