<svg aria-hidden="true" data-prefix="far" data-icon="lightbulb-exclamation" role="img" xmlns="http://www.w3.org/2000/svg" viewBox="0 0 352 512" class="svglightbulb-exclamation  "><path fill="currentColor" d="M96.06 459.17c0 3.15.93 6.22 2.68 8.84l24.51 36.84c2.97 4.46 7.97 7.14 13.32 7.14h78.85c5.36 0 10.36-2.68 13.32-7.14l24.51-36.84c1.74-2.62 2.67-5.7 2.68-8.84l.05-43.18H96.02l.04 43.18zM176 320c17.67 0 32-14.33 32-32s-14.33-32-32-32-32 14.33-32 32 14.33 32 32 32zm0-320C73.72 0 0 82.97 0 176c0 44.37 16.45 84.85 43.56 115.78 16.64 18.99 42.74 58.8 52.42 92.16v.06h48v-.12c-.01-4.77-.72-9.51-2.15-14.07-5.59-17.81-22.82-64.77-62.17-109.67-20.54-23.43-31.52-53.15-31.61-84.14-.2-73.64 59.67-128 127.95-128 70.58 0 128 57.42 128 128 0 30.97-11.24 60.85-31.65 84.14-39.11 44.61-56.42 91.47-62.1 109.46a47.507 47.507 0 0 0-2.22 14.3v.1h48v-.05c9.68-33.37 35.78-73.18 52.42-92.16C335.55 260.85 352 220.37 352 176 352 78.8 273.2 0 176 0zm-9.52 224h19.04c8.22 0 15.1-6.23 15.92-14.41l12.8-96c.94-9.42-6.45-17.59-15.92-17.59h-44.64c-9.47 0-16.86 8.17-15.92 17.59l12.8 96c.82 8.18 7.7 14.41 15.92 14.41z" ></path></svg>