<svg id="Layer_1" data-name="Layer 1" xmlns="http://www.w3.org/2000/svg" xmlns:xlink="http://www.w3.org/1999/xlink" viewBox="0 0 1000 250"><defs><style>.cls-1{fill:#2e3744;}.cls-2{fill:url(#linear-gradient);}.cls-3{fill:url(#linear-gradient-2);}</style><linearGradient id="linear-gradient" x1="60.62" y1="108.73" x2="173.57" y2="108.73" gradientUnits="userSpaceOnUse"><stop offset="0" stop-color="#ee4358"/><stop offset="0.5" stop-color="#ed6253"/><stop offset="1" stop-color="#eb844e"/></linearGradient><linearGradient id="linear-gradient-2" x1="16.5" y1="116.5" x2="217.5" y2="116.5" xlink:href="#linear-gradient"/></defs><title>fireship</title><path class="cls-1" d="M340.51,99.12H286.18v83.36H263.48V99.12H244.06V80.57h19.42V71.19c0-27.93,12.88-46,40.81-46h11.13v21.6H304.29c-14.84,0-18.11,11.57-18.11,24.44v9.38h76.59V182.48H340.51Zm11.13-74c8.29,0,14.84,6.11,14.84,14.18s-6.55,14.18-14.84,14.18c-8.07,0-15.06-6.11-15.06-14.18S343.57,25.14,351.64,25.14Z"/><path class="cls-1" d="M416.45,182.48H394V80.57h22.48v23.35c5.24-18.11,15.27-25.53,27.93-25.53,7.2,0,14.84,1.75,18.11,3.93L458.79,103a32.46,32.46,0,0,0-15.06-3.49c-19.2,0-27.28,19.2-27.28,46.26Z"/><path class="cls-1" d="M575.53,139.49h-81C496.75,155.2,509.41,165,525.78,165c11.35,0,22.48-5.24,27.71-14.62,5.67,2.62,12.44,5.46,18.33,8.07-8.95,17.89-27.93,26.19-47.13,26.19-29,0-52.37-21.17-52.37-53.46s23.35-52.81,52.37-52.81,51.06,20.51,51.06,52.81C575.75,133.6,575.75,137.31,575.53,139.49Zm-21.82-16.37C551.53,107.19,540,98,524.69,98c-15.71,0-27.93,9.38-30.11,25.1Z"/><path class="cls-1" d="M595.17,105.23c1.31-15.06,17.68-26.84,36.44-26.84,18.11,0,35.79,8.29,37.1,30.11H647.32c-.87-7.64-7.86-10.91-14.84-10.91-5.67,0-12.22,2.18-14.4,5.67a10.46,10.46,0,0,0-.87,9.17c1.31,3.93,7,6.33,12.44,7.86l15.71,3.93c22,5.46,26.62,19.42,26.62,29.68,0,19.64-17.24,30.77-40.59,30.77-19,0-38.62-12-39.06-33.39h20.73c1.09,8.73,8.29,14.62,20.08,14.62,10.26,0,18.11-4.58,18.11-12.22,0-6.55-6.76-10.26-14.18-12l-13.75-3.27C601.72,132.5,593.86,121.59,595.17,105.23Z"/><path class="cls-1" d="M718.89,182.48H696.42V25.14h22.48V96.06c5.67-12.44,21.6-17.68,32.3-17.68,26,0,41.24,17,41.24,46v58H770V125.74c0-15.93-10-25.31-22.69-25.31-12.87,0-28.37,7.2-28.37,27.28Z"/><path class="cls-1" d="M833.67,25.14c8.29,0,14.84,6.11,14.84,14.18S842,53.51,833.67,53.51c-8.07,0-15.06-6.11-15.06-14.18S825.6,25.14,833.67,25.14ZM844.8,80.57H822.54V182.48H844.8Z"/><path class="cls-1" d="M898.7,95.63c6.33-10.91,20.29-17.24,34-17.24,27.5,0,50.63,21.17,50.63,53.24,0,32.51-23.13,53-50.63,53-13.75,0-27.71-5.46-34-16.8V232H876.22V80.57H898.7Zm31.21,67.43c17,0,30.55-12.22,30.55-31,0-19-13.53-31.86-30.55-31.86-16.58,0-31,12-31,31.86C898.92,152.14,914.41,163.06,929.9,163.06Z"/><path class="cls-2" d="M103.28,44.55c-.21-.19-.7-.18-1.1-.28a3.58,3.58,0,0,0-.55.89,17.83,17.83,0,0,0-.34,2.24A85.92,85.92,0,0,1,82.54,94.09c-6.3,7.92-12.57,16-17.21,24.62-11.51,21.35-1.27,43.15,23.84,52.67.83.31,1.76.45,3.83,1-8.51-8.25-12.9-16.63-11.42-26.56,1.41-9.47,5.88-17.91,12.64-25.61a6,6,0,0,1,.5,2.94C94.37,131.56,97,139,105,144.9a134,134,0,0,1,10.44,8.83,10.44,10.44,0,0,1,3.44,10.82c-.47,2-1.16,3.89-1.89,6.31,5.73-.61,11-1.46,14.6-4.85,3.4-3.24,5.92-7.09,9.56-11.57.25,3.79.75,6.74.56,9.66a76.21,76.21,0,0,1-1.66,9.07c17.42-2.8,32.79-21.13,33.47-39.87.5-13.68-10.37-33.71-19.49-35.66.51,1.28,1,2.5,1.5,3.7,3.16,7.47,4.1,15,2.09,22.86s-12.16,16.5-21.13,17.6a9.94,9.94,0,0,1,.84-2.1c9.66-13.94,9.77-28.52,4.29-43.41C134.33,76.39,120.24,59.76,103.28,44.55Z"/><path class="cls-3" d="M117,32A84.53,84.53,0,1,1,57.23,56.73,84,84,0,0,1,117,32m0-16A100.5,100.5,0,1,0,217.5,116.5,100.5,100.5,0,0,0,117,16Z"/></svg>