<svg aria-hidden="true" data-prefix="fas" data-icon="hand-holding-magic" role="img" xmlns="http://www.w3.org/2000/svg" viewBox="0 0 576 512" class="svghand-holding-magic  "><path fill="currentColor" d="M224 224c52.94 0 96-43.06 96-96 0 0-32 32-96 32-17.72 0-32-17.5-32-32V96c0-17.64 14.36-32 32-32h128c17.64 0 32 14.36 32 32v32c0 34.3-17.51 66.54-42.09 90.8L288 272l17.81-1.01c77.05-4.36 141.58-65.27 142.18-141.43 0-.52.01-1.04.01-1.56V96c0-52.94-43.06-96-96-96H224c-52.94 0-96 43.06-96 96v32c0 51.14 44.86 96 96 96zm341.28 104.1c-11.83-10.69-30.18-9.96-42.63 0l-92.34 73.87A64.004 64.004 0 0 1 390.33 416H272c-8.84 0-16-7.16-16-16s7.16-16 16-16h78.28c15.94 0 30.72-10.89 33.28-26.63C386.82 337.32 371.43 320 352 320H192c-26.97 0-53.11 9.27-74.06 26.27L71.44 384H16c-8.84 0-16 7.16-16 16v96c0 8.84 7.16 16 16 16h356.77c14.53 0 28.63-4.95 39.98-14.03l151.23-120.99c15.19-12.13 16.38-35.27 1.3-48.88z" ></path></svg>