<svg aria-hidden="true" data-prefix="far" data-icon="user-ninja" role="img" xmlns="http://www.w3.org/2000/svg" viewBox="0 0 448 512" class="svguser-ninja"><path fill="currentColor" d="M32 208c21 0 40.3-6.9 56.1-18.4 19.1 57 72.4 98.4 135.9 98.4 79.5 0 144-64.5 144-144S303.5 0 224 0C169.5 0 122.6 30.7 98.1 75.4 80.9 58.7 57.9 48 32 48c0 33.4 17.1 62.8 43.1 80-26 17.2-43.1 46.6-43.1 80zM224 48c35.4 0 66 19.4 82.6 48H141.4C158 67.4 188.6 48 224 48zm96 96c0 52.9-43.1 96-96 96s-96-43.1-96-96h192zm5.4 145.2L224 368l-101.4-78.8C54 295.3 0 352.2 0 422.4V464c0 26.5 21.5 48 48 48h352c26.5 0 48-21.5 48-48v-41.6c0-70.2-54-127.1-122.6-133.2zM200 464H48v-41.6c0-38.9 25.7-71.8 61.9-82.2l90.1 70V464zm200 0H248v-53.9l90.1-70c36.3 10.5 61.9 43.3 61.9 82.2V464z" ></path></svg>