<svg viewBox="0 0 512 512" fill="none" xmlns="http://www.w3.org/2000/svg">
<path d="M256 472.696C250.037 472.696 244.472 471.106 239.304 468.323L186.435 436.919C178.484 432.547 182.46 430.957 184.845 430.161C195.578 426.584 197.565 425.789 208.696 419.429C209.888 418.634 211.478 419.031 212.671 419.826L253.217 444.075C254.807 444.87 256.795 444.87 257.988 444.075L416.596 352.248C418.186 351.453 418.981 349.863 418.981 347.876V164.621C418.981 162.634 418.186 161.043 416.596 160.248L257.988 68.8199C256.398 68.0248 254.41 68.0248 253.217 68.8199L94.6087 160.248C93.0186 161.043 92.2236 163.031 92.2236 164.621V347.876C92.2236 349.466 93.0186 351.453 94.6087 352.248L137.938 377.292C161.391 389.217 176.099 375.304 176.099 361.391V180.522C176.099 178.137 178.087 175.752 180.87 175.752H201.143C203.528 175.752 205.913 177.739 205.913 180.522V361.391C205.913 392.795 188.82 411.081 159.006 411.081C149.863 411.081 142.708 411.081 122.435 401.143L80.6957 377.292C70.3602 371.329 64 360.199 64 348.273V165.019C64 153.093 70.3602 141.963 80.6957 136L239.304 44.1739C249.242 38.6087 262.758 38.6087 272.696 44.1739L431.304 136C441.64 141.963 448 153.093 448 165.019V348.273C448 360.199 441.64 371.329 431.304 377.292L272.696 469.118C267.528 471.503 261.565 472.696 256 472.696ZM304.894 346.683C235.329 346.683 221.019 314.882 221.019 287.851C221.019 285.466 223.006 283.081 225.789 283.081H246.46C248.845 283.081 250.832 284.671 250.832 287.056C254.012 308.124 263.155 318.46 305.292 318.46C338.683 318.46 352.994 310.907 352.994 293.019C352.994 282.683 349.019 275.13 296.944 269.963C253.615 265.59 226.584 256.05 226.584 221.466C226.584 189.267 253.615 170.186 298.932 170.186C349.814 170.186 374.857 187.677 378.037 225.839C378.037 227.031 377.64 228.224 376.845 229.416C376.05 230.211 374.857 231.006 373.665 231.006H352.994C351.006 231.006 349.019 229.416 348.621 227.429C343.851 205.565 331.528 198.41 298.932 198.41C262.36 198.41 257.988 211.13 257.988 220.671C257.988 232.199 263.155 235.776 312.447 242.137C361.342 248.497 384.398 257.64 384.398 291.826C384 326.807 355.379 346.683 304.894 346.683Z" fill="#62BB4F"/>
</svg>
