<svg aria-hidden="true" data-prefix="fas" data-icon="box-check" role="img" xmlns="http://www.w3.org/2000/svg" viewBox="0 0 640 512" class="svgbox-check  "><path fill="currentColor" d="M240 0H98.6c-20.7 0-39 13.2-45.5 32.8L2.5 184.6c-.8 2.4-.8 4.9-1.2 7.4H240V0zm235.2 81.7l-16.3-48.8C452.4 13.2 434.1 0 413.4 0H272v157.4C315.9 109.9 378.4 80 448 80c9.2 0 18.3.6 27.2 1.7zM208 320c0-34.1 7.3-66.6 20.2-96H0v240c0 26.5 21.5 48 48 48h256.6C246.1 468.2 208 398.6 208 320zm240-192c-106 0-192 86-192 192s86 192 192 192 192-86 192-192-86-192-192-192zm114.1 147.8l-131 130c-4.3 4.3-11.3 4.3-15.6-.1l-75.7-76.3c-4.3-4.3-4.2-11.3.1-15.6l26-25.8c4.3-4.3 11.3-4.2 15.6.1l42.1 42.5 97.2-96.4c4.3-4.3 11.3-4.2 15.6.1l25.8 26c4.2 4.3 4.2 11.3-.1 15.5z" ></path></svg>