<svg aria-hidden="true" data-prefix="fas" data-icon="cloud-rainbow" role="img" xmlns="http://www.w3.org/2000/svg" viewBox="0 0 576 512" class="svgcloud-rainbow  "><path fill="currentColor" d="M430.8 304.9c9.9 5.6 19 12.4 26.9 20.3C487.1 292.8 529 272 576 272v-64c-61 0-116.3 24.6-156.8 64.3 5.7 9.9 9.8 20.9 11.6 32.6zm-31.6 20.7c.2-1.9.8-3.7.8-5.6 0-35.3-28.7-64-64-64-12.6 0-24.2 3.8-34.1 10-17.6-38.9-56.5-66-101.9-66-61.9 0-112 50.1-112 112 0 3 .7 5.8.9 8.7C39.2 324.4 0 365.4 0 416c0 53 43 96 96 96h272c53 0 96-43 96-96 0-42-27.2-77.4-64.8-90.4zm-160.6-152c21 5.9 40.4 16.5 56.6 31C359.6 119.4 461.3 64 576 64V0C437.1 0 314.2 68.7 238.6 173.6zm87.2 51.5c7.4-.8 36.7-5.4 68.4 18.9 46.4-46.8 110.7-76 181.8-76v-64c-101.3 0-191.6 47.4-250.2 121.1z" ></path></svg>