<svg xmlns="http://www.w3.org/2000/svg" viewBox="0 0 544.3 544.3">
  <path fill="#EC168E" d="M292.2 536.6c-30-1-59-7-86.9-18C129.6 489 74.1 438 42.1 362.5c-.7-1.8-1.2-3.6-1.8-5.5-1-2-.5-4.4-1.9-6.4a6.4 6.4 0 0 1 0-4.9c3.2-2 4.9.8 6.8 2.2 18.8 13.7 37.1 28 55.7 42l140.8 106.4c14.5 11 29 21.8 43.4 32.9 2.8 2 6 3.8 7.1 7.4zM32.7 341a154.2 154.2 0 0 1-24.1-30.6c-6.8-11.8-8-23.2 1.6-34.6 10-12 9.4-25.6 5-39.6-2.8-9.2-6-18.4-8.2-27.8-2.8-12.3 0-23 8.2-32.4 6-6.8 12.1-13.4 19.5-18.6 11.8-8.5 15.7-20.1 16-33.9.2-8.4-.2-16.9 1-25.3 2-14.6 10-24 23.4-29.3 7.6-2.9 15.6-4.7 23.7-5 18-.6 31.3-9.3 42.7-22.3 4.3-4.9 8.8-9.6 12.8-14.7 13-16.6 30.6-21.3 50.5-19.2a74.5 74.5 0 0 1 46.3 23c-2.4 2.4-5.8.8-8.6 2-3.4 1-7 0-10.5 1.1-3 .6-6.3.4-9.3 1.3-3.5 1-7.2 1.1-10.7 2-4.2 1.2-8.6 1.7-12.8 3-4.7.9-9.1 2.7-13.6 4.2-4.6 1.6-9.3 3.2-13.7 5.2-5.5 2-10.7 4.7-15.9 7.4-5.8 2.8-11.3 6-16.7 9.5-4.7 3-9.5 6-14 9.4-3.7 2.5-7.1 5.5-10.6 8.4-4 3-7.5 6.5-11.4 9.6-4 3.8-7.8 7.7-11.6 11.6-3 2.5-4.7 6-7.5 8.6-4.5 5-8.4 10.4-12.5 15.8-3.2 4.6-6.2 9.3-9.3 14-3 5-6.2 10-8.7 15.5-2.6 5-5.3 10.2-7.5 15.5a282.2 282.2 0 0 0-20.7 76.8c-3.5 26.8-1.3 53 6.3 79 1 3.3 3.4 6.7.9 10.5z"/>
  <path fill="#EB0B8D" d="M336.7 534.6c-10.9 2-21.8 2.6-32.8 2-12.2-8-23.7-17.2-35.3-26l-81-61.3c-47.7-36.1-95.5-72-143-108.3-2.7-2-5.8-3.4-8-6.1-2.1-8.7-1-17.5-.7-26.3 2-3.8 4.2-1.3 6 0 13.8 10.7 27.9 21 41.8 31.5 27.3 20.9 54.8 41.5 82.2 62.3 55.6 42.2 111.3 84.2 167 126.3 1.9 1.4 5.1 2.3 3.8 6z"/>
  <path fill="#512C86" d="M37.2 307.1c-.2 9.5-1 19 1 28.5 2 3 1.6 6.3 1 9.6v5.2c.5 1 1 2.1-1 2.1-2.2-3.6-2.7-8.1-5.5-11.4-.5-7.3-3.7-14-5.3-21-8.2-35.6-5.4-70.8 3.7-105.9 3.6-14 8-27.6 14.3-40.6 4 .5 3.4 3.8 3.7 6.4 1.5 16 3.5 31.9 7.6 47.4.2 2-.6 3.8-1.4 5.6l-2.6 5.5a104 104 0 0 0-6.9 19.3c-.9 3-2 6-2.5 9.2-.8 3.5-1.5 7-2 10.6-.6 4.3-1.3 8.5-1.7 12.8 0 4.1-1.6 8.2-1 12.4-.1 1.5-.2 3.1-1.4 4.3z"/>
  <path fill="#E60A8D" d="M37.2 307.1l.1-4.4c.5-.7 0-2 1.4-2.4 3 .2 5 2.3 7.3 4 41 30.8 82 61.7 122.9 92.9 2.1 1.6 4.6 2.6 6.7 4 5 5.7 9.4 11.8 14.7 17 14 13.4 29.7 24.3 47.7 31.7 4-.4 6 3 8.7 4.9 1.8 1.1 3.3 2.6 5 3.9 11.4 9 23.6 17 36.6 23.4 2.2 1.1 4.4 2.3 5.8 4.4 2 3.4 5.2 5.2 8.1 7.4 14.5 11.2 29.4 21.8 43.7 33.2 1.6 1.3 5 2 3.5 5.5-4 1.7-8.4 1.9-12.7 2-1.7-4.6-6.4-6.2-9.9-8.9-32.5-24.7-65.2-49.2-97.8-73.8l-54.5-41.2-102.7-77.9-34.6-25.7z"/>
  <path fill="#EB0F8E" d="M39.1 345.2c-1.6-3-.9-6.4-1-9.6 7.6 3.2 13.2 9.2 19.6 14 25.5 19 50.8 38 76.1 57.2l110.8 84 54.6 41.1c1.7 1.4 4 2.2 4.7 4.7h-11.7l-100.5-76.5-70.5-53.3-76.9-58c-1.6-1.3-3.4-2.4-5.2-3.6z"/>
  <path fill="#D5128C" d="M389.8 71.8c17 10.2 32.5 22.3 46.4 36.4a80.8 80.8 0 0 1-25.6 106.4c-3.8 2.6-7 6.8-12.6 4.6-3.2 0-6.4.3-9.5-1-.2-3.2 2.5-3.4 4.4-4.3 24.5-11.4 40-29.8 43.6-57 4.9-37.3-18.8-70.3-53.7-76.5a68.4 68.4 0 0 0-80.9 66.5c0 18.7 4.5 35.2 17 49.2 1.4 1.6 3.3 3.4 2 6-4.1-.9-8-2-11.8-4a69.5 69.5 0 0 1-16-37.3 80.4 80.4 0 0 1 71-91.1c8.7-1 17.1 1 25.7 2z"/>
  <path fill="#EB0B8D" d="M293.3 487c-9.1-6.7-20-10.5-29-17.5l-13.4-10c-3.8-7.6-9-14.3-13.7-21.2-11.5-16.8-22.8-33.6-34.4-50.2-.6-.8-.9-2-1.7-2.7-1-2 .1-4.2-.8-6.3-.4-3.7 1.7-1.1 2-.6 5 7.6 12.4 12.8 18.7 19a362.4 362.4 0 0 0 45 35.5c-.3 1.8 1 2.9 1.9 4.2 10.2 15 20.4 30.2 30.8 45.2 1.4 2 4.9 4.5 1 7.5-2.8.3-4.6-1.2-6.4-2.8z"/>
  <path fill="#C9148C" d="M286.9 189.7a70.9 70.9 0 0 1-13.7-5.6c-3.5-7.1-4.8-14.7-5.6-22.4a107 107 0 0 1 28.7-85.4A101 101 0 0 1 340 48.7c1.6-.6 3.4-1 5 0 5 1.5 9.6 3.6 14 6 .2 4-3.2 3.8-5.5 4.4a90.7 90.7 0 0 0-29.8 12 94.5 94.5 0 0 0-43 70 95.9 95.9 0 0 0 5.3 41c.7 2.5 2.6 4.9.8 7.6z"/>
  <path fill="#BE198C" d="M262.4 179.4l-7.2-2.8c-1.8-.5-3.6-.7-4.2-2.9-3.6-15.8-3.1-31.6-.1-47.4.4-2.3.8-4.5.5-6.8-.3-2.8 1.2-5 2.3-7.3 3-5.9 6.2-11.7 7.6-18.2A127.6 127.6 0 0 1 310 41.3c2-1.2 3.9-3.2 6.6-2.1 4.8.8 9.5 2 14 4.1-.6 2.4-2.4 3.5-4.3 4.4a113.4 113.4 0 0 0-62.6 124.5c.5 2.3 1.7 5.2-1.3 7.2z"/>
  <path fill="#CC128C" d="M44.6 257.3a61.4 61.4 0 0 1 5.2-14.8c2-.7 3.4.7 4.8 1.7 30.5 23.3 61.2 46.3 91.8 69.5l.7.8.1 7.2c1 2 0 4.4.7 6.5l.3 4.3c-3.7.7-5.8-2-8.2-3.9-29-21.8-58-43.8-87-65.8-2.7-2-5.4-4-8.4-5.5z"/>
  <path fill="#DB108C" d="M369.3 215c-10.5-1.1-20.6-4-30.6-7.1a62.3 62.3 0 0 1-30.9-37.7 65.3 65.3 0 0 1 10.8-62 61.2 61.2 0 0 1 59.2-25.4c27.9 3.6 45.8 20.2 53.9 47.1a67 67 0 0 1-62 85.3l-.4-.2z"/>
  <path fill="#DF0E8C" d="M38.3 290c.4-4.2.4-8.5 2-12.6 3-1.7 4.9.9 6.8 2.3a16096 16096 0 0 1 81.8 61.8c8.6 6.5 17.4 12.7 25.7 19.6l8.6 20c-3.3 1.7-5.3-1-7.4-2.6L114 347c-22.9-17.4-46-34.6-68.8-52-2.2-1.8-4.6-3.3-6.9-5z"/>
  <path fill="#D8118C" d="M320.8 202.2c-1-4.4-4.8-6.8-7.2-10.2a70.5 70.5 0 0 1-13-41 69 69 0 0 1 15-46.1A66.8 66.8 0 0 1 367 78.2a65.8 65.8 0 0 1 53.6 22.3 67 67 0 0 1 17.6 43c.8 14.3-1.8 28-9.3 40.4a74 74 0 0 1-36.2 31.6c-1.6.6-3.6.7-4.3 2.7-4.7 0-9.3-.7-13.8-2.2 2.4-2 5.5-2.3 8.3-3a67 67 0 0 0 37.4-105 61.7 61.7 0 0 0-87.8-12.8 67.3 67.3 0 0 0-7 103c2.2 2 6.5 2.8 5.8 7.2a36 36 0 0 1-10.6-3.2z"/>
  <path fill="#CC138C" d="M286.9 189.7c-2.1-7.4-4.6-14.8-6.3-22.3a85.4 85.4 0 0 1 6.1-54.4 91.4 91.4 0 0 1 64.6-54.8c2.7-.7 6.2 0 7.8-3.4l14.6 7.8c-.5 2.8-2.9 2.1-4.6 2.4-8.4 1.3-16.7 2.2-24.8 5a85.5 85.5 0 0 0-56 78c-.2 13.8 3 26.5 8.4 39 1 2.1 2.8 4.3.8 6.8-3.7-.9-7.3-2.1-10.6-4.1z"/>
  <path fill="#C3168C" d="M262.4 179.4c1.5-4.8-.5-9.4-1.1-14-2.7-20.9.2-41 8-60.4a101.4 101.4 0 0 1 18.2-29.4A111.2 111.2 0 0 1 324.3 47c2.3-1 4-2.6 6.2-3.8 5.1 1.1 10 3 14.7 5.4-14 3.7-26.4 10.4-37.7 19.2a108.8 108.8 0 0 0-38.6 72.8 96.1 96.1 0 0 0 4 39.2c.4 1.3.2 2.8.3 4.2l-10.8-4.7z"/>
  <path fill="#D2128C" d="M44.6 257.3c2-1.1 3.3 0 4.7 1.2l63.8 48 28.4 21.8c2.1 1.6 4.5 2.8 6.7 4.2l3 15.8c-2.8-.1-4.7-2.1-6.8-3.6-33.2-24.9-66.1-50-99.3-75-1.1-.8-2.3-1.6-3-3 .3-3.3 1.5-6.3 2.5-9.4z"/>
  <path fill="#D9108C" d="M42.1 266.8c7.5 3.5 13.5 9.2 20 14.1 28 21 55.8 42.2 83.7 63.4 1.8 1.3 4.1 2 5.4 4l3.4 12.8c-7-2.3-11.7-7.6-17.3-11.7-21.5-15.9-42.7-32-64-48l-28-21.5a10 10 0 0 0-5-2.5c-.2-3.7.8-7.2 1.8-10.6z"/>
  <path fill="#BD1A8C" d="M149.4 284c0 3.1-.4 6.2-1.3 9.3-2.4.8-4-.8-5.6-2L58.8 228l-1-1.3c-.7-3.8 2.6-5.9 4-8.8.8-1 1.7-2 3-2.3 4.3 1.2 7.2 4.4 10.5 6.9l70.4 53.2c2.8 2.1 5.3 4.2 3.7 8.3z"/>
  <path fill="#512C87" d="M493.4 209.5c.3-16.6-.1-33-5.2-49.1-1.4-4.4-2.6-8.9-5.6-13.7 19.9 15.1 35.6 54.1 30.7 93.7-1.9 3-3.7 1.4-5-.4-5.1-7-9.9-14.4-14.6-21.8-1.6-2.6-1-5.7-.3-8.7z"/>
  <path fill="#AA218D" d="M467.8 474.3c-3.5 3.6-7.1 7-11.3 9.6-3.4.5-6.8.2-10 2-2.6 1.5-4.3-.7-5.7-2.6-3.8-5-7.3-10.4-10.8-15.6l-33.7-49.4c-1.2-1.8-3-3.5-2.4-6.1l11.5-4.8c2.4 1 3.2 3.2 4.5 5 13.7 20.2 27.4 40.3 41.2 60.3 3.9 5.5 4 5.5 9.9 1.6 2.2-1.3 4.5-3 6.8 0z"/>
  <path fill="#DF0E8C" d="M299.7 451.2l13.7 5.3c2 1 3.2 2.8 4.3 4.6 7.5 11.7 15.8 22.9 23.4 34.5 1.6 2.4 3.5 4.8 4 7.9.4 2.3 2.3 3.5 4 4.7 6.2 4.6 12.2 9.4 18.3 14.1 1.8 1.4 4.6 2.6 3.2 5.8l-12.7 3.2c-13.3-9.4-25.9-19.7-39-29.4-1.6-1.2-3.4-2.6-2.7-5.1a2 2 0 0 1 1.3-.7c3.8.5 7.3 2.2 11.9 2.7-2.3-4.8-5-8.5-7.7-12.1-6.7-9.3-12.6-19.2-19.4-28.4-1.5-2-3.4-4.1-2.6-7.1z"/>
  <path fill="#A9218D" d="M160 247.9l-3.5 8.3c-2.6.7-4.4-1-6.2-2.4-23.3-17.7-46.7-35.2-70-53-1-.7-1.9-1.5-2.3-2.8.8-3.8 3.6-6 6.6-8.2 2.4-.3 4.1.9 5.8 2.2l65.8 49.9c1.9 1.4 5.1 2.4 3.7 6z"/>
  <path fill="#E30C8C" d="M38.3 290c2.6-1.2 4 1 5.4 2.2L147 370c5.2 4 10 8.8 16.3 11.1l7.5 12.7c-3.3 1.8-5.4-.7-7.4-2.2-12-8.8-23.8-17.7-35.5-26.6-28-21.3-56.1-42.5-84.2-63.6-1.7-1.3-3.3-3-5.5-.7l-.8 2c-.7-4.3.8-8.4 1-12.6z"/>
  <path fill="#762A8A" d="M456.2 313.4l7.2-11.8c2-.8 3 .8 3.8 2 13.8 20 27.3 40.2 41.2 60.2.3.4.5 1 .7 1.5a50.7 50.7 0 0 1-8.2 10.6c-2.3.7-3-1.2-4-2.6-4.8-7.5-10.4-14.5-15-22.2-8.6-12.6-17.5-25-25.7-37.7z"/>
  <path fill="#8B288C" d="M199.2 202.3l-9.4 7.5c-2.5 1.2-4.4-.3-6.2-1.7C165 194 146.3 180.2 128 166c-1.7-1.3-3.4-2.6-3.6-5 .1-.8.6-1.4 1.3-1.9 3-1.5 6.2-3 9.6-3.4a7 7 0 0 1 5 1.5 4348 4348 0 0 0 58 44c.4.3.7.7 1 1.2z"/>
  <path fill="#B91B8C" d="M149.4 284c.1-2.7-.7-4.4-3-6.2-20.2-14.9-40.1-30-60-45.1L64.6 216c-.4-3.1 1.1-5.3 3.4-7.2.7-.4 1.4-.6 2.2-.7 3.2.8 5.1 3.6 7.6 5.5 24 17.6 47.4 35.9 71.2 53.6 1.2.9 2.3 1.7 3.2 2.8l-3 14z"/>
  <path fill="#B01F8D" d="M394 412.2l38.5 56.8c3.3 4.8 6.7 9.4 9.9 14.2 1.5 2.4 3.5 2.7 5.1 1.2 3.1-3 6-1.9 9-.5a33.3 33.3 0 0 1-8.5 6.6c-3.6-2.9-7.2-1.3-10.7.3l-1.5-.3c-5.2-4.6-8.2-10.9-12-16.5-12.1-17.5-24-35-36-52.6-1.2-1.8-3-3.5-2.3-6.1l8.4-3.1z"/>
  <path fill="#A5228D" d="M160 247.9c0-3.2-3-3.8-4.8-5.2-22-16.9-44-33.6-66.1-50.3a7.9 7.9 0 0 0-4.3-1.8c-.7-1 0-2 .5-2.8 1.8-1.8 3.3-4 6-4.4 2.1 0 3.7 1.2 5.2 2.3 22.2 16.4 44 33.4 66.2 50 1 .6 2 1.4 2.5 2.6l-5.3 9.6z"/>
  <path fill="#C1178C" d="M58 226.5C68.6 233 78 241 87.8 248.2c18.1 13.6 36 27.5 54.2 41.2 2 1.5 4.1 2.6 6.2 3.9.1 3.3.1 6.5-.8 9.7-4.2-1.6-7.3-4.8-10.8-7.4-26.8-20.3-53.5-40.8-80.5-60.8-.7-.5-1.4-1-1.8-1.8l1.9-4.4c.6-.7.3-2.4 2-2z"/>
  <path fill="#E60A8D" d="M317.6 496.6h-1c-6.4-.7-12.5-2.2-17-7.4 2-2 0-3.3-.9-4.5a9178.1 9178.1 0 0 0-32.4-47.3c-1-1.5-2.6-2.7-.4-4.4l21 12c11 15.5 21.4 31.4 32.2 47 1.2 1.7 3.3 4.5-1.5 4.6z"/>
  <path fill="#D0138C" d="M398 219.2c4.3 1 6.6-2.3 9.7-4.2 11-6.9 19.6-16 26.2-27A78.3 78.3 0 0 0 444 136c-1-8.2-3.8-15.7-7-23.1-.6-1.5-.8-3-.8-4.6 4.5 3.5 8.4 7.6 11.8 12.3 5.7 15.1 6 30.7 2.3 46.3A84.5 84.5 0 0 1 414 220c-5.4.1-10.7.6-16-.9z"/>
  <path fill="#A6228D" d="M461.6 475.4c-1.1.8-2.4 1.4-3.5 2.3-2.4 2.3-4 1.7-5.8-.9l-45.1-66.1c-.7-1-1.2-2.2-1.8-3.3l8.5-4.2c10 13 18.6 26.8 27.9 40.2 6.1 9 12.4 17.9 18.3 27 1 1.5 3 2.7 1.5 5z"/>
  <path fill="#91278C" d="M125 161c6 7 14.2 11.8 21.5 17.5 12.4 9.7 25.2 19 37.7 28.5 1.7 1.3 3.5 2.5 5.6 2.8l-7.7 7.3c-2.5.6-3.9-1.4-5.4-2.6-18.6-14.4-37.7-28.2-56.2-42.6-2-1.6-4.3-3-5.4-5.6-.2-1.2.4-2 1.2-2.8 2.8-1.2 5-4 8.6-2.6z"/>
  <path fill="#AF1F8D" d="M78.4 198c23.5 17.8 47 35.5 70.7 53.2 2.4 1.8 5 3.3 7.4 5l-2.7 7.6c-2.2 1-3.7-.5-5.2-1.6-25.2-19.2-50.8-37.8-75.6-57.4-.8-2.5 1.3-3.6 2.4-5.2.9-.7 1.4-2.2 3-1.6z"/>
  <path fill="#D9108C" d="M370.6 528.1c-2.6-6.1-9.3-7.7-13.4-12.1a22.5 22.5 0 0 0-5.9-4.3c-5.2-2.8-6.8-8.1-9.7-12.7-8.3-13.2-17.3-26-26-38.9-.8-1.1-1.4-2.3-2.2-3.6l14.8 4.3c9 14.4 18.8 28.1 28.3 42 3.1 4.5 8 7 12 10.2 3 2.4 6.3 4.6 9.3 7 1.6 1.3 3.7 2.3 3.3 5l-10.5 3.1z"/>
  <path fill="#AA218D" d="M272.2 31.7l6.3.3c2.5.4 2.9 1.7 1.6 3.7-.7 1.2-1.9 2-3 3a155.5 155.5 0 0 0-34 44.5c-1.1 2-2 4.3-4.7 4.7-.8 0-1.5 0-2.3-.3-2.2-.7-4.4-1.4-6.7-1.8-1-.3-2-.8-2-2A198.5 198.5 0 0 1 258 37c4-4.5 8-7.3 14.1-5.4z"/>
  <path fill="#BA1B8C" d="M316.6 39.2a123.9 123.9 0 0 0-54 55c-2.8 1.6-5-.5-7.6-.8-1-.4-2-.8-2.3-2A90.3 90.3 0 0 1 271.5 61c7.6-8.9 16-17 25.9-23.4 1.7-1 3.2-2.9 5.6-1.8 4.8.3 9.2 1.7 13.6 3.3z"/>
  <path fill="#83298B" d="M212.2 194a22 22 0 0 1-6.7 4c-2.6 1.3-4.4-.3-6.2-1.7-17-12.5-33.3-25.7-50.4-38-2.1-1.6-4.2-3.3-5-6a176 176 0 0 1 3-38.3 7 7 0 0 1 2.9-5c4.6.7 3.2 5 4.5 7.6-2.6 9.6-2 19.5-3.3 29.3-.6 5.2 2.9 4.6 6.1 4.3.8 0 1.6.2 2.3.6 1.7 4.3 5.4 6.7 9 9.3a2238 2238 0 0 1 42 31.9c.7.5 1.4 1 1.8 2z"/>
  <path fill="#722B89" d="M509 365.3c-3.4-2.4-5.3-6-7.5-9.3l-35-51c-.8-1.3-1.4-2.9-3.1-3.4l5.7-10.3c6.2 7.2 11.4 15.2 16.6 23.2l.3 1a37 37 0 0 1 6.8 8.6c7 11 15.4 21.2 21.7 32.7-1 3.3-3.8 5.5-5.4 8.5z"/>
  <path fill="#C5168C" d="M54.2 233c6.8 2.4 11.7 7.6 17.2 11.7a2908 2908 0 0 1 59.3 44.8c5.6 4.3 12 7.9 16.6 13.5l-.2 5.1c-3.1 2.1-5-.6-6.9-2-19.6-14.5-38.7-29.5-58.3-44-8.8-6.5-17.3-13.4-26-19.9-1.6-1-3.5-2-4-4 .2-2 1.2-3.6 2.3-5.2z"/>
  <path fill="#D1138C" d="M389.8 71.8c-3.3 3.2-7 .5-10 0-13.9-2.6-27 .3-39.4 5.9a77 77 0 0 0-45.8 60.2 76.7 76.7 0 0 0 11.4 54.3c1.1 1.9 3 3.4 3.1 6-2 .1-3.7-.8-5.3-1.8-8.4-9.5-12-21-14-33.1a82.1 82.1 0 0 1 22-71.7 76.8 76.8 0 0 1 54.3-25.2c5.7-.3 11.6-1 17.2 1.4 2.4.8 4.6 2.2 6.5 4z"/>
  <path fill="#99258C" d="M178 221.3l-5.4 6.4c-2.2.8-3.6-.7-5.1-1.9-20-15.2-40-30.1-60-45.4-2-1.5-4.6-2.6-5.4-5.5.4-3.1 3.1-4 5.2-5.3 1-.5 2-.8 3-.5 21.2 16.9 43.3 32.6 64.7 49.3 1.1.8 2.4 1.6 3 3z"/>
  <path fill="#CC138C" d="M408.8 513.6c-3.4 2.8-7.5 4.1-11.7 5.4-7.3-4.6-14.5-9.7-21.7-14.6-6.1-4.3-8.9-12-13.5-18-3.6-4.7-6.7-9.9-10-14.9-1.2-1.8-3.2-3.8-1.8-6.1 1.3-2.2 3.9-.7 5.9-1 .7-.2 1.4 0 2 .4h4.1c5.1 6.1 9.4 12.8 13.8 19.4 3 4.5 6 9 9.2 13.4 2.2 3 4.8 4.7 8.6 5.5a25.6 25.6 0 0 1 15.1 10.5z"/>
  <path fill="#D1138C" d="M358 464.8h-1.6c-1.9.3-4.2-1-5.4 1-1.3 2 1 3.5 2 5l19.7 29c2.2 3.2 5.1 5.1 8.4 6.9 6 3.2 11.7 7 16 12.3-3 1.9-6.3 2.8-9.6 3.8-10.2-7.1-21-13.4-27.8-24.4-6.1-9.7-13-18.8-19.2-28.4-1.4-2-3.7-4.1-1.7-7l19.1 1.8z"/>
  <path fill="#A2238D" d="M461.6 475.4L443.2 448l-28-41.3c-.7-1-.9-2.3-1.3-3.5l6.3-3.2c2.7 1.1 3.6 3.8 5 6 4.5 6.5 8.8 13.1 13.8 19.3 8 13.7 17.8 26.3 26.4 39.6 1.5 2.2 3.2 3.8 6.2 1.9 1.2-.8 2.6-1.1 3.8.1-2 3-4.7 5.3-7.6 7.4-2.3-1-4.3-.6-6.2 1.1z"/>
  <path fill="#EB108E" d="M201.1 385.4c2.5 1.5 4.2 3.6 5.8 6l26.2 38.8 17 24.8c.8 1.3 2.7 2.6.8 4.5l-13-9.6c-2.8-5.2-7.6-8.6-11.3-13a105.3 105.3 0 0 1-24.7-45.2c-.5-2-.5-4.2-.8-6.3z"/>
  <path fill="#D1138D" d="M383.3 67.8c-17.9-1-35.3.5-51 9.7a80.4 80.4 0 0 0-35 38.8 83 83 0 0 0 4.7 76.2c.7 1.2 1.2 2.6 1.8 3.9-2.2-.8-4.5-1.1-6.3-2.6-.7-5.9-4.2-10.7-6-16.2a84.7 84.7 0 0 1 14.2-81.5 82.7 82.7 0 0 1 52.6-31.3c5-1 10.4-.6 15.4-2.2 3.7.8 6.6 3 9.6 5.2z"/>
  <path fill="#A1238D" d="M165.2 238.3c-7.4-3.7-13.4-9.4-20-14.3-16.4-12.2-32.7-24.8-49-37-1.5-1.2-3-2.7-5.1-2.8-.3-.2-.4-.5-.4-.8l.1-.5c1.5-2 3.4-3.1 5.7-3.8 2.3-.4 4.1.7 5.8 2 22.2 17 44.8 33.6 67 50.8-.8 2.5-2.5 4.4-4 6.4z"/>
  <path fill="#B41D8C" d="M73.1 204.4c7.1 3.5 12.9 9 19.2 13.6 14.3 10.4 28.3 21.3 42.4 32 6.2 4.8 12 10.1 19.1 13.8l-1.5 6.2c-6.9-2.6-11.9-7.9-17.6-12.1-19.7-14.6-39.2-29.4-58.7-44.2-2.1-1.6-4-3.4-6-5.1-.5-2.6 1-3.6 3.1-4.2z"/>
  <path fill="#BE198D" d="M434.2 500a53.8 53.8 0 0 1-11.7 7c-4-3.4-7.7-7.3-13.8-6.2-2.5.4-3.9-2-5.3-4-5.7-7.6-10.7-15.6-16-23.5-2.7-4-5.4-8-11.1-7.5-.7 0-1.3-.5-1.7-1l21.4-2c5.2 5.1 8.7 11.4 12.8 17.2 2.3 3.3 4.6 6.6 6.6 10.1 2.3 3.8 4.7 5.5 9.4 3.8 4.5-1.6 8.2 1.2 9.4 6z"/>
  <path fill="#CD138C" d="M414 220c.7-3.5 4.2-4.6 6.4-6.5 23-19.5 31.9-44.6 30.6-74-.3-6.4-3.2-12.5-3-19 3.6 3.5 7.1 7.2 9.3 11.9 2.7 26.3-1.8 50.8-18.4 72.2-2.6 3.4-5.7 6.3-8.6 9.3-1.5 1.5-3.1 3-2.2 5.4-4.6 1.5-9.4.9-14.1.8z"/>
  <path fill="#612C89" d="M501.9 300.7l10.5-14c4.4 4.3 7.4 9.7 10.9 14.7 3.3 4.8 6.3 9.7 10 14.1a83 83 0 0 1-6.8 18.2c-2.4.8-3.6-1-4.6-2.5-6.9-9.5-13.4-19.2-19.9-29-.3-.4-.3-1-.1-1.5z"/>
  <path fill="#7C2A8A" d="M456.2 313.4c1.1.8 2.5 1.5 3.2 2.7 7.9 11.4 15.6 22.9 23.4 34.4-.3 3.3-1.7 5.6-5.6 5l-4.7 2.5c-2.2.7-3.2-1-4.3-2.3-6.8-8.8-12.3-18.5-18.9-27.4-1-1.3-1.5-2.9-.4-4.5l7.3-10.4z"/>
  <path fill="#CA138C" d="M428.1 219.3c-5-.2-3.1-2.3-1-4.2a85.5 85.5 0 0 0 19.3-24.7 86.1 86.1 0 0 0 10-40.4c0-5.8-1.1-11.8.9-17.6 2.8 3.7 6.2 7 7.9 11.4-1.7 9.5-.9 19.3-3.6 28.7a107.4 107.4 0 0 1-22.3 41.8c-1.7 2-3.4 4-6.2 4.7l-5 .3z"/>
  <path fill="#7B2A8A" d="M229 185.4l-10.9 5.2c-15-11.2-30-22.6-45-34-1.7-1.4-4.7-2.6-2.3-5.8 1.3-.7 2.7-.8 4.1-.9 2.3 0 4.6 0 7 .2 2.8.7 6 .5 8.7 2.2.7 2.8 3 4.2 5 5.8l29 21.8c2 1.4 4.2 2.7 4.4 5.5z"/>
  <path fill="#D9108C" d="M331.4 205.4c-3.6-5.6-9.2-9.4-13.3-14.7a64 64 0 0 1-14-40.6 67.4 67.4 0 0 1 55-67.3 64.3 64.3 0 0 1 73 47.7 68 68 0 0 1-49.3 83.5c-2.7.6-5.1 2.5-8 2-2 0-3.8.2-5.5-1 9.3-2.3 19-3.2 27.7-8 20-11 32-27.4 35-50.2a62 62 0 0 0-30.4-64.6 57.5 57.5 0 0 0-55.1-3.8 63 63 0 0 0-40 52.7c-3 23 4.3 43.3 22.7 58.7 3.2 2.7 7.4 4.2 9.5 8-2.4-.7-5-.9-7.3-2.4z"/>
  <path fill="#C8148C" d="M433.1 219c18.2-19 29.6-41 29.6-68 0-2.6.3-5.2 2.5-7.2 3 3.4 4 7.8 6 11.8 1.4 4-.4 7.6-1 11.3-2.6 16.2-9 30.8-18.7 44-1.4 1.9-2.6 3.8-4.7 5-4.4 1.8-9 2.6-13.7 3z"/>
  <path fill="#D5128C" d="M338.8 463c-.2 3.3 2.1 5.5 3.7 8 5.8 8.7 12.1 17.2 17.7 26.1 5.4 8.8 13.6 14.5 21.6 20.4a27 27 0 0 1 5.7 5.3L381 525c-5.7-6.4-13-10.7-19.7-15.6-4.7-3.4-7.4-8-10.5-12.3-7.2-10-13.8-20.3-20.7-30.5-1.3-1.8-2.3-3.5-2-5.8l10.6 2.2z"/>
  <path fill="#C8148C" d="M51.8 238.2c11 6.7 20.5 15.2 30.7 22.8 20.4 15.2 40.5 30.5 60.7 45.9 1.3.9 2.5 1.3 4 1.2v6.4c-7-2.3-11.8-7.6-17.3-11.7-21.4-15.8-42.5-32-63.8-48l-16.3-12.3c.1-1.7.8-3.1 2-4.3z"/>
  <path fill="#692C89" d="M501.9 300.7c7.3 8.7 12.8 18.7 19.6 27.8 1.5 2 2.7 4 5 5.2-1.6 5.2-4.2 9.9-7 14.6-2.2.2-2.9-1.7-3.9-3-7.5-10-13.8-20.9-21.4-30.8-.9-1.3-2.1-2.6-.8-4.3l8.5-9.5z"/>
  <path fill="#E60A8D" d="M38.1 300.7c.1-2.5-.7-5.6 3.7-2.3 35.8 27.2 71.7 54.2 107.6 81.3l16 11.9c1.6 1.1 3.2 2.2 5.3 2.2 2 2.3 4 4.6 5 7.5-3.2.6-5.4-1.4-7.6-3l-85-64.5-37.5-28.2c-2.4-1.8-5-3.3-7.5-4.9z"/>
  <path fill="#95268C" d="M178 221.3c-7.3-3.5-13.2-9.1-19.6-13.9-14.2-10.3-28-21-42-31.7a25.3 25.3 0 0 1-6.3-6.3c.6-3 2.3-4.2 5.3-3.2l66.7 50.9-4.1 4.2z"/>
  <path fill="#9D248D" d="M169.3 231.9c-6.7-2-11.4-7.2-16.8-11.2-16.8-12.6-33.4-25.4-50.1-38-1.7-1.4-3.5-3.1-6.1-2.7-.5-2.5 1.5-3.4 3-4.8 1-.5 2.1-1.2 3.4-.5l31.5 24.5 35.2 26.7c1 .7 2.2 1.2 3.2 1.8-.5 1.9-2.3 2.7-3.3 4.2z"/>
  <path fill="#B01E8D" d="M238.2 86.8c5-2.8 5.8-8.5 8.4-12.9 8.4-14 18.8-26.2 30.8-37.2 1.5-1.4 4-2.3 1.1-4.7 4.3.3 8.6.4 12.7 1.8 1.5 3-1.2 4-2.8 5.4a148.8 148.8 0 0 0-35 40.4c-2 3.5-2.8 7.7-6.5 10.1-.7.3-1.5.3-2.3.2-1.8-.3-3.6-.6-5.4-1.2-.7-.4-1.3-1-1-1.9z"/>
  <path fill="#572D89" d="M493.4 209.5c-.6 4.4.9 8 3.6 11.6 4.2 5.6 8 11.6 11.9 17.5 1.1 1.7 2 3.5 4.4 1.8a105 105 0 0 1-4.2 23.2c-2.2.4-3.3-1.1-4.3-2.5-5.2-7.7-10.9-15.1-15.9-23l4.5-28.6z"/>
  <path fill="#7F2A8B" d="M170.5 151.4c1.8 4.9 6.7 6.4 10.2 9.2 11.7 9.3 23.7 18 35.7 27 1 .8 1.7 1.7 1.7 3a17 17 0 0 1-6 3.3c-8-3.8-14-10.2-21.1-15.2-9.6-6.8-18.9-14-28.2-21.1-2-1.5-5-2.7-3-6.2a9 9 0 0 1 10.7 0z"/>
  <path fill="#87288B" d="M145 153.5l55.7 42.4c1.4 1.1 3 2 4.8 2.1a21.6 21.6 0 0 1-6.3 4.3c-8.5-3.9-15.2-10.5-22.7-16-12.6-9-24.8-18.8-37-28.4a5.6 5.6 0 0 0-4-1.2c-.2-2 1.4-2 2.6-2.5 2.3-.4 4.5-1.7 7-.7z"/>
  <path fill="#BA1B8D" d="M397.8 458.6c-2.4 0-4.9.2-7.2-1-7.6-9.7-13.8-20.4-21.1-30.4-1.5-2-3.2-3.8-4.4-5.9 3.8-1.5 7.7-2.5 11.7-3.1 3.3-1.1 4.4 1.5 5.7 3.4 7 10.1 14.1 20.2 20.8 30.6 1.2 1.9 3.5 4 2 6-1.1 1.8-3.9.6-6 .8-.5 0-1-.2-1.5-.4z"/>
  <path fill="#A6228E" d="M272.2 31.7c-6.1-1.3-9.8 2.3-13.3 6.5-9.3 11.2-18 22.8-25.2 35.5-2 3.3-1.6 8.2-6 10-2.7 1.4-4.7 0-6.5-1.7-.5-4.5 2-8 4-11.6a172.3 172.3 0 0 1 22.2-32.5c1-1.2 2-2.4 2.6-4-1.8-1.6-3.8-.4-5.6-1a3 3 0 0 1-2-1.2c2.7-2 5.8-.5 8.7-1 7 .8 14.2-.7 21.1 1z"/>
  <path fill="#BA1B8C" d="M434.2 500c-2.9-4.4-6.2-7.2-11.7-4-2.1 1.2-4.3.7-5.5-1.4-6.7-10.8-14.8-20.6-21-31.8 2.8-.6 5.5-1.4 8.4-1.2 3.4-1.5 5.2.8 6.8 3.1 5 7.2 10 14.3 14.8 21.6 1.5 2.3 3 4.9 6.6 4 1.2-.3 2.4-.6 3.6 0h1c3-.3 5.1.6 5.4 4-3.2 1.3-5 4.6-8.4 5.7z"/>
  <path fill="#8C288C" d="M500.7 438.3a60.5 60.5 0 0 1-8.5 10.6c-1.9 1.4-3-.1-4-1.3-6.8-8.9-12.6-18.5-19-27.8-.5-.7-.6-1.7-.1-2.5l13.7-6.3c5.9 9.2 13.3 17.3 18 27.3z"/>
  <path fill="#C4168D" d="M374.6 464.7c6.7-1.3 10.4 2.4 13.8 7.7 5.2 8.2 11 16.1 16.5 24.3 1.4 2.1 2.9 3.6 5.5 3 6.4-1.4 9.5 2.4 12 7.3a16 16 0 0 1-6.4 3.3c-3.7 1.6-5.4-1.9-8-3.1l-1.1-.8a8 8 0 0 0-4.2-2.3c-1.4-.4-2.8-.8-4.2-1.4-4.2-2.5-6.1-7.1-8.9-10.9-5.2-7-9.7-14.7-14.8-21.8-1.1-1.5-2.5-3.1-1-5.2.2-.2.5-.3.8 0z"/>
  <path fill="#B51D8D" d="M246.7 89c4.7-7.2 8.4-15 13.5-22a158.2 158.2 0 0 1 28.3-29.6c1.3-1 2.7-1.7 2.7-3.6 4 0 8 .8 11.8 2.1-6.6 3.2-12.2 8-17.6 12.8A149.2 149.2 0 0 0 253 91.1a3 3 0 0 1-2.3.8c-1.7-.5-4-.3-4.1-3z"/>
  <path fill="#E30C8C" d="M317.6 496.6c4-1.1 1.1-3.1.4-4.3-9.4-13.8-18.9-27.4-28.2-41.2-1.3-1.8-3.2-3.5-2.9-6l12.8 6c8.7 14.8 19 28.5 28.5 42.8.4.5.9 1 1.1 1.7.6 1.5 3 2.7 1.5 4.5-1.3 1.6-3 0-4.4-.5-2.9-1-6.3-.8-8.8-3z"/>
  <path fill="#B51D8D" d="M436.2 490.2l-3.1 1c-3.2-1.5-4.5-4.8-6.3-7.6-5-8-10.6-15.6-16.3-23.2-4-2.5-8.6.2-12.7-1.8h7.1c-.6-3.5-2.6-5.5-4.2-7.7l-20-29.6c-1-1.5-1.7-3.1-3.9-3.1l8.7-3 40.7 60.2 10 14.8z"/>
  <path fill="#BE198D" d="M365 421.3c4 .6 4.7 4.5 6.6 7 6 8.2 11.7 16.6 17.4 25 1 1.2 1.7 2.6 1.6 4.3a49 49 0 0 1-16.8-4.4c-6.6-8.2-12.2-17-18-25.9a6.4 6.4 0 0 1-1.3-3.9 37 37 0 0 1 10.6-2z"/>
  <path fill="#C3178D" d="M446.8 215.8c4.6-8.3 10.7-15.6 14.6-24.3 5.2-11.5 7.1-23.8 9.8-35.9 3 6 5.2 12.2 5.3 19-.1 7-3.6 13-6.1 19.2-1.9 4.7-4.3 9.2-6.7 13.6-4.9 4.2-10.6 6.9-16.9 8.4z"/>
  <path fill="#6E2B8A" d="M493.4 310.2l20.5 30.5c1.8 2.6 3.8 5 5.7 7.6-1.4 3-3 6-5 8.5-4.4-3-6.3-8-9.2-12-6.7-9.6-13.6-19-19.4-29.2 3.5-.4 4.7-4 7.4-5.4z"/>
  <path fill="#7C2A8B" d="M477.2 355.6c2.7-.8 4-3 5.6-5.1l15.7 22.8c.7 1 1.2 2.2 2.4 2.6-2.5 4-5.7 7.6-9.3 10.7-1.9.8-3-.5-3.9-1.8-4.6-6.8-9.5-13.3-13.9-20.2-.6-1.1-1-2.3-.5-3.5 1.1-2 3.6-3 3.9-5.5z"/>
  <path fill="#8C288C" d="M446.8 383.2l10.7-8c.7 0 1.4.2 1.8.8 5.7 7.7 11.1 15.6 16.3 23.6.4.7.3 1.4 0 2-3.2 3.4-7 6-11 8-1 .3-1.7-.3-2.2-1a387.4 387.4 0 0 1-15.1-22c-.7-1-1.1-2.2-.5-3.4zM424.6 351.5l10.5-10.7c3.8 2.8 5.8 7 8.3 10.8 3.6 5.4 7.3 10.7 11.1 16-5 2.7-10.2 4.4-15.8 5.3l-.5.1a54.2 54.2 0 0 1-14-20.6c-.2-.2.2-.6.4-.9z"/>
  <path fill="#612C89" d="M480.6 265.7l5.3-16c3.2.2 4.3 2.8 5.8 4.9 4.7 6.6 8.5 13.8 14.2 19.6a83.4 83.4 0 0 1-6.4 16c-1.7 1.1-2.7-.3-3.4-1.4-5.1-7.7-10.8-15-15.5-23z"/>
  <path fill="#E30C8C" d="M299.6 489.2c5.3 3.4 11.5 4.5 17 7.4.2 2.6 2.2 3.8 4 5.2 12 9 23.8 18 35.7 26.8 1 .7 1.5 1.5 1.6 2.7-2.8.5-5.5 1.7-8.5 1.3-5.2-6.7-12.6-10.8-19.2-15.9-11.6-9-23.4-17.8-35.1-26.6-1-.8-1.8-1.7-1.8-3l6.3 2z"/>
  <path fill="#99258C" d="M447.8 423.8l8.5-2.2c6.2 12 15 22.3 22.1 33.8 1.3 2 3.6 2 5.3 3-1 1.9-2.3 3.3-4 4.3-5.6 4.1-6.4 4.1-10.4-1.5-7.4-10.2-14.4-20.7-21.4-31.2-1.2-1.8-3.5-4.1 0-6.2z"/>
  <path fill="#762A8A" d="M229 185.4c-9-8.3-19.4-14.9-29-22.4l-8.9-6.6c-1-.8-2-1.6-.5-2.9a4 4 0 0 1 2.2-1.1c2.8-.4 5.5.6 8.2 1.2 3 1 6.4 1.2 9 3.5 5.4 6 12.3 10.2 18.6 15.1 2.4 1.9 4.8 3.6 7 5.6 1.3 1.1 3 2.2 1.6 4.3a29.6 29.6 0 0 1-8.2 3.3z"/>
  <path fill="#9D248D" d="M447.8 423.8c-1.4 1.8-.4 3.3.6 4.8 7 10.4 14.4 20.6 21.3 31.2 2.8 4.3 5.5 6 10 3a13 13 0 0 1-4.3 4.1c-.5 0-1.2-.1-1.5.1-5.9 4.8-8.5.4-11.3-3.8-7.2-10.9-14.5-21.6-21.8-32.4-1.1-1.6-2.3-3.1-2.4-5.2.4-1 1-1.6 2.2-1l7.2-.8z"/>
  <path fill="#C8148C" d="M399.2 501.9l4.2 1c1.5 1 2.7 2.3 4.2 3.2 1.9 1 3.2 2.7 4.9 4 1.3.8.4 1.6-.6 2.2-1 .5-1.8 1.5-3 1.3l-9.5-6.7c-.9-.6-1.7-1.7-2.6-1.7-10.7-.3-14.2-9-19.2-16l-13-19.1c-1.1-1.7-2.3-3.2-2.5-5.2h8.5c6.1 7 10.8 15.1 16 22.8 2.6 3.9 5.7 7.5 8 11.7 1 1.7 2.2 3.3 4.6 2.5z"/>
  <path fill="#532D87" d="M525.2 265.7l12.6-26.1c3.3 15.7 4 30.4 2 45.2-1.6 1.2-2.8.2-3.7-.8-4.3-4.9-7.7-10.4-11.2-15.8a2 2 0 0 1 .3-2.5z"/>
  <path fill="#86298B" d="M454.5 367.5c-.7-.3-1.7-.5-2.2-1.1-6.2-8.3-12-16.7-17.2-25.6l7.4-8.6c4.8 3.6 7 9.1 10.3 13.7 4 5.5 8.4 10.9 11 17.3a26 26 0 0 1-9.3 4.3z"/>
  <path fill="#572D89" d="M525.2 265.7c4.3 6.8 7.6 14.3 14.6 19.1a106 106 0 0 1-3.2 19c-2 .4-3-.9-4-2-5.4-6.8-9.9-14.3-14.7-21.4-.4-.6-.6-1.3-.2-2l7.5-12.7z"/>
  <path fill="#81298B" d="M463.8 363.2c-7.7-10-14.9-20.2-21.3-31l6.4-8.4c.1 3.3 2.7 5.2 4.3 7.7l16 23.4a8 8 0 0 0 3.3 3.1 26 26 0 0 1-8.7 5.2z"/>
  <path fill="#86298B" d="M475.6 401.6l-18.1-26.5 9.4-7.9c6.1 8.7 12.7 17.1 17.3 26.8a39.8 39.8 0 0 1-8.6 7.6z"/>
  <path fill="#87298B" d="M500.7 438.3c-6.4-8.8-13.8-17-17.9-27.3l9.6-5.2c5.6 7.3 11.4 14.6 15.5 23-2 3.4-4.4 6.7-7.2 9.5z"/>
  <path fill="#5D2D89" d="M517.7 278.4l15 21.3c1 1.5 2.5 2.8 3.9 4.1l-3.2 11.7c-1-.5-2.2-.7-2.7-1.4a295 295 0 0 1-18.3-27.4l5.3-8.3z"/>
  <path fill="#732B89" d="M237.2 182.1c-2.3-5-7.4-7-11.3-10.3-4.6-4-9.6-7.4-14.5-11-1-.8-1.7-1.7-1.8-3 1.6-.8 3.1-.1 4.6.2 4.3 1.8 8.9 2.7 13.3 4.1 3 1.5 6.1 2.4 9 4 2 1 4.2 1.5 6.2 2.5 3 2 7 2.7 9.3 6l3.2 2-18 5.5z"/>
  <path fill="#95268D" d="M483.7 458.4c-2.5 1.1-4.4.8-6.1-1.8-6.7-10.2-13.6-20.3-20.5-30.4-1-1.4-2.3-2.7-.8-4.6l6.4-2c6.1 8 11.7 16.5 17.3 25 2.2 3.3 4.5 6.6 7.1 9.6-.5 2-1.8 3.2-3.4 4.2z"/>
  <path fill="#692C89" d="M473.3 282.8l5.2-11.9c3.7 2.2 5.3 6 7.6 9.3l10.4 15.2c-.8 4-3.2 7.3-5.4 10.6-1.6 1.2-2.7.1-3.6-1-5-6.7-9.9-13.5-14.2-20.7-.2-.5-.2-1 0-1.5z"/>
  <path fill="#5D2D89" d="M505.9 274.2c-3.7 0-4.5-3.4-6.2-5.6-4.9-6-8-13.4-13.8-18.9l3-11.5c6.3 4.7 9.1 12 14 17.9 2 2.5 3.2 5.7 6.2 7.5l-3.2 10.6z"/>
  <path fill="#C4178D" d="M354.5 423.4c6 8.7 12 17.3 17.8 26 .7 1 1 2.5 1.5 3.8a58.3 58.3 0 0 1-18.2-8.2c-3-4.8-6.3-9.5-9.3-14.3-1.1-1.8-3-3.6-1.1-6 3-.8 6.1-1.4 9.3-1.3z"/>
  <path fill="#92278D" d="M487.1 454.2c-1.6 0-2.7-.8-3.5-2l-20.4-30c-.4-.7-.3-1.8-.5-2.6l6.4-2.3 20.4 30.2a3 3 0 0 0 2.7 1.4c-1.1 2.3-3 3.9-5.1 5.3z"/>
  <path fill="#81298B" d="M484.2 394c-6.5-7.5-10.9-16.4-17-24.2-.4-.6-.2-1.7-.3-2.6l6.4-6.1c5.6 8.8 11 17.9 18.3 25.5a42 42 0 0 1-7.4 7.4z"/>
  <path fill="#7C2A8B" d="M500.6 400.9l12.8-8.3c4 3 4.9 8.5 9.6 10.8a86.8 86.8 0 0 1-8.8 15.9c-1.6 1.1-2.7 0-3.5-1.1-3.6-5-7-10-10.1-15.3-.4-.7-.3-1.4 0-2z"/>
  <path fill="#6E2C8A" d="M473.3 282.8l14.1 20c1 1.3 1.5 3.2 3.7 3.2a39.6 39.6 0 0 1-5.4 8.5c-.3-.1-.8 0-1-.3-5.5-7.4-11.6-14.5-15.6-23l4.2-8.4z"/>
  <path fill="#95268D" d="M459.8 413c-2.4 2.6-5.8 3.7-8.7 5.3-6.9-7.2-11.6-16-17.2-24-.6-.8-.4-1.7.2-2.4l7.3-4.8c5.3 5.6 8.7 12.6 13.4 18.7 1.8 2.3 4 4.4 5 7.3z"/>
  <path fill="#99258D" d="M434.1 391.9l13.1 19.8c1.5 2.2 3.4 4 3.9 6.6a13.8 13.8 0 0 1-6 3.3c-2 .5-3-.7-4-1.9-5.3-6.7-9.7-14-14.5-21-.5-.8-.6-1.6.1-2.4l7.4-4.4z"/>
  <path fill="#82298B" d="M500.6 400.9l10.5 15.8c.8 1.2 1.5 2.5 3.1 2.6l-6.3 9.5c-5.7-7.4-11.7-14.4-15.5-23l8.2-5z"/>
  <path fill="#97268D" d="M429 375c-6.3 1.6-12.7 2-19.2 1.8-1.9-2.6-4.6-4.8-4.3-8.4l12.7-10.6c5 4.9 9 10.3 10.8 17.1z"/>
  <path fill="#9D248D" d="M426.7 396.3c6 8.6 10.5 18 18.3 25.3-1 1.6-3.5 1-4.4 3l-2.2 1c-7.6-7.4-12.6-16.7-18.2-25.6l6.5-3.7z"/>
  <path fill="#762C8A" d="M523 403.4c-1 .4-2.2 1.5-3.2-.1-2-3.6-5.2-6.6-6.4-10.7l19.5-14.8a87.8 87.8 0 0 1-9.9 25.6z"/>
  <path fill="#91278D" d="M459.8 413a97.8 97.8 0 0 1-18.4-26l5.4-3.8c5.2 9.3 11.8 17.7 17.8 26.5-1.2 1.8-3 2.6-4.8 3.4z"/>
  <path fill="#92288D" d="M429 375l-10.8-17.2 6.4-6.3c3.7 7.8 8.9 14.6 14 21.4-3 1.4-6.2 2-9.6 2z"/>
  <path fill="#C9168D" d="M345.2 424.7c.9 5.4 5 8.9 7.6 13.4 1.2 2.2 3.5 4 2.8 7a107.2 107.2 0 0 1-25.8-19.4l15.4-1z"/>
  <path fill="#662D89" d="M496.5 295.4c-1 0-2-.4-2.7-1.4-5-7.7-10.2-15.4-15.3-23 .2-2 1-3.7 2-5.3 6.5 5.5 9.9 13.4 15 20 1.2 1.6 1.7 3.8 4 4.4-.4 2.1-1.7 3.7-3 5.3z"/>
  <path fill="#B61D8D" d="M410.5 460.4c1.3.2 2.4.6 3.1 1.7 6.6 9.6 13.7 19 19.5 29.2-3.7 2.4-5.5-.4-7.2-2.8-5.4-7.8-10.8-15.6-16-23.5-1.4-2.1-2.8-3.6-5.5-3.4 1.9-1.2 4-1 6.1-1.2z"/>
  <path fill="#C01B8E" d="M463.7 207.4c.1-6.8 5.2-11.6 7-17.8 1.5-5.1 3.8-10 5.8-15 1.9 13.4-1.7 24.5-12.8 32.8z"/>
  <path fill="#C8168C" d="M399.2 501.9c-2.5 1.5-3.6 1.5-5.1-.7l-22.3-33c-.6-.9-.8-2.2-1.2-3.3h3.2c.1 3 2.5 4.8 4 7.1 6 8.7 12 17.4 17.8 26.1 1 1.5 1.9 3 3.6 3.8z"/>
  <path fill="#9F288F" d="M405.5 368.4c1.3 2.8 4.4 4.8 4.3 8.4-4.5.3-9 0-13.8-1.2 2.8-3.1 6.3-5 9.5-7.2z"/>
  <path fill="#B61D8D" d="M442.6 494.3c-1.2-2.2-3.3-3.1-5.3-4 6.2-4.3 7.1-4.3 10.7.2l-5.4 3.8z"/>
  <path fill="#C8168C" d="M412 512.3c.5-3.5-4-3.4-4.4-6.2 3.4.4 4.9 4.3 8.4 4.2a6.4 6.4 0 0 1-4 2z"/>
  <path fill="#63388F" d="M38.3 352.5l1-2.1c1.5 2 .8 4.4 1 6.6l-2-4.5z"/>
  <path fill="#EB108E" d="M200.3 379.1c1.6 2 .6 4.2.8 6.4-1-2-.8-4.2-.8-6.4z"/>
  <path fill="#D2128C" d="M148 328.2c-1.5-2-.6-4.3-.8-6.5 1 2 .9 4.3.7 6.5z"/>
  <path fill="#7B2A8A" d="M138.7 155.6c-1.2 0-2.4-.1-3.2 1.1L126 160c-2.4-2.6-2.6-5.8-2.4-9 1.2-19.4 2.7-38.8 7.3-58 2.2-9.2 5.4-18 7.7-27.3a75.5 75.5 0 0 1 17-9.6c3.6 1.2 2 3.9 1.4 6-2.2 6.5-4.7 12.8-6.7 19.4a236.7 236.7 0 0 0-10.3 59.7c-.2 4.8 0 9.8-1.3 14.5z"/>
  <path fill="#762A8A" d="M138.6 65.6c1.8 1.5 1 3.1.4 4.8-6.3 18.8-10.6 38-12 57.7-.8 10.6-2.4 21.1-1 31.8l-1 1-8.5 3.2c-2.8-1.9-2.5-4.8-2.6-7.6-.5-17 1.2-33.8 4.2-50.4 1.9-10.4 4.3-20.7 6.7-31 4-4 9-6.7 13.8-9.5z"/>
  <path fill="#81298B" d="M138.7 155.6c-2.7-8.2 0-16.4.4-24.5a198 198 0 0 1 7-40.8c2.7-9.9 5.8-19.6 9.6-29 .7-1.8 1.9-3.6-.1-5.3a59 59 0 0 1 16-7.4c1.8 2.3.2 4.3-.6 6.4-3.9 9.3-8.1 18.6-10.4 28.5a12 12 0 0 1-2.9 3.7c-5.4 5-8.2 10.9-6.6 18.4.3 1.2.3 2.4-.7 3.4-3.7 6.2-3.6 13.2-4 19.9-.6 8.2-2.1 16.4-1.3 24.6l-6.4 2.1z"/>
  <path fill="#612C88" d="M78.4 198l-2.2 2c-2.8-1-3.3-3.5-3.6-6-1.8-17-4-34-2.4-51 .5-4.6-.1-9.2.8-13.8a97 97 0 0 1 12.6-16c4.2 1.7 2.6 5.3 2.4 8-.8 11-1.9 21.8-1.8 32.7 0 10 .8 20 1.8 30 .2 1.6.3 3.1-.2 4.7l-1 2-6.4 7.4z"/>
  <path fill="#692C89" d="M99.6 175.8l-3.3 4.2-5.2 3.3c-2-.8-2.4-2.5-2.5-4.3-1.6-15.1-1.8-30.2-.7-45.4.7-9.6 1.8-19.2 3-28.8a90 90 0 0 1 11.8-11.6c3.7 1.5 2.3 4.6 2 7.1-1.3 9.8-2.8 19.5-3.8 29.3-1.3 13.6-.5 27-.7 40.6 0 1.9.6 3.9-.6 5.6z"/>
  <path fill="#722B89" d="M124.8 75c1.6 1.2 1.5 2.9 1 4.4a241.8 241.8 0 0 0-8.8 45c-1.4 13.2-3.2 26.5-.5 39.7l-1.1 2.1c-2.2.3-3.7 1.8-5.3 3.2l-2.1 1c-2-1.5-2.4-3.8-2.5-6.1a283 283 0 0 1 8.7-81c3.2-3.2 6.5-6.2 10.6-8.2z"/>
  <path fill="#6E2B89" d="M114.2 83.4c1.4 6.4-1.8 12.1-2.5 18.3-1.3 10.1-3 20.3-3.9 30.5-.6 7.7-.8 15.4-.9 23 0 5.2-.2 10.2 1 15.2-1.6 1.5-4 2.1-5.2 4.3l-3.1 1.1c-1-2.8-1.1-5.8-1.2-8.8-.4-23.1.4-46.1 5.2-68.9.3-1.6.7-3.5-.9-5 3.6-3.5 7.1-7.1 11.5-9.7z"/>
  <path fill="#5C2D88" d="M71 129.2c2 5 1.5 10.5.7 15.5-2 11.2 1 22.2.7 33.4-.2 4.8 1.3 9.6 1.6 14.5.2 2.7 1 5 2.2 7.4l-3 4.4-3.2 4.2-1.2.8c-3.5-2-3-5.7-3.5-9a318.3 318.3 0 0 1-3.6-57.4c2.7-4.8 5.7-9.5 9.3-13.8z"/>
  <path fill="#582D88" d="M61.7 143c2.5 1.5 1.9 4 1.8 6.2-.5 19.2 1 38.3 4.3 57.3.2 1 .6 2 1 3-2.3 1.6-2.4 4.5-4.1 6.5l-2.1 2.2c-3.2-.2-3.3-2.8-3.7-5-2.8-15-4.7-30.2-5.4-45.5-.1-3-.5-6-.8-9a80.6 80.6 0 0 1 9-15.7z"/>
  <path fill="#552D88" d="M52.7 158.7c1.8 1.3 2.3 3 2.3 5 .1 16.9 3 33.4 5.3 50 .3 1.7.8 3.3 2.3 4.5l-4.5 8.3-2 2c-4.3-9.2-4.6-19.2-6.3-29-1.1-7-2.2-14.2-2.2-21.4 0-1.8-.7-3.4-2.2-4.5a85.1 85.1 0 0 1 7.3-14.9z"/>
  <path fill="#652C88" d="M91 104.8c3 5.5 0 11-.4 16.3-1.5 17-2.8 33.8-.7 50.8.5 3.8-.9 7.7 1.2 11.4v1l-5.3 4.3c-3.5-6.4-2.1-13.5-2.8-20.1-1-10.7-.5-21.4 0-32.1.4-7.7 3.3-15.4.6-23.2 2.4-2.9 4.3-6.1 7.4-8.4z"/>
  <path fill="#87288B" d="M159.9 83.5c0-8 4.3-14.6 6.7-21.8 1.5-4.4 4.5-8.3 5-13 4.2-2.7 8.8-4.2 13.6-5.3 2.3 2 2.5 2.2 1 5.2-2.5 5.2-4.8 10.5-7.2 15.8a61.8 61.8 0 0 0-4.4 11.8c-4.4 3.5-8.7 7.1-14.7 7.3z"/>
  <path fill="#99258C" d="M222.3 34c3-1.8 6.3-1 9.5-1.2 3.2.7 3.5 1.1 1.7 4-3 5-7 9.3-9.9 14.3-4.5 7.6-9.5 15-12.8 23.4a6.3 6.3 0 0 1-2.4 3.4c-4 .5-7.7 0-10.6-3.2 5.7-9 9.6-19 15.5-27.9 3-4.3 5.6-8.9 9-12.9z"/>
  <path fill="#8D288C" d="M173.7 76.3c.4-8 5.5-14.1 8-21.3.9-2.6 2.4-5 3.6-7.5.7-1.4 1.7-2.8 0-4.1 4.3-2.2 8.8-3.9 13.7-4.3 3.4.7 3.7 1.3 1.9 5-3.5 6.9-7.7 13.3-10.5 20.5l-2.9 7.8c-4.3 2.4-8.6 4.9-13.8 3.9z"/>
  <path fill="#9D248D" d="M208.6 77.4c4.6-14.1 13-26 21.5-38 1.1-1.6 2.4-3 3.3-4.7.8-1.5-.6-1.7-1.6-1.9 3.4-2 7.1-.7 10.6-1h2.2c1.4 2-.2 3.3-1.2 4.6A180.9 180.9 0 0 0 218 76c-.8 1.6-1.6 3.2-3.3 4-2.6.3-5.1.5-6.1-2.7z"/>
  <path fill="#95268C" d="M222.3 34c-1.3 6-6 10-8.8 15-4.2 7.4-8.3 14.7-11.9 22.3-.8 1.8-1.5 3.1-3.7 2.9-2.9 1.5-5.4.7-7.5-1.5 6.1-9.8 10.3-20.7 16.7-30.3 1.5-2.2 2.7-4.6 4.7-6.4 3.3-1.7 7-1.2 10.5-2z"/>
  <path fill="#90278C" d="M211.8 36c-1.4 5.4-5.2 9.5-7.8 14.2-3.3 5.8-6.4 11.8-9 17.9-1 2-2 3.7-4.4 4-1.1.8-2.2.8-3.2-.2-1.6-2-.1-3.6.6-5.3 3.4-8.3 7.7-16 12.2-23.7 1-1.9 1.6-3.3-1.2-3.8 4-2 8.4-2.3 12.8-3.1z"/>
  <path fill="#BA1B8C" d="M252 174.6l-9.6-5c-3.6-9.6-2.6-19.4-2.1-29.2.1-2.5.6-5-1-7.1-.3-.8-.4-1.6.3-2.3 4-1 7-3.2 8.4-7.2 1.2-1.8 1.6-4.3 4-5.2 1.8 1.8 1.3 4 .9 6a111 111 0 0 0-1 45.8c.3 1.3 0 2.8.1 4.2z"/>
  <path fill="#C7178C" d="M252 118.6c-1 1.7-1.5 3.9-3.2 5.3-2-2.1-1.6-4.7-.9-7 2.5-8.2 4.5-16.6 7.3-24.8l7.4 2.1c-1.8 9-7 16.3-10.6 24.4z"/>
  <path fill="#DF0E8C" d="M370 87.9c32.2-.5 59 27 58.8 60.4-.2 33-27.2 62.4-61.8 61.3-33-1-57.2-26.7-57.2-59.8a60.5 60.5 0 0 1 60.3-62z"/>
  <path fill="#EB0C8D" d="M221.3 81.5l6.4 2.1c.4.9 1.2 1 2 1.1 1.5 1.9.4 3.7 0 5.6-3.5 12.3-7.3 24.6-10.8 37-.7 2.7-1.6 5.5-4.4 7a17 17 0 0 1-10.8-.2c-1.9-1.7-1-3.6-.5-5.4l12.3-42c.6-2.2 1-4.6 3.3-5.8 1-.2 1.8 0 2.5.6z"/>
  <path fill="#E40D8D" d="M215 133.3c4.8-10.7 6.6-22.4 10.4-33.5 1.8-5 3-10 4.4-15 2.3 0 4.5.5 6.3 2 .8.9.9 2 .6 3-4 14.2-7.8 28.4-12.6 42.4-1 1.1-2.4 1.5-3.7 2-1.6.4-3.3.6-4.9-.3l-.5-.6z"/>
  <path fill="#DF108D" d="M223.4 132.4c3.3-15.5 8.7-30.4 12.7-45.6h2.1l1.1 1c1.2 1.5 1 3 .5 4.6-3.6 12-6.9 24.3-10.7 36.3-.5 1.5-1 3-2.4 4-1.1.6-2.3.6-3.3-.3z"/>
  <path fill="#CB178C" d="M255.2 92.1c1.6 4.2-1.4 7.7-2 11.5-1.1 6.8-5.2 13-4.4 20.3-1.2 4.3-2.8 8.2-8.4 7.4-1.3-1.4-1-3-.6-4.5 3.2-11.4 6.1-22.8 10-34 .2-.7.6-1.3 1.1-1.7h2.2c.4.8 1.2 1 2 1z"/>
  <path fill="#EC168E" d="M187.4 71.9l3.2.1c2.2 1.4 4.7 2 7.3 2.2 3.3 2 7 2.5 10.7 3.2 1.9 1.4 4 2 6.3 2 .4.5.5 1 .5 1.6-4.2 17-9.5 33.5-14.3 50.2a7.5 7.5 0 0 1-2 3.7c-1.8 1.1-4 1-6 1h-1.8c-3.2 0-6.4-.3-9.6.7-4.7.7-9.5.6-14.3 0-4.2-1.4-5.6-5.6-8.3-8.6a37.6 37.6 0 0 1-5.6-11.3l-3.1-7.7c-3.4-11 .7-19 9.5-25.5l13.8-7.2 13.7-4.4z"/>
  <path fill="#8B288C" d="M159.8 127.3l6.4 8.3c6.5 1 6.7 1 6.8 8.2 0 2.8 1.6 5 1.7 7.6H157.8c-3.2-6.8-2.1-19.9 2-24.1z"/>
  <path fill="#87288B" d="M159.8 127.3c-3.4 7.8-1.6 16-2 24.1l-4.1.9c-2.5.4-4.5-.4-4.3-3.1.6-9.6 1.4-19.2 2.4-28.8 0-1.3 1.1-2.5 1.7-3.7 2.8 3.1 4.2 7 6.3 10.6z"/>
  <path fill="#93268C" d="M174.7 151.4c-3.8-1.3-3.4-4.4-3.1-7.3.4-4.3 0-8-5.4-8.5h15.9c.6-.5 1.2-.4 1.6.2.5 5.3.7 10.6-1.6 15.6h-7.4z"/>
  <path fill="#98258C" d="M182.1 151.4c-.2-5.3.1-10.6 1-15.8 2.7-1.4 5.8.2 8.5-1h1.1c2.8 6.3 1.7 12.6 0 18.9h-2.1c-2.5-1.8-5.8-.8-8.5-2z"/>
  <path fill="#D2148C" d="M251 91c-1 8.2-4.5 15.7-6.4 23.7-1.3 5.5-3.5 10.9-4.2 16.6l-1.1 1c-.6.8-1.4 1.1-2.3 1.3-1.8.2-3.6.2-5.1-1-1-1.5-.3-3 0-4.5 3.3-11.8 7-23.5 10.3-35.2.4-1.6 1-3 2.4-4h2l4.3 2.2z"/>
  <path fill="#DA138D" d="M244.6 89l-12.7 43.3c-1.8 1.6-3.5 1.6-5.3 0L239.3 88c1.9-.1 3.7 0 5.3 1z"/>
  <path fill="#A2238D" d="M215 80.4v-1a182 182 0 0 1 28.6-45.2c.6-.6.7-1.6 1-2.4 2.6.2 6.3-1.3 7.5.7 1.5 2.5-2.2 4.3-3.7 6a197.3 197.3 0 0 0-21.7 31.6c-2.1 3.7-3.3 7.8-5.4 11.4h-2.1c-1.3-.7-3.1.6-4.2-1z"/>
  <path fill="#C8168C" d="M407.6 506.1c-2.1 0-3.3-1.5-4.2-3.2 2.2.1 3.3 1.5 4.2 3.2z"/>
  <path fill="#A5228D" d="M203.3 133.4H215c.2.5.7.9.8 1.4a55 55 0 0 1-2 24c-1.5.2-2.8-.3-4.2-1l-8.4-3.2c-3-6.6-1.4-13.3-.6-20 .5-1.3 1.2-2.2 2.7-1.2z"/>
  <path fill="#9D248D" d="M201.2 134.5v20.1l-8.5-1.1v-19l6.4-.2c.7-.5 1.4-.5 2 .2z"/>
  <path fill="#AB208D" d="M213.9 158.8c-.8-8.5 1.6-16.8 1-25.3l5.3-.1c.3-.2.6-.4 1-.4 8.4-.7 8.7-.5 9 8.1.2 5.2.2 10.5 0 15.7 0 2.4.2 5-2.6 6.3-4.7-1-9.5-1.7-13.7-4.3z"/>
  <path fill="#B31D8D" d="M227.6 163.1c2.5-9.3.5-18.8.9-28.2 0-1.3-1.4-1.5-2.5-1.5h-5.8c.8-1.2 2-1 3.2-1h13.8c1.7 3.1.4 6.5.5 9.8.2 6.2.1 12.4 0 18.5 0 2.3.3 4.7-1.6 6.5-2.7-1.6-6-1.8-8.5-4z"/>
  <path fill="#B71C8C" d="M236.1 167.2V141c0-3 .2-5.9 1-8.7h2.2c2.6-.3 3.6 1.2 3.1 3.4-2.2 11.3-.4 22.5 0 33.7l-6.3-2.3z"/>
  <path fill="#E30C8C" d="M326.8 119.6c-1.2-1.8.2-3 1-4.2 23-29 62.9-27.7 83.5-.3 20 26.6 12 62-13.6 79.3a52.1 52.1 0 0 1-80.3-34c-2.4-12.1-.9-23.3 4-34.2.6-1.6 1-3.8 3.6-3.5.4.3.6.7.6 1.2-.3 1.9-.5 3.7.5 5.4.7 1.9 2 3.6 1.4 5.8a45 45 0 0 0 39.6 59.3c23.2 1.4 45.6-19.5 46.5-43.4 1-24.3-13.9-43.1-37.8-47.3a42.4 42.4 0 0 0-32.3 8.5c-1.6 1.1-2.9 2.6-4.5 3.7-4.2.9-8.3 2-12.2 3.7z"/>
  <path fill="#FEFEFE" d="M326.8 119.6c3-4.4 7.5-4.4 12-4.4 4.1-.2 6.6 2.1 8.7 5.3 4.7 8.6-1.4 19-12.7 19.4-3.2-1-6.5-1.7-7.8-5.4l-2.2-5.4c-.4-1.7-.4-3.5 0-5.2l.2-1.2 1.8-3z"/>
  <path fill="#EB108E" d="M201.2 134.5l-2.1-.2c4.2-15 8.4-30.2 12.8-45.2.9-3 .8-6.3 3.1-8.7 1.5.2 3-.3 4.2 1.1-4.8 10.7-6.8 22.3-10.5 33.4-2 6-3.6 12.3-5.4 18.5-.9.1-1.7.3-2.1 1z"/>
  <path fill="#9D248D" d="M191.6 134.6c-2.6 1.9-5.6.5-8.4 1H182c3-2 6.3-.8 9.5-1z"/>
  <path fill="#E60A8D" d="M346.5 120.7c-1.7-3.1-5-3.9-7.7-5.5 5.6-7.6 13.9-10.6 22.5-12.4 17.4-3.6 32.2 2 43.2 15.6a44.8 44.8 0 0 1 7 47.5 45.6 45.6 0 0 1-43.8 29.9 45.1 45.1 0 0 1-43.6-44.2c0-5.8-1.5-12 2.9-17 2.4 1.4 4.5 3.6 7.6 4 1.6 1.7 1.3 3.8 1 6a34.9 34.9 0 0 0 28.5 38.9c16.4 3 35-9.9 38.4-27.5a34.1 34.1 0 0 0-33.2-42.4c-6.1.2-11.7 2.2-17 5.2-1.8 1-3.5 2.6-5.8 1.9z"/>
  <path fill="#DF0E8C" d="M324.9 124l-.1 5.1c-1.2-1.7-1.2-3.5 0-5.2z"/>
  <path fill="#EB0B8D" d="M346.5 120.7a43.7 43.7 0 0 1 24.4-8.5 35.1 35.1 0 0 1 33.6 34c0 18-8 30-23.2 36.5-20.7 8.7-42.2-5.9-46.8-26-1.5-6.2.2-12.1 0-18.2 11.6-1.6 15.4-7.2 12-17.8z"/>
  <path fill="#EB0F8E" d="M354.7 148.7c0-8.1 7-15.3 15-15.3 7.5 0 14.7 7.3 14.7 15-.1 7.8-8 15.8-15.6 15.7-7.5 0-14.1-7.3-14-15.4z"/>
  <path fill="#EC148E" d="M369 155.7c-4-.1-6.7-2-6.9-6.2-.2-4.7 2.7-7.6 7.4-7.6 3.8 0 7.3 3.2 7.3 6.8 0 3.3-4 7-7.8 7z"/>
</svg>