<svg xmlns="http://www.w3.org/2000/svg" viewBox="0 0 640 512"><g><path fill="currentColor" d="M360 176h-24v-40a8 8 0 0 0-8-8h-16a8 8 0 0 0-8 8v64a8 8 0 0 0 8 8h48a8 8 0 0 0 8-8v-16a8 8 0 0 0-8-8zM0 224v272a16 16 0 0 0 16 16h80V192H32a32 32 0 0 0-32 32zm608-32h-64v320h80a16 16 0 0 0 16-16V224a32 32 0 0 0-32-32z" class="fk-secondary"></path><path fill="currentColor" d="M497.75 112l-160-106.63a32 32 0 0 0-35.5 0L142.25 112A32 32 0 0 0 128 138.66V512h128V368a16 16 0 0 1 16-16h96a16 16 0 0 1 16 16v144h128V138.67A32 32 0 0 0 497.75 112zM320 256a80 80 0 1 1 80-80 80 80 0 0 1-80 80z" class="fk-primary"></path></g></svg>