<svg aria-hidden="true" data-prefix="fas" data-icon="scroll-old" role="img" xmlns="http://www.w3.org/2000/svg" viewBox="0 0 640 512" class="svgscroll-old  "><path fill="currentColor" d="M48 0C21.53 0 0 21.53 0 48v64c0 8.84 7.16 16 16 16h80V48C96 21.53 74.47 0 48 0zm208 412.57V352h288v-57.37c0-4.24-1.69-8.31-4.69-11.31L512 256l27.31-27.31c3-3 4.69-7.07 4.69-11.31v-50.75c0-4.24-1.69-8.31-4.69-11.31L512 128l26.86-26.86c3.27-3.27 5.21-7.84 4.86-12.45C539.98 39.15 498.48 0 448 0H111.59C121.74 13.41 128 29.92 128 48v137.37c0 4.24 1.69 8.31 4.69 11.31L160 224l-27.31 27.31c-3 3-4.69 7.07-4.69 11.31V416c0 38.87 34.65 69.65 74.75 63.12C234.22 474 256 444.46 256 412.57zm187.31-23.88L416 416l-27.31-27.31c-3-3-7.07-4.69-11.31-4.69H288v32c0 52.93-43.06 96-96 96h336c61.86 0 112-50.14 112-112 0-8.84-7.16-16-16-16H454.63c-4.25 0-8.32 1.69-11.32 4.69z" ></path></svg>