<svg aria-hidden="true" data-prefix="far" data-icon="shield-alt" role="img" xmlns="http://www.w3.org/2000/svg" viewBox="0 0 512 512" class="svg-inline--fa fa-shield-alt fa-w-16 fa-7x"><path fill="currentColor" d="M113.12 159.533L256 100v309.65c-77.73-47.559-134.486-133.931-142.88-250.117zM496 128c0 221.282-135.934 344.645-221.539 380.308a48 48 0 0 1-36.923 0C130.495 463.713 16 326.487 16 128a48 48 0 0 1 29.539-44.308l192-80a48 48 0 0 1 36.923 0l192 80A48 48 0 0 1 496 128zm-48 0L255.999 48 64 128c0 169.278 94.451 295.361 191.998 335.999C349.602 425.017 448 301.804 448 128z" class=""></path></svg>