<svg aria-hidden="true" focusable="false" data-prefix="fad" data-icon="sign-in-alt" role="img" xmlns="http://www.w3.org/2000/svg" viewBox="0 0 512 512" class="svg-inline--fa fk-sign-in-alt fk-w-16 fk-9x"><g class="fk-group"><path fill="currentColor" d="M512 160v192a96 96 0 0 1-96 96h-84a12 12 0 0 1-12-12v-40a12 12 0 0 1 12-12h84a32 32 0 0 0 32-32V160a32 32 0 0 0-32-32h-84a12 12 0 0 1-12-12V76a12 12 0 0 1 12-12h84a96 96 0 0 1 96 96z" class="fk-secondary"></path><path fill="currentColor" d="M369 273L201 441c-15 15-41 4.5-41-17v-96H24a23.94 23.94 0 0 1-24-24v-96a23.94 23.94 0 0 1 24-24h136V88c0-21.5 26-32 41-17l168 168a24.2 24.2 0 0 1 0 34z" class="fk-primary"></path></g></svg>