<svg viewBox="0 0 512 512" fill="none" xmlns="http://www.w3.org/2000/svg">
<path fill-rule="evenodd" clip-rule="evenodd" d="M229.668 180.167C229.668 164.265 242.732 158.149 264.369 158.149C295.397 158.149 334.589 167.527 365.616 184.244V88.4267C331.731 74.9714 298.254 69.6709 264.369 69.6709C181.494 69.6709 126.38 112.891 126.38 185.06C126.38 297.594 281.516 279.654 281.516 328.174C281.516 346.93 265.186 353.046 242.324 353.046C208.439 353.046 165.164 339.183 130.871 320.427V417.468C168.838 433.777 207.214 440.709 242.324 440.709C327.24 440.709 385.62 398.712 385.62 325.728C385.212 204.223 229.668 225.833 229.668 180.167Z" fill="#2DB9FF"/>
</svg>
