<svg viewBox="0 0 445 535" fill="none" xmlns="http://www.w3.org/2000/svg">
<path d="M416.629 70.6913C366.97 -0.318732 268.894 -21.364 197.986 23.7808L73.4569 103.094C56.6494 113.645 42.2276 127.582 31.1121 144.015C19.9966 160.449 12.4317 179.018 8.90021 198.538C2.94525 231.484 8.15412 265.473 23.7024 295.127C13.0462 311.283 5.78481 329.435 2.35859 348.48C-1.19812 368.431 -0.728165 388.892 3.74082 408.659C8.2098 428.426 16.5876 447.1 28.3818 463.585C78.0408 534.595 176.117 555.64 247.025 510.495L371.554 431.516C388.342 420.943 402.749 407 413.862 390.57C424.975 374.14 432.552 355.582 436.111 336.072C442.044 303.137 436.818 269.165 421.261 239.531C431.912 223.367 439.188 205.22 442.653 186.178C446.198 166.227 445.723 145.768 441.255 126.003C436.786 106.237 428.414 87.5625 416.629 71.0731" fill="#FF3E00"/>
<path d="M185.813 470.817C166.209 475.907 145.517 474.857 126.529 467.808C107.54 460.759 91.1697 448.051 79.6263 431.398C72.5386 421.476 67.506 410.234 64.8247 398.336C62.1434 386.438 61.8676 374.124 64.0134 362.117C64.7177 358.212 65.7071 354.363 66.9736 350.602L69.3132 343.435L75.7111 348.213C90.4172 358.957 106.835 367.132 124.269 372.39L129.043 373.776L128.613 378.554C128.154 385.105 129.995 391.611 133.818 396.949C137.301 401.958 142.234 405.78 147.954 407.898C153.673 410.017 159.904 410.331 165.807 408.798C168.507 408.072 171.082 406.945 173.447 405.454L297.777 326.043C300.83 324.121 303.448 321.58 305.463 318.585C307.477 315.59 308.844 312.206 309.474 308.652C310.111 305.029 310.016 301.315 309.196 297.729C308.376 294.143 306.847 290.757 304.7 287.772C301.216 282.762 296.283 278.941 290.564 276.822C284.844 274.704 278.613 274.39 272.71 275.922C270.008 276.639 267.431 277.767 265.071 279.267L217.325 309.607C209.516 314.562 201 318.3 192.067 320.692C172.496 325.752 151.846 324.691 132.896 317.652C113.945 310.614 97.6043 297.934 86.0719 281.322C79.0056 271.389 73.993 260.145 71.3283 248.248C68.6636 236.351 68.4006 224.041 70.5546 212.041C72.663 200.262 77.2044 189.053 83.8884 179.131C90.5724 169.209 99.2519 160.792 109.372 154.418L234.084 75.008C241.847 70.063 250.314 66.3255 259.198 63.9231C278.794 58.8291 299.481 59.8777 318.463 66.9272C337.444 73.9767 353.806 86.6873 365.337 103.341C372.433 113.261 377.474 124.5 380.163 136.398C382.853 148.296 383.136 160.613 380.997 172.622C380.252 176.55 379.264 180.428 378.037 184.233L375.65 191.4L369.3 186.622C354.563 175.796 338.095 167.556 320.599 162.254L315.824 160.868L316.254 156.09C316.806 149.507 315.013 142.94 311.193 137.552C307.688 132.628 302.768 128.89 297.088 126.833C291.408 124.776 285.236 124.498 279.394 126.037C276.692 126.754 274.115 127.882 271.755 129.382L147.186 208.648C144.144 210.573 141.534 213.107 139.52 216.093C137.507 219.078 136.134 222.449 135.489 225.992C134.865 229.623 134.965 233.342 135.785 236.934C136.604 240.526 138.126 243.92 140.263 246.92C143.731 251.884 148.624 255.676 154.295 257.792C159.966 259.909 166.145 260.249 172.014 258.769C174.71 258.033 177.284 256.907 179.654 255.425L227.399 225.132C235.202 220.123 243.741 216.367 252.705 214C272.296 208.894 292.981 209.932 311.964 216.973C330.947 224.014 347.311 236.719 358.843 253.37C365.934 263.292 370.973 274.531 373.662 286.429C376.351 298.326 376.638 310.641 374.504 322.651C372.396 334.43 367.854 345.638 361.17 355.561C354.486 365.483 345.807 373.9 335.687 380.274L211.118 459.684C203.294 464.655 194.762 468.408 185.813 470.817" fill="white"/>
</svg>
