<svg viewBox="0 0 32 32" fill="none" xmlns="http://www.w3.org/2000/svg">
<path d="M22.6965 12.2621C22.6965 12.2621 22.1806 7.86422 17.4077 7.74209C12.6349 7.61997 10.1837 11.0405 10.1837 15.927C10.1837 20.8134 12.8927 24.7228 17.5366 24.7228C22.1806 24.7228 22.6965 19.8363 22.6965 19.8363L31.5974 20.3249C31.5974 20.3249 32.1215 24.7382 28.3968 28.1053C24.672 31.4721 20.1002 32.0222 16.9074 31.9993C13.7147 31.976 9.28802 32.0451 5.00723 28.0366C0.726444 24.0281 0 20.1341 0 16.3089C0 12.4836 0.811802 7.41608 5.90174 3.57331C9.36097 0.9621 12.8677 0 16.3749 0C31.0166 0 32 12.3462 32 12.3462L22.6965 12.2621V12.2621Z" fill="#A8B9CC"/>
</svg>
