<svg viewBox="0 0 32 32" fill="none" xmlns="http://www.w3.org/2000/svg">
<path fill-rule="evenodd" clip-rule="evenodd" d="M16.0703 0.0712891C24.9009 0.0712891 32.0703 7.24069 32.0703 16.0714C32.0703 24.902 24.9009 32.0713 16.0703 32.0713C7.23968 32.0713 0.0703125 24.902 0.0703125 16.0714C0.0703125 7.24069 7.23968 0.0712891 16.0703 0.0712891ZM20.7024 19.1425C19.6913 19.1398 18.6875 19.0175 17.8805 18.9209C17.2669 18.8474 16.682 18.7138 16.2003 18.5731C16.1216 18.5489 16.0365 18.5788 15.9902 18.6468C15.9441 18.7149 15.9414 18.8108 15.9992 18.8693C16.2345 19.1071 16.9684 19.5914 17.531 19.8032C17.0776 20.2144 16.7966 21.1195 16.691 21.5862C16.5492 22.2125 16.5665 23.1065 16.623 23.4323C16.8505 24.7428 17.3902 25.9016 18.6385 26.8792C19.5122 27.5635 20.751 28.0014 21.9946 27.9657C23.7107 27.9165 25.7306 27.0843 27.2661 25.3534C29.2668 22.944 30.5082 19.8744 30.6084 16.5045C30.847 8.48018 24.5261 1.77176 16.5018 1.53316C8.47762 1.29457 1.76924 7.61557 1.53063 15.6398C1.40706 19.7954 3.04276 23.5981 5.76347 26.3318C5.83919 26.4068 5.95631 26.4204 6.04723 26.3649C6.13815 26.3094 6.17943 26.1989 6.1472 26.0973C3.87828 18.669 7.66421 10.3612 12.1918 7.57698C13.8727 6.54325 15.5362 6.10264 17.0744 6.64295C19.4294 7.47011 20.823 8.95831 23.7445 10.1287C26.6661 11.2989 27.0765 13.4574 26.3812 15.6913C25.686 17.9252 23.1679 19.1489 20.7024 19.1425ZM15.1555 7.74723C14.2214 7.86422 13.6598 9.05332 13.6139 9.80362C13.5676 10.5539 13.9954 11.7687 15.216 11.6878C16.6453 11.5931 17.023 10.3482 16.811 9.17058C16.6518 8.28614 15.9365 7.64934 15.1555 7.74723Z" fill="white"/>
</svg>
