    <svg 
    id="fireship-logo"
    data-name="fireship logo" 
    xmlns="http://www.w3.org/2000/svg" 
    xmlns:xlink="http://www.w3.org/1999/xlink" 
    viewBox="0 0 1024 1025"><defs><style>.cls-1{fill:url(#logo-linear-gradient);}</style><linearGradient id="logo-linear-gradient" x1="70.38" y1="512.5" x2="953.62" y2="512.5" gradientUnits="userSpaceOnUse"><stop offset="0.01" stop-color="#eb844e"/><stop offset="1" stop-color="#ee4358"/></linearGradient></defs><title>fireship</title><path class="cls-1" d="M404,44.27c-1.65-1.4-5.44-1.34-8.59-2-1.65,2.44-3.78,4.37-4.3,6.5a122,122,0,0,0-2.67,16.34c-12.19,122.65-57.84,236.48-146.68,340.66-49.28,57.78-98.33,116.85-134.6,179.62-90,155.75-9.91,314.8,186.41,384.32,6.46,2.27,13.72,3.31,29.91,7.09C256.89,916.59,222.6,855.39,234.16,783c11-69.07,45.95-130.69,98.87-186.88,3.9,7.82,4.14,14.63,3.87,21.44-2.58,61.62,17.81,116,80.82,158.94,29.13,19.84,55.29,42.31,81.63,64.39,26.76,22.5,34.51,49.54,26.91,79-3.66,14.32-9,28.39-14.78,46.07,44.84-4.43,86.31-10.62,114.15-35.39,26.61-23.65,46.31-51.73,74.72-84.4,2,27.66,5.89,49.18,4.38,70.5-1.59,22.17-8.44,44.11-13,66.19C828,962.32,948.21,828.63,953.49,691.85c3.87-99.81-81.06-246-152.38-260.18,4,9.36,7.72,18.24,11.71,27,24.75,54.5,32,109.76,16.34,166.79C813.51,682.19,734.08,745.82,664,753.87c2.37-5.69,3.36-11,6.61-15.33C746.09,636.85,747,530.42,704.1,421.81,646.74,276.6,536.61,155.21,404,44.27Z"/></svg>
