<svg viewBox="0 0 32 32" fill="none" xmlns="http://www.w3.org/2000/svg">
<path fill-rule="evenodd" clip-rule="evenodd" d="M15.9995 7.40625C12.1736 7.40625 9.78237 9.31965 8.8259 13.1465C10.2606 11.2331 11.9344 10.5155 13.8474 10.9939C14.9388 11.2665 15.7189 12.059 16.5824 12.9355C17.9889 14.3636 19.617 16.0166 23.173 16.0166C26.9989 16.0166 29.3901 14.1032 30.3466 10.2764C28.9118 12.1898 27.238 12.9073 25.3251 12.4289C24.2336 12.1563 23.4536 11.3638 22.5901 10.4874C21.1835 9.05922 19.5554 7.40625 15.9995 7.40625ZM8.8259 16.0166C5 16.0166 2.60882 17.93 1.65234 21.7568C3.08705 19.8434 4.76088 19.1258 6.67383 19.6042C7.76527 19.8774 8.54533 20.6693 9.40882 21.5458C10.8154 22.9739 12.4435 24.6269 15.9995 24.6269C19.8253 24.6269 22.2165 22.7135 23.173 18.8867C21.7383 20.8001 20.0645 21.5176 18.1515 21.0393C17.0601 20.7666 16.28 19.9741 15.4165 19.0977C14.01 17.6695 12.3819 16.0166 8.8259 16.0166Z" fill="#06B6D4"/>
</svg>
