<svg xmlns="http://www.w3.org/2000/svg" width="485.93" height="464">
  <defs>
    <clipPath id="a">
      <path d="M290.375 143.34a4 4 0 0 0-6.77-2.16L262.845 162l-16.34-31.11a4 4 0 0 0-7.08 0l-8.93 17-22.4-41.77a4 4 0 0 0-7.48 1.28L178.965 246l57.9 32.46a12 12 0 0 0 11.7 0l58.4-32.46z" fill="none"/>
    </clipPath>
    <linearGradient x1="203.865" y1="198.54" x2="195.865" y2="194.36" gradientUnits="userSpaceOnUse" id="b">
      <stop offset="0" stop-color="#a52714"/>
      <stop offset=".4" stop-color="#a52714" stop-opacity=".5"/>
      <stop offset=".8" stop-color="#a52714" stop-opacity="0"/>
    </linearGradient>
    <linearGradient x1="237.855" y1="186.91" x2="234.275" y2="183.33" gradientUnits="userSpaceOnUse" id="c">
      <stop offset="0" stop-color="#a52714" stop-opacity=".8"/>
      <stop offset=".5" stop-color="#a52714" stop-opacity=".21"/>
      <stop offset="1" stop-color="#a52714" stop-opacity="0"/>
    </linearGradient>
    <linearGradient x1="174.153" y1="136.281" x2="307.84" y2="269.968" gradientUnits="userSpaceOnUse" id="d">
      <stop offset="0" stop-color="#fff" stop-opacity=".1"/>
      <stop offset="1" stop-color="#fff" stop-opacity="0"/>
    </linearGradient>
  </defs>
  <g fill="none">
    <g clip-path="url(#a)">
      <path d="M178.965 246l21.66-138.61a4 4 0 0 1 7.48-1.27l22.4 41.78 8.93-17a4 4 0 0 1 7.08 0l60.45 115.1z" fill="#ffa000"/>
      <path d="M252.965 105l-106-9v192l32-42z" fill="url(#b)" opacity=".12"/>
      <path d="M253.795 192.01l-23.3-44.12-51.53 98.11z" fill="#f57c00"/>
      <path d="M146.965 96h192v192h-192z" fill="url(#c)" opacity=".2"/>
      <path d="M306.965 246l-16.59-102.66a4 4 0 0 0-6.77-2.16L178.965 246l57.9 32.47a12 12 0 0 0 11.7 0z" fill="#ffca28"/>
      <path d="M290.375 143.34a4 4 0 0 0-6.77-2.16L262.845 162l-16.34-31.11a4 4 0 0 0-7.08 0l-8.93 17-22.4-41.77a4 4 0 0 0-7.48 1.28L178.965 246h-.08l.07.08.57.28 83.27-83.36 20.78-20.8a4 4 0 0 1 6.78 2.16l16.45 101.74.16-.1zm-111.22 102.47l21.47-137.42a4 4 0 0 1 7.48-1.28l22.4 41.78 8.93-17a4 4 0 0 1 7.08 0l16 30.43z" fill-opacity=".2" fill="#fff"/>
      <path d="M248.565 277.49a12 12 0 0 1-11.7 0l-57.76-32.4-.14.91 57.9 32.46a12 12 0 0 0 11.7 0l58.4-32.46-.15-.92z" fill="#a52714" opacity=".2"/>
      <path d="M290.375 143.34a4 4 0 0 0-6.77-2.16L262.845 162l-16.34-31.11a4 4 0 0 0-7.08 0l-8.93 17-22.4-41.77a4 4 0 0 0-7.48 1.28L178.965 246l57.9 32.46a12 12 0 0 0 11.7 0l58.4-32.46z" fill="url(#d)"/>
    </g>
    <circle cx="290.965" cy="240" r="40" fill="#fff"/>
    <path d="M306.979 249.512v-19.02l-6.736-6.736 4.238-4.24 8.484 8.484v21.54l-.014.008v2.458l-8.476 8.478-4.232-4.234zm-32.028-.006l6.736 6.738-4.238 4.24-8.484-8.484v-21.54l.014-.008v-2.458l8.476-8.478 4.232 4.234-6.736 6.738v19.02zm7.016-6.5a3.009 3.009 0 1 1 0-6.014 3.009 3.009 0 0 1 0 6.012zm8.996 0a3.009 3.009 0 1 1 0-6.014 3.009 3.009 0 0 1 0 6.012zm8.996 0a3.009 3.009 0 1 1 0-6.014 3.009 3.009 0 0 1 0 6.012z" fill-opacity=".54" fill="#000" fill-rule="evenodd"/>
    <path d="M111.87 352.683c-4.493 0-8.262-1.522-11.307-4.566-3.042-3.043-4.563-6.84-4.563-11.39 0-4.551 1.521-8.35 4.563-11.394 3.045-3.044 6.814-4.566 11.307-4.566 4.609 0 8.35 1.664 11.223 4.993l-2.733 2.647c-2.076-2.59-4.906-3.884-8.49-3.884-3.327 0-6.136 1.124-8.427 3.37-2.289 2.247-3.433 5.191-3.433 8.834 0 3.64 1.144 6.583 3.433 8.83 2.291 2.246 5.1 3.37 8.427 3.37 3.669 0 6.798-1.48 9.387-4.437l2.73 2.73c-1.394 1.68-3.143 3.01-5.247 3.99-2.104.982-4.394 1.473-6.87 1.473zm19.117-31.233V352h-3.927v-30.55zm6.186 12.14c2.018-2.12 4.591-3.18 7.72-3.18 3.13 0 5.704 1.06 7.724 3.18 2.02 2.118 3.03 4.77 3.03 7.957 0 3.186-1.01 5.839-3.03 7.956-2.02 2.12-4.595 3.18-7.724 3.18-3.129 0-5.702-1.06-7.72-3.18-2.02-2.117-3.03-4.77-3.03-7.956 0-3.187 1.01-5.84 3.03-7.957zm2.92 13.44c1.351 1.38 2.951 2.07 4.8 2.07 1.85 0 3.45-.69 4.8-2.07 1.351-1.38 2.027-3.208 2.027-5.483 0-2.276-.676-4.104-2.027-5.484-1.35-1.38-2.95-2.07-4.8-2.07-1.849 0-3.449.69-4.8 2.07-1.35 1.38-2.026 3.208-2.026 5.484 0 2.275.675 4.103 2.026 5.483zm37.057-15.937V352h-3.753v-2.9h-.17c-.598.996-1.51 1.841-2.734 2.537a7.707 7.707 0 0 1-3.88 1.046c-2.617 0-4.602-.796-5.953-2.39-1.351-1.593-2.027-3.726-2.027-6.4v-12.8h3.927v12.16c0 3.898 1.72 5.847 5.16 5.847 1.622 0 2.946-.654 3.97-1.963 1.024-1.31 1.537-2.817 1.537-4.524v-11.52zm13.1 21.59c-2.702 0-5.034-1.066-6.997-3.2-1.964-2.133-2.946-4.779-2.946-7.936 0-3.158.982-5.804 2.946-7.937 1.963-2.133 4.295-3.2 6.997-3.2 1.593 0 3.022.341 4.287 1.023 1.266.685 2.212 1.538 2.836 2.56h.174l-.174-2.9v-9.643h3.927V352h-3.753v-2.9h-.174c-.624 1.022-1.57 1.876-2.836 2.56-1.265.682-2.694 1.023-4.287 1.023zm.64-3.583c1.849 0 3.42-.683 4.713-2.05 1.296-1.364 1.944-3.199 1.944-5.503 0-2.305-.648-4.14-1.944-5.504-1.293-1.366-2.864-2.05-4.713-2.05-1.82 0-3.384.69-4.693 2.07-1.31 1.38-1.964 3.208-1.964 5.484 0 2.275.655 4.103 1.964 5.483s2.873 2.07 4.693 2.07zm29.183-10.2V352h-3.926v-30.55h17.836v3.757h-13.91v10.026h12.544v3.667zm35.157-7.807V352h-3.753v-2.9h-.17c-.598.996-1.51 1.841-2.734 2.537a7.707 7.707 0 0 1-3.88 1.046c-2.617 0-4.602-.796-5.953-2.39-1.351-1.593-2.027-3.726-2.027-6.4v-12.8h3.927v12.16c0 3.898 1.72 5.847 5.16 5.847 1.622 0 2.946-.654 3.97-1.963 1.024-1.31 1.537-2.817 1.537-4.524v-11.52zm4.78 0h3.753v2.9h.17c.57-.995 1.466-1.84 2.69-2.536a7.786 7.786 0 0 1 3.924-1.047c2.589 0 4.566.797 5.933 2.39 1.364 1.593 2.047 3.727 2.047 6.4V352H274.6v-12.203c0-3.87-1.72-5.804-5.16-5.804-1.622 0-2.946.648-3.97 1.944-1.024 1.293-1.537 2.793-1.537 4.5V352h-3.923zm32.257 21.59c-3.13 0-5.704-1.06-7.724-3.18-2.02-2.117-3.03-4.77-3.03-7.956 0-3.187 1.01-5.84 3.03-7.957 2.02-2.12 4.595-3.18 7.724-3.18 2.33 0 4.264.569 5.8 1.707 1.537 1.137 2.662 2.574 3.373 4.31l-3.587 1.493c-1.08-2.618-3.027-3.927-5.843-3.927-1.736 0-3.264.711-4.587 2.134-1.322 1.422-1.983 3.229-1.983 5.42 0 2.19.661 3.997 1.983 5.42 1.323 1.422 2.851 2.133 4.587 2.133 2.929 0 4.948-1.309 6.057-3.927l3.5 1.494c-.711 1.706-1.856 3.135-3.434 4.286-1.58 1.154-3.535 1.73-5.866 1.73zm21.12-.343c-2.191 0-3.863-.582-5.014-1.747-1.153-1.166-1.73-2.816-1.73-4.95v-10.966h-3.67v-3.584h3.67v-6.4h3.927v6.4h5.12v3.584h-5.12v10.666c0 2.276.939 3.414 2.817 3.414.71 0 1.307-.114 1.79-.34l1.366 3.37c-.853.369-1.905.553-3.156.553zm9.896-26.493c-.54.54-1.194.81-1.963.81a2.67 2.67 0 0 1-1.96-.81 2.675 2.675 0 0 1-.813-1.964c0-.769.27-1.423.813-1.963a2.67 2.67 0 0 1 1.96-.81c.769 0 1.423.27 1.963.81s.81 1.194.81 1.963a2.68 2.68 0 0 1-.81 1.964zm0 5.246V352h-3.923v-20.907zm6.317 2.497c2.018-2.12 4.591-3.18 7.72-3.18 3.129 0 5.703 1.06 7.723 3.18 2.02 2.118 3.03 4.77 3.03 7.957 0 3.186-1.01 5.839-3.03 7.956-2.02 2.12-4.594 3.18-7.723 3.18-3.129 0-5.702-1.06-7.72-3.18-2.02-2.117-3.03-4.77-3.03-7.956 0-3.187 1.01-5.84 3.03-7.957zm2.92 13.44c1.351 1.38 2.951 2.07 4.8 2.07 1.849 0 3.449-.69 4.8-2.07s2.027-3.208 2.027-5.483c0-2.276-.676-4.104-2.027-5.484s-2.951-2.07-4.8-2.07c-1.849 0-3.449.69-4.8 2.07s-2.027 3.208-2.027 5.484c0 2.275.676 4.103 2.027 5.483zm18.71-15.937h3.757v2.9h.17c.569-.995 1.464-1.84 2.686-2.536a7.804 7.804 0 0 1 3.927-1.047c2.589 0 4.566.797 5.93 2.39 1.364 1.593 2.047 3.727 2.047 6.4V352h-3.924v-12.203c0-3.87-1.72-5.804-5.163-5.804-1.622 0-2.944.648-3.967 1.944-1.024 1.293-1.536 2.793-1.536 4.5V352h-3.927zm30.463 21.59c-2.33 0-4.257-.569-5.78-1.706-1.522-1.138-2.639-2.56-3.35-4.267l3.5-1.45c1.11 2.616 3 3.923 5.674 3.923 1.224 0 2.227-.27 3.01-.81.782-.54 1.173-1.25 1.173-2.133 0-1.364-.953-2.289-2.86-2.773l-4.223-1.024c-1.338-.342-2.604-.99-3.797-1.943-1.196-.951-1.793-2.238-1.793-3.86 0-1.849.817-3.349 2.453-4.5 1.636-1.153 3.577-1.73 5.823-1.73 1.85 0 3.5.42 4.95 1.26 1.451.838 2.49 2.039 3.114 3.603l-3.414 1.41c-.766-1.849-2.359-2.773-4.776-2.773-1.167 0-2.148.241-2.944.723-.797.485-1.196 1.14-1.196 1.964 0 1.195.924 2.006 2.773 2.433l4.14.98c1.962.456 3.412 1.238 4.35 2.347.94 1.109 1.41 2.36 1.41 3.756 0 1.876-.768 3.44-2.303 4.694-1.538 1.25-3.516 1.876-5.934 1.876zM175.135 372.4c.88 0 1.62.13 2.22.39l-.96 2.37c-.32-.16-.74-.24-1.26-.24-.72 0-1.31.215-1.77.645-.46.43-.69 1.055-.69 1.875v1.86h3.84v2.52h-3.84V394h-2.76v-12.18h-2.76v-2.52h2.76v-1.95c0-1.5.48-2.7 1.44-3.6.96-.9 2.22-1.35 3.78-1.35zm4.26 8.655c1.42-1.49 3.23-2.235 5.43-2.235 2.2 0 4.01.745 5.43 2.235 1.42 1.49 2.13 3.355 2.13 5.595 0 2.24-.71 4.105-2.13 5.595-1.42 1.49-3.23 2.235-5.43 2.235-2.2 0-4.01-.745-5.43-2.235-1.42-1.49-2.13-3.355-2.13-5.595 0-2.24.71-4.105 2.13-5.595zm2.055 9.45c.95.97 2.075 1.455 3.375 1.455 1.3 0 2.425-.485 3.375-1.455.95-.97 1.425-2.255 1.425-3.855s-.475-2.885-1.425-3.855c-.95-.97-2.075-1.455-3.375-1.455-1.3 0-2.425.485-3.375 1.455-.95.97-1.425 2.255-1.425 3.855s.475 2.885 1.425 3.855zm15.915-4.545V394h-2.76v-14.7h2.64v2.4h.12c.28-.8.855-1.46 1.725-1.98.87-.52 1.715-.78 2.535-.78.82 0 1.51.12 2.07.36l-1.05 2.58c-.36-.14-.85-.21-1.47-.21-1 0-1.885.395-2.655 1.185-.77.79-1.155 1.825-1.155 3.105zm17.97-1.17V394h-2.76v-21.48h12.54v2.64h-9.78v7.05h8.82v2.58zm14.97-9.18c-.38.38-.84.57-1.38.57-.54 0-1-.19-1.38-.57a1.88 1.88 0 0 1-.57-1.38c0-.54.19-1 .57-1.38.38-.38.84-.57 1.38-.57.54 0 1 .19 1.38.57.38.38.57.84.57 1.38 0 .54-.19 1-.57 1.38zm0 3.69V394h-2.76v-14.7zm6.06 6.66V394h-2.76v-14.7h2.64v2.4h.12c.28-.8.855-1.46 1.725-1.98.87-.52 1.715-.78 2.535-.78.82 0 1.51.12 2.07.36l-1.05 2.58c-.36-.14-.85-.21-1.47-.21-1 0-1.885.395-2.655 1.185-.77.79-1.155 1.825-1.155 3.105zm13.89 8.52c-2.22 0-4.025-.74-5.415-2.22-1.39-1.48-2.085-3.35-2.085-5.61 0-2.14.675-3.98 2.025-5.52 1.35-1.54 3.075-2.31 5.175-2.31 2.18 0 3.925.71 5.235 2.13 1.31 1.42 1.965 3.32 1.965 5.7l-.03.51h-11.61c.08 1.48.575 2.65 1.485 3.51.91.86 1.975 1.29 3.195 1.29 1.98 0 3.32-.84 4.02-2.52l2.46 1.02c-.48 1.14-1.27 2.095-2.37 2.865s-2.45 1.155-4.05 1.155zm-4.56-9.6h8.52c-.06-.84-.445-1.64-1.155-2.4s-1.765-1.14-3.165-1.14c-1.02 0-1.905.32-2.655.96-.75.64-1.265 1.5-1.545 2.58zm21.45 9.6c-1.12 0-2.125-.24-3.015-.72-.89-.48-1.555-1.08-1.995-1.8h-.12V394h-2.64v-21.48h2.76v6.78l-.12 2.04h.12c.44-.72 1.105-1.32 1.995-1.8.89-.48 1.895-.72 3.015-.72 1.9 0 3.54.75 4.92 2.25s2.07 3.36 2.07 5.58-.69 4.08-2.07 5.58-3.02 2.25-4.92 2.25zm-.45-2.52c1.28 0 2.38-.485 3.3-1.455.92-.97 1.38-2.255 1.38-3.855s-.46-2.885-1.38-3.855c-.92-.97-2.02-1.455-3.3-1.455-1.3 0-2.405.48-3.315 1.44-.91.96-1.365 2.25-1.365 3.87s.455 2.91 1.365 3.87c.91.96 2.015 1.44 3.315 1.44zm14.46 2.52c-1.56 0-2.865-.45-3.915-1.35-1.05-.9-1.575-2.09-1.575-3.57 0-1.6.62-2.855 1.86-3.765 1.24-.91 2.77-1.365 4.59-1.365 1.62 0 2.95.3 3.99.9v-.42c0-1.08-.37-1.945-1.11-2.595-.74-.65-1.65-.975-2.73-.975-.8 0-1.525.19-2.175.57-.65.38-1.095.9-1.335 1.56l-2.52-1.08c.34-.88 1.01-1.695 2.01-2.445 1-.75 2.32-1.125 3.96-1.125 1.88 0 3.44.55 4.68 1.65 1.24 1.1 1.86 2.65 1.86 4.65V394h-2.64v-2.04h-.12c-1.1 1.68-2.71 2.52-4.83 2.52zm.45-2.52c1.14 0 2.175-.425 3.105-1.275.93-.85 1.395-1.855 1.395-3.015-.78-.64-1.95-.96-3.51-.96-1.34 0-2.35.29-3.03.87-.68.58-1.02 1.26-1.02 2.04 0 .72.31 1.29.93 1.71.62.42 1.33.63 2.13.63zm15.27 2.52c-1.64 0-2.995-.4-4.065-1.2a7.103 7.103 0 0 1-2.355-3l2.46-1.02c.78 1.84 2.11 2.76 3.99 2.76.86 0 1.565-.19 2.115-.57.55-.38.825-.88.825-1.5 0-.96-.67-1.61-2.01-1.95l-2.97-.72c-.94-.24-1.83-.695-2.67-1.365-.84-.67-1.26-1.575-1.26-2.715 0-1.3.575-2.355 1.725-3.165 1.15-.81 2.515-1.215 4.095-1.215 1.3 0 2.46.295 3.48.885a4.988 4.988 0 0 1 2.19 2.535l-2.4.99c-.54-1.3-1.66-1.95-3.36-1.95-.82 0-1.51.17-2.07.51-.56.34-.84.8-.84 1.38 0 .84.65 1.41 1.95 1.71l2.91.69c1.38.32 2.4.87 3.06 1.65.66.78.99 1.66.99 2.64 0 1.32-.54 2.42-1.62 3.3-1.08.88-2.47 1.32-4.17 1.32zm15 0c-2.22 0-4.025-.74-5.415-2.22-1.39-1.48-2.085-3.35-2.085-5.61 0-2.14.675-3.98 2.025-5.52 1.35-1.54 3.075-2.31 5.175-2.31 2.18 0 3.925.71 5.235 2.13 1.31 1.42 1.965 3.32 1.965 5.7l-.03.51h-11.61c.08 1.48.575 2.65 1.485 3.51.91.86 1.975 1.29 3.195 1.29 1.98 0 3.32-.84 4.02-2.52l2.46 1.02c-.48 1.14-1.27 2.095-2.37 2.865s-2.45 1.155-4.05 1.155zm-4.56-9.6h8.52c-.06-.84-.445-1.64-1.155-2.4s-1.765-1.14-3.165-1.14c-1.02 0-1.905.32-2.655.96-.75.64-1.265 1.5-1.545 2.58z" fill="#fff"/>
  </g>
</svg>
