<svg width="574" height="628" viewBox="0 0 574 628" fill="none" xmlns="http://www.w3.org/2000/svg">
<path d="M407.119 240.644C407.119 240.644 397.865 154.335 312.251 151.939C226.638 149.542 182.67 216.67 182.67 312.566C182.67 408.463 231.262 485.185 314.563 485.185C397.865 485.185 407.119 389.288 407.119 389.288L566.778 398.876C566.778 398.876 576.179 485.487 509.367 551.566C442.554 617.64 360.547 628.436 303.277 627.987C246.008 627.53 166.604 628.884 89.8173 550.218C13.0306 471.552 0 395.132 0 320.063C0 244.99 14.5617 145.541 105.862 70.1263C167.912 18.8812 230.814 0 293.725 0C556.361 0 574 242.294 574 242.294L407.119 240.644Z" fill="#A8B9CC"/>
</svg>
