<svg width="489" height="489" viewBox="0 0 489 489" fill="none" xmlns="http://www.w3.org/2000/svg">
<g clip-path="url(#clip0_2450_2)">
<path fill-rule="evenodd" clip-rule="evenodd" d="M42.6246 336.976C29.5108 308.676 22.1914 277.153 22.1914 243.934C22.1914 235.337 22.6807 226.853 23.6355 218.51C24.6039 210.08 26.0388 201.806 27.9119 193.715C38.4381 148.322 62.9213 108.252 96.5856 78.2789C124.863 53.1368 159.503 35.1991 197.476 27.0684C212.462 23.8673 228.006 22.1831 243.941 22.1831C249.526 22.1888 255.152 22.4039 260.813 22.8352C287.65 24.8846 313.011 31.6407 336.149 42.2328C354.813 50.788 372.088 61.857 387.539 75.0072C426.351 108.07 453.419 154.126 462.421 205.808C464.571 218.196 465.692 230.935 465.692 243.934C465.688 249.528 465.471 255.162 465.039 260.831C463.404 282.251 458.77 302.731 451.579 321.891C441.544 348.578 426.508 372.823 407.615 393.486C383.043 418.576 351.818 429.739 325.738 429.275C306.774 428.937 288.218 421.391 275.396 410.351C257.079 394.577 249.68 376.547 247.145 356.428C246.514 351.427 246.884 337.799 249.487 328.363C251.427 321.329 256.347 307.745 263.543 301.804C255.125 298.178 244.292 290.284 240.877 286.495C240.038 285.563 240.146 284.105 240.897 283.102C241.649 282.098 242.968 281.702 244.148 282.126C251.385 284.61 260.198 287.061 269.491 288.615C281.712 290.658 296.912 293.232 312.31 293.988C349.852 295.832 389.068 278.98 401.239 245.452C413.41 211.924 408.688 178.762 365.025 158.869C321.361 138.977 301.192 115.325 265.913 101.06C242.87 91.7409 217.223 97.2726 190.892 111.825C119.967 151.02 56.4247 274.858 85.7169 389.593C86.1357 391.162 85.429 392.816 84.0043 393.598C82.6706 394.33 81.0285 394.121 79.9224 393.108C71.398 383.742 63.6644 373.643 56.8264 362.919C51.536 354.619 46.7873 345.953 42.6246 336.976Z" fill="black"/>
<path fill-rule="evenodd" clip-rule="evenodd" d="M255.271 0.267577C389.756 6.52351 493.862 120.787 487.606 255.272C481.35 389.757 367.087 493.861 232.602 487.605C98.1167 481.349 -5.98933 367.087 0.266604 232.603C6.52253 98.1175 120.786 -5.98835 255.271 0.267577ZM312.305 293.991C296.908 293.233 281.708 290.66 269.486 288.617C260.193 287.063 251.38 284.613 244.144 282.129C242.963 281.705 241.645 282.1 240.893 283.103C240.141 284.107 240.033 285.566 240.872 286.497C244.287 290.287 255.12 298.181 263.538 301.806C256.342 307.747 251.421 321.332 249.482 328.365C246.879 337.801 246.509 351.429 247.139 356.43C249.675 376.55 257.074 394.58 275.391 410.353C288.214 421.394 306.769 428.939 325.733 429.278C351.903 429.743 383.255 418.501 407.866 393.227C440.043 357.952 461.122 312.083 465.035 260.833C474.354 138.797 382.843 32.1549 260.807 22.8366C138.773 13.5183 32.1306 105.03 22.8121 227.065C17.9862 290.264 40.2029 349.336 79.701 392.895C80.801 394.091 82.575 394.382 83.999 393.6C85.4231 392.819 86.1299 391.165 85.711 389.596C56.4193 274.861 119.962 151.021 190.887 111.826C217.218 97.2742 242.865 91.7425 265.908 101.061C301.187 115.326 321.356 138.978 365.02 158.871C408.684 178.763 413.406 211.926 401.235 245.454C389.063 278.982 349.848 295.834 312.305 293.991ZM235.902 116.519C221.592 117.639 212.197 135.35 210.966 146.744C209.731 158.137 215.386 176.941 234.031 176.574C255.866 176.144 262.5 157.453 260.105 139.368C258.307 125.786 247.865 115.581 235.902 116.519Z" fill="white"/>
<path fill-rule="evenodd" clip-rule="evenodd" d="M236 116.451C247.963 115.514 258.4 125.724 260.2 139.303C262.6 157.391 255.962 176.077 234.131 176.507C215.483 176.878 209.833 158.073 211.068 146.68C212.295 135.287 221.687 117.575 236 116.451Z" fill="black"/>
</g>
<defs>
<clipPath id="clip0_2450_2">
<rect width="488.976" height="488.976" fill="white"/>
</clipPath>
</defs>
</svg>
