<svg width="387" height="387" viewBox="0 0 387 387" fill="none" xmlns="http://www.w3.org/2000/svg">
<path d="M361.288 168.876C356.641 137.555 343.34 108.154 322.883 83.985C302.426 59.8164 275.625 41.8409 245.502 32.084C234.03 28.4411 222.219 25.9694 210.249 24.7068C207.068 24.3803 185.19 24.0174 182.433 24.2835C181.707 24.2835 179.386 24.5738 177.305 24.7431C153.191 27.0771 129.856 34.5467 108.869 46.6497C87.8814 58.7527 69.7284 75.2086 55.6301 94.911C39.8595 116.801 29.6078 142.175 25.7465 168.876C24.4457 177.016 23.9233 185.261 24.1864 193.499C23.9094 201.749 24.4197 210.006 25.7102 218.158C30.3486 249.486 43.6465 278.894 64.1044 303.068C84.5624 327.242 111.367 345.22 141.496 354.975C153.128 358.661 165.107 361.145 177.245 362.388C188.049 362.957 198.876 362.957 209.68 362.388C230.954 360.308 251.649 354.258 270.693 344.55C273.596 343.063 274.164 342.664 273.765 342.337C273.366 342.011 261.091 325.49 246.191 305.366L219.113 268.795L185.251 218.582C166.578 190.984 151.219 168.417 151.086 168.417C150.953 168.417 150.82 190.681 150.76 217.929C151.623 234.858 151.381 251.825 150.034 268.722C149.452 270.041 148.419 271.109 147.119 271.734C146.055 272.266 145.124 272.363 140.129 272.363H134.409L132.885 271.407C131.941 270.814 131.173 269.979 130.66 268.988L129.97 267.501L130.031 201.143L130.14 134.748L131.156 133.454C131.841 132.648 132.659 131.965 133.574 131.434C134.929 130.781 135.461 130.709 141.181 130.709C147.942 130.709 149.066 130.975 150.856 132.897C151.352 133.43 169.723 161.088 191.697 194.418C213.671 227.749 243.7 273.258 258.503 295.595L285.29 336.206L286.645 335.311C299.555 326.727 311.257 316.452 321.439 304.762C342.771 280.349 356.607 250.3 361.288 218.219C362.582 210.046 363.092 201.769 362.811 193.499C363.086 185.262 362.576 177.017 361.288 168.876V168.876ZM255.334 191.31L255.237 250.824L244.74 234.739L234.219 218.654V175.359C234.219 147.398 234.352 131.676 234.545 130.914C234.781 130.033 235.193 129.209 235.757 128.492C236.32 127.775 237.023 127.18 237.823 126.742C239.177 126.04 239.673 125.98 244.873 125.98C249.711 125.98 250.63 126.04 251.718 126.645C252.51 127.039 253.214 127.587 253.789 128.258C254.365 128.929 254.8 129.709 255.068 130.551C255.334 131.446 255.395 149.841 255.334 191.31Z" fill="white"/>
</svg>
