<svg width="271" height="271" viewBox="0 0 271 271" fill="none" xmlns="http://www.w3.org/2000/svg">
<g clip-path="url(#clip0_5753_2)">
<path d="M135.5 271C210.335 271 271 210.335 271 135.5C271 60.6654 210.335 0 135.5 0C60.6654 0 0 60.6654 0 135.5C0 210.335 60.6654 271 135.5 271Z" fill="white"/>
<path d="M225.093 237.157L104.098 81.3008H81.3008V189.656H99.5384V104.461L210.777 248.184C215.796 244.825 220.579 241.139 225.093 237.157Z" fill="url(#paint0_linear_5753_2)"/>
<path d="M191.199 81.3008H173.133V189.701H191.199V81.3008Z" fill="url(#paint1_linear_5753_2)"/>
</g>
<defs>
<linearGradient id="paint0_linear_5753_2" x1="164.106" y1="175.398" x2="217.553" y2="241.642" gradientUnits="userSpaceOnUse">
<stop/>
<stop offset="1" stop-color="white" stop-opacity="0"/>
<stop offset="1" stop-color="white" stop-opacity="0"/>
</linearGradient>
<linearGradient id="paint1_linear_5753_2" x1="182.166" y1="81.3008" x2="181.864" y2="160.907" gradientUnits="userSpaceOnUse">
<stop/>
<stop offset="1" stop-color="white" stop-opacity="0"/>
</linearGradient>
<clipPath id="clip0_5753_2">
<rect width="271" height="271" fill="white"/>
</clipPath>
</defs>
</svg>
