<svg width="952" height="952" viewBox="0 0 952 952" fill="none" xmlns="http://www.w3.org/2000/svg">
<path fill-rule="evenodd" clip-rule="evenodd" d="M718.781 690.48L390.717 787.508C380.694 790.476 371.088 781.806 373.195 771.698L490.393 210.418C492.585 199.928 507.094 198.261 511.671 207.981L728.672 668.785C732.764 677.478 728.095 687.729 718.781 690.48ZM775.04 667.592L523.782 134.04V134.028C520.661 127.458 515.819 121.855 509.771 117.814C503.723 113.772 496.693 111.443 489.429 111.072C474.138 110.182 460.44 117.556 452.712 130.107L180.211 571.472C176.071 578.139 173.918 585.848 174.002 593.695C174.087 601.543 176.407 609.203 180.69 615.779L313.893 822.119C321.832 834.435 335.587 841.564 349.885 841.564C353.937 841.564 358.012 840.993 362.019 839.806L748.671 725.45C754.492 723.744 759.878 720.81 764.467 716.843C769.055 712.877 772.739 707.972 775.268 702.46C777.765 696.979 779.039 691.021 778.999 684.998C778.96 678.976 777.609 673.034 775.04 667.587V667.592Z" fill="white"/>
</svg>
