<svg viewBox="0 0 512 512" fill="none" xmlns="http://www.w3.org/2000/svg">
<path d="M252.179 298.061C275.179 298.061 293.824 279.416 293.824 256.417C293.824 233.417 275.179 214.772 252.179 214.772C229.18 214.772 210.535 233.417 210.535 256.417C210.535 279.416 229.18 298.061 252.179 298.061Z" fill="#61DAFB"/>
<path d="M504 256.468C504 223.08 462.188 191.439 398.084 171.817C412.877 106.48 406.303 54.4982 377.332 37.8557C370.655 33.9519 362.847 32.1027 354.32 32.1027V55.0118C359.046 55.0118 362.847 55.9364 366.032 57.6828C380.003 65.6959 386.064 96.2071 381.339 135.45C380.209 145.107 378.36 155.278 376.099 165.653C355.964 160.722 333.98 156.921 310.865 154.456C296.996 135.45 282.614 118.192 268.129 103.09C301.619 71.9625 333.055 54.9091 354.423 54.9091V32C326.172 32 289.189 52.1354 251.795 87.064C214.4 52.3408 177.417 32.4109 149.166 32.4109V55.32C170.431 55.32 201.97 72.2707 235.46 103.193C221.078 118.294 206.696 135.45 193.032 154.456C169.815 156.921 147.83 160.722 127.695 165.756C125.332 155.483 123.586 145.518 122.353 135.964C117.525 96.7207 123.483 66.2095 137.352 58.0938C140.434 56.2446 144.44 55.4228 149.166 55.4228V32.5137C140.536 32.5137 132.729 34.3628 125.949 38.2666C97.0811 54.9091 90.6091 106.788 105.505 171.92C41.6062 191.645 0 223.183 0 256.468C0 289.856 41.8117 321.497 105.916 341.119C91.1227 406.456 97.6975 458.438 126.668 475.08C133.345 478.984 141.153 480.833 149.782 480.833C178.033 480.833 215.017 460.698 252.411 425.769C289.805 460.492 326.788 480.422 355.04 480.422C363.669 480.422 371.477 478.573 378.257 474.669C407.124 458.027 413.596 406.148 398.7 341.016C462.394 321.394 504 289.753 504 256.468ZM370.244 187.946C366.443 201.199 361.717 214.862 356.375 228.525C352.163 220.307 347.746 212.088 342.917 203.87C338.192 195.651 333.158 187.638 328.124 179.83C342.712 181.988 356.786 184.659 370.244 187.946ZM323.193 297.355C315.18 311.224 306.961 324.373 298.435 336.598C283.128 337.934 267.615 338.653 252 338.653C236.488 338.653 220.975 337.934 205.771 336.701C197.244 324.476 188.923 311.429 180.91 297.663C173.102 284.205 166.014 270.542 159.542 256.776C165.911 243.01 173.102 229.244 180.807 215.786C188.82 201.918 197.039 188.768 205.565 176.543C220.872 175.207 236.385 174.488 252 174.488C267.512 174.488 283.025 175.208 298.229 176.44C306.756 188.665 315.077 201.712 323.09 215.478C330.898 228.936 337.986 242.599 344.458 256.365C337.986 270.131 330.898 283.897 323.193 297.355ZM356.375 284C361.923 297.766 366.648 311.532 370.552 324.887C357.094 328.174 342.917 330.948 328.227 333.106C333.261 325.195 338.294 317.079 343.02 308.758C347.746 300.54 352.163 292.218 356.375 284ZM252.206 393.614C242.651 383.752 233.097 372.76 223.646 360.74C232.892 361.151 242.343 361.459 251.897 361.459C261.554 361.459 271.108 361.254 280.457 360.74C271.211 372.76 261.657 383.752 252.206 393.614ZM175.773 333.106C161.185 330.948 147.111 328.277 133.653 324.99C137.455 311.737 142.18 298.074 147.522 284.411C151.734 292.629 156.152 300.848 160.98 309.066C165.808 317.285 170.74 325.298 175.773 333.106ZM251.692 119.322C261.246 129.184 270.8 140.176 280.251 152.196C271.005 151.785 261.554 151.477 252 151.477C242.343 151.477 232.789 151.682 223.441 152.196C232.687 140.176 242.241 129.184 251.692 119.322ZM175.671 179.83C170.637 187.741 165.603 195.857 160.877 204.178C156.152 212.396 151.734 220.615 147.522 228.833C141.975 215.067 137.249 201.301 133.345 187.946C146.803 184.762 160.98 181.988 175.671 179.83ZM82.6988 308.45C46.3319 292.938 22.8064 272.597 22.8064 256.468C22.8064 240.339 46.3319 219.896 82.6988 204.486C91.5337 200.685 101.19 197.295 111.155 194.11C117.011 214.245 124.716 235.203 134.27 256.673C124.819 278.042 117.216 298.896 111.464 318.929C101.293 315.744 91.6364 312.251 82.6988 308.45ZM137.968 455.253C123.997 447.24 117.936 416.729 122.661 377.486C123.791 367.829 125.64 357.658 127.901 347.282C148.036 352.214 170.02 356.015 193.135 358.48C207.004 377.486 221.386 394.744 235.871 409.846C202.381 440.973 170.945 458.027 149.577 458.027C144.954 457.924 141.05 457 137.968 455.253ZM381.647 376.972C386.475 416.215 380.517 446.726 366.648 454.842C363.566 456.691 359.56 457.513 354.834 457.513C333.569 457.513 302.03 440.563 268.54 409.64C282.922 394.539 297.305 377.383 310.968 358.378C334.185 355.912 356.17 352.111 376.305 347.077C378.668 357.453 380.517 367.418 381.647 376.972ZM421.199 308.45C412.364 312.251 402.707 315.641 392.742 318.826C386.886 298.691 379.181 277.733 369.627 256.263C379.079 234.894 386.681 214.04 392.434 194.007C402.604 197.192 412.261 200.685 421.301 204.486C457.668 219.998 481.194 240.339 481.194 256.468C481.091 272.597 457.565 293.04 421.199 308.45Z" fill="#61DAFB"/>
</svg>
