<svg width="521" height="535" viewBox="0 0 521 535" fill="none" xmlns="http://www.w3.org/2000/svg">
<path d="M304.388 526.111C290.72 543.323 263.008 533.893 262.679 511.916L257.863 190.477H473.998C513.146 190.477 534.98 235.693 510.637 266.353L304.388 526.111Z" fill="url(#paint0_linear_1425_89)"/>
<path d="M304.388 526.111C290.72 543.323 263.008 533.893 262.679 511.916L257.863 190.477H473.998C513.146 190.477 534.98 235.693 510.637 266.353L304.388 526.111Z" fill="url(#paint1_linear_1425_89)" fill-opacity="0.2"/>
<path d="M216.482 8.88946C230.15 -8.32403 257.862 1.10772 258.192 23.0849L260.302 344.523H46.8717C7.72261 344.523 -14.1115 299.307 10.2325 268.647L216.482 8.88946Z" fill="#3ECF8E"/>
<defs>
<linearGradient id="paint0_linear_1425_89" x1="312.731" y1="261.748" x2="436.665" y2="313.726" gradientUnits="userSpaceOnUse">
<stop stop-color="#249361"/>
<stop offset="1" stop-color="#3ECF8E"/>
</linearGradient>
<linearGradient id="paint1_linear_1425_89" x1="263.1" y1="145.143" x2="342.66" y2="294.911" gradientUnits="userSpaceOnUse">
<stop/>
<stop offset="1" stop-opacity="0"/>
</linearGradient>
</defs>
</svg>
