<svg width="500" height="500" viewBox="0 0 500 500" fill="none" xmlns="http://www.w3.org/2000/svg">
<g clip-path="url(#clip0_2017_257)">
<path d="M401.587 95.4985C362.809 39.6442 285.609 23.2793 230.111 58.4995L132.277 121.113C105.595 137.834 87.0954 165.227 81.7591 196.178C77.1342 222.149 81.0475 248.831 93.4991 271.955C84.9609 284.762 79.2687 298.993 76.7784 313.935C71.0863 345.597 78.5572 378.327 97.0567 404.298C136.19 460.152 213.034 476.517 268.533 441.297L366.367 379.039C393.049 362.318 411.548 334.925 416.884 303.973C421.509 278.003 417.596 251.321 405.144 228.197C413.683 215.389 419.375 201.159 421.865 186.217C427.913 154.199 420.442 121.469 401.587 95.4985Z" fill="#FF3E00"/>
<path d="M220.505 409.634C188.843 417.816 155.757 405.365 137.258 378.683C125.873 363.029 121.604 343.463 124.806 324.252C125.518 321.05 126.229 318.204 126.941 315.002L128.719 309.31L133.7 312.867C145.44 321.406 158.248 327.809 172.122 332.078L175.68 333.146L175.324 336.703C174.968 341.684 176.391 347.02 179.237 351.289C184.929 359.472 194.891 363.385 204.496 360.895C206.631 360.183 208.765 359.472 210.544 358.405L308.022 296.147C313.003 292.945 316.205 288.32 317.272 282.628C318.339 276.936 316.916 270.888 313.714 266.263C308.022 258.08 298.061 254.523 288.455 257.013C286.321 257.725 284.186 258.436 282.408 259.503L245.053 283.339C239.005 287.253 232.245 290.099 225.13 291.878C193.468 300.06 160.382 287.608 141.883 260.926C130.854 245.273 126.229 225.706 129.787 206.495C132.989 187.996 144.373 171.275 160.382 161.314L258.216 99.056C264.264 95.1426 271.023 92.2965 278.138 90.162C309.801 81.9795 342.887 94.4311 361.386 121.113C372.77 136.766 377.04 156.333 373.838 175.544C373.126 178.746 372.415 181.592 371.347 184.794L369.569 190.486L364.588 186.929C352.848 178.39 340.041 171.987 326.166 167.718L322.608 166.65L322.964 163.093C323.32 158.112 321.897 152.776 319.051 148.507C313.359 140.324 303.397 136.766 293.792 139.257C291.657 139.968 289.523 140.68 287.744 141.747L190.266 204.005C185.285 207.207 182.083 211.832 181.016 217.524C179.949 223.216 181.372 229.264 184.574 233.889C190.266 242.071 200.227 245.629 209.833 243.139C211.967 242.427 214.102 241.715 215.881 240.648L253.235 216.812C259.283 212.899 266.043 210.053 273.158 207.918C304.82 199.736 337.906 212.187 356.406 238.869C367.79 254.523 372.059 274.09 368.857 293.301C365.655 311.8 354.271 328.521 338.262 338.482L240.428 400.74C234.38 404.653 227.621 407.499 220.505 409.634Z" fill="white"/>
</g>
<defs>
<clipPath id="clip0_2017_257">
<rect width="349" height="419.796" fill="white" transform="translate(75 40)"/>
</clipPath>
</defs>
</svg>
